<ttFont>
    <TTGlyph name="A" xMin="28" yMin="0" xMax="564" yMax="700">
      <contour>
        <pt x="28" y="0" on="1"/>
        <pt x="243" y="700" on="1"/>
        <pt x="349" y="700" on="1"/>
        <pt x="564" y="0" on="1"/>
        <pt x="528" y="0" on="1"/>
        <pt x="463" y="215" on="1"/>
        <pt x="129" y="215" on="1"/>
        <pt x="64" y="0" on="1"/>
      </contour>
      <contour>
        <pt x="268" y="666" on="1"/>
        <pt x="140" y="249" on="1"/>
        <pt x="452" y="249" on="1"/>
        <pt x="324" y="666" on="1"/>
      </contour>
    </TTGlyph>
    <TTGlyph name="AE" xMin="25" yMin="0" xMax="828" yMax="700">
      <contour>
        <pt x="419" y="0" on="1"/>
        <pt x="419" y="215" on="1"/>
        <pt x="143" y="215" on="1"/>
        <pt x="65" y="0" on="1"/>
        <pt x="25" y="0" on="1"/>
        <pt x="276" y="700" on="1"/>
        <pt x="828" y="700" on="1"/>
        <pt x="828" y="666" on="1"/>
        <pt x="455" y="666" on="1"/>
        <pt x="455" y="378" on="1"/>
        <pt x="768" y="378" on="1"/>
        <pt x="768" y="344" on="1"/>
        <pt x="455" y="344" on="1"/>
        <pt x="455" y="34" on="1"/>
        <pt x="828" y="34" on="1"/>
        <pt x="828" y="0" on="1"/>
      </contour>
      <contour>
        <pt x="419" y="249" on="1"/>
        <pt x="419" y="666" on="1"/>
        <pt x="304" y="666" on="1"/>
        <pt x="155" y="249" on="1"/>
      </contour>
    </TTGlyph>
    <TTGlyph name="AEacute" xMin="25" yMin="0" xMax="828" yMax="922">
      <contour>
        <pt x="419" y="0" on="1"/>
        <pt x="419" y="215" on="1"/>
        <pt x="143" y="215" on="1"/>
        <pt x="65" y="0" on="1"/>
        <pt x="25" y="0" on="1"/>
        <pt x="276" y="700" on="1"/>
        <pt x="828" y="700" on="1"/>
        <pt x="828" y="666" on="1"/>
        <pt x="455" y="666" on="1"/>
        <pt x="455" y="378" on="1"/>
        <pt x="768" y="378" on="1"/>
        <pt x="768" y="344" on="1"/>
        <pt x="455" y="344" on="1"/>
        <pt x="455" y="34" on="1"/>
        <pt x="828" y="34" on="1"/>
        <pt x="828" y="0" on="1"/>
      </contour>
      <contour>
        <pt x="419" y="249" on="1"/>
        <pt x="419" y="666" on="1"/>
        <pt x="304" y="666" on="1"/>
        <pt x="155" y="249" on="1"/>
      </contour>
      <contour>
        <pt x="446" y="826" on="1"/>
        <pt x="638" y="922" on="1"/>
        <pt x="654" y="891" on="1"/>
        <pt x="461" y="799" on="1"/>
      </contour>
    </TTGlyph>
    <TTGlyph name="Aacute" xMin="28" yMin="0" xMax="564" yMax="922">
      <contour>
        <pt x="28" y="0" on="1"/>
        <pt x="243" y="700" on="1"/>
        <pt x="349" y="700" on="1"/>
        <pt x="564" y="0" on="1"/>
        <pt x="528" y="0" on="1"/>
        <pt x="463" y="215" on="1"/>
        <pt x="129" y="215" on="1"/>
        <pt x="64" y="0" on="1"/>
      </contour>
      <contour>
        <pt x="268" y="666" on="1"/>
        <pt x="140" y="249" on="1"/>
        <pt x="452" y="249" on="1"/>
        <pt x="324" y="666" on="1"/>
      </contour>
      <contour>
        <pt x="202" y="826" on="1"/>
        <pt x="394" y="922" on="1"/>
        <pt x="410" y="891" on="1"/>
        <pt x="217" y="799" on="1"/>
      </contour>
    </TTGlyph>
    <TTGlyph name="Abreve" xMin="28" yMin="0" xMax="564" yMax="924">
      <contour>
        <pt x="28" y="0" on="1"/>
        <pt x="243" y="700" on="1"/>
        <pt x="349" y="700" on="1"/>
        <pt x="564" y="0" on="1"/>
        <pt x="528" y="0" on="1"/>
        <pt x="463" y="215" on="1"/>
        <pt x="129" y="215" on="1"/>
        <pt x="64" y="0" on="1"/>
      </contour>
      <contour>
        <pt x="268" y="666" on="1"/>
        <pt x="140" y="249" on="1"/>
        <pt x="452" y="249" on="1"/>
        <pt x="324" y="666" on="1"/>
      </contour>
      <contour>
        <pt x="157" y="924" on="1"/>
        <pt x="192" y="924" on="1"/>
        <pt x="192" y="884" on="0"/>
        <pt x="252" y="837" on="0"/>
        <pt x="338" y="837" on="0"/>
        <pt x="398" y="884" on="0"/>
        <pt x="398" y="924" on="1"/>
        <pt x="433" y="924" on="1"/>
        <pt x="433" y="870" on="0"/>
        <pt x="353" y="805" on="0"/>
        <pt x="237" y="805" on="0"/>
        <pt x="157" y="870" on="0"/>
      </contour>
    </TTGlyph>
    <TTGlyph name="Acircumflex" xMin="28" yMin="0" xMax="564" yMax="934">
      <contour>
        <pt x="28" y="0" on="1"/>
        <pt x="243" y="700" on="1"/>
        <pt x="349" y="700" on="1"/>
        <pt x="564" y="0" on="1"/>
        <pt x="528" y="0" on="1"/>
        <pt x="463" y="215" on="1"/>
        <pt x="129" y="215" on="1"/>
        <pt x="64" y="0" on="1"/>
      </contour>
      <contour>
        <pt x="268" y="666" on="1"/>
        <pt x="140" y="249" on="1"/>
        <pt x="452" y="249" on="1"/>
        <pt x="324" y="666" on="1"/>
      </contour>
      <contour>
        <pt x="146" y="809" on="1"/>
        <pt x="280" y="934" on="1"/>
        <pt x="310" y="934" on="1"/>
        <pt x="444" y="809" on="1"/>
        <pt x="399" y="809" on="1"/>
        <pt x="295" y="905" on="1"/>
        <pt x="192" y="809" on="1"/>
      </contour>
    </TTGlyph>
    <TTGlyph name="Adieresis" xMin="28" yMin="0" xMax="564" yMax="900">
      <contour>
        <pt x="28" y="0" on="1"/>
        <pt x="243" y="700" on="1"/>
        <pt x="349" y="700" on="1"/>
        <pt x="564" y="0" on="1"/>
        <pt x="528" y="0" on="1"/>
        <pt x="463" y="215" on="1"/>
        <pt x="129" y="215" on="1"/>
        <pt x="64" y="0" on="1"/>
      </contour>
      <contour>
        <pt x="268" y="666" on="1"/>
        <pt x="140" y="249" on="1"/>
        <pt x="452" y="249" on="1"/>
        <pt x="324" y="666" on="1"/>
      </contour>
      <contour>
        <pt x="180" y="838" on="1"/>
        <pt x="180" y="900" on="1"/>
        <pt x="215" y="900" on="1"/>
        <pt x="215" y="838" on="1"/>
      </contour>
      <contour>
        <pt x="376" y="838" on="1"/>
        <pt x="376" y="900" on="1"/>
        <pt x="411" y="900" on="1"/>
        <pt x="411" y="838" on="1"/>
      </contour>
    </TTGlyph>
    <TTGlyph name="Agrave" xMin="28" yMin="0" xMax="564" yMax="922">
      <contour>
        <pt x="28" y="0" on="1"/>
        <pt x="243" y="700" on="1"/>
        <pt x="349" y="700" on="1"/>
        <pt x="564" y="0" on="1"/>
        <pt x="528" y="0" on="1"/>
        <pt x="463" y="215" on="1"/>
        <pt x="129" y="215" on="1"/>
        <pt x="64" y="0" on="1"/>
      </contour>
      <contour>
        <pt x="268" y="666" on="1"/>
        <pt x="140" y="249" on="1"/>
        <pt x="452" y="249" on="1"/>
        <pt x="324" y="666" on="1"/>
      </contour>
      <contour>
        <pt x="193" y="922" on="1"/>
        <pt x="385" y="826" on="1"/>
        <pt x="370" y="799" on="1"/>
        <pt x="177" y="891" on="1"/>
      </contour>
    </TTGlyph>
    <TTGlyph name="Amacron" xMin="28" yMin="0" xMax="564" yMax="864">
      <contour>
        <pt x="28" y="0" on="1"/>
        <pt x="243" y="700" on="1"/>
        <pt x="349" y="700" on="1"/>
        <pt x="564" y="0" on="1"/>
        <pt x="528" y="0" on="1"/>
        <pt x="463" y="215" on="1"/>
        <pt x="129" y="215" on="1"/>
        <pt x="64" y="0" on="1"/>
      </contour>
      <contour>
        <pt x="268" y="666" on="1"/>
        <pt x="140" y="249" on="1"/>
        <pt x="452" y="249" on="1"/>
        <pt x="324" y="666" on="1"/>
      </contour>
      <contour>
        <pt x="153" y="832" on="1"/>
        <pt x="153" y="864" on="1"/>
        <pt x="440" y="864" on="1"/>
        <pt x="440" y="832" on="1"/>
      </contour>
    </TTGlyph>
    <TTGlyph name="Aogonek" xMin="28" yMin="-200" xMax="589" yMax="700">
      <contour>
        <pt x="551" y="-9" on="0"/>
        <pt x="482" y="-96" on="0"/>
        <pt x="482" y="-137" on="0"/>
        <pt x="508" y="-166" on="0"/>
        <pt x="529" y="-166" on="1"/>
        <pt x="585" y="-159" on="1"/>
        <pt x="589" y="-192" on="1"/>
        <pt x="553" y="-200" on="0"/>
        <pt x="490" y="-200" on="0"/>
        <pt x="445" y="-156" on="0"/>
        <pt x="445" y="-77" on="0"/>
        <pt x="526" y="4" on="1"/>
        <pt x="463" y="215" on="1"/>
        <pt x="129" y="215" on="1"/>
        <pt x="64" y="0" on="1"/>
        <pt x="28" y="0" on="1"/>
        <pt x="243" y="700" on="1"/>
        <pt x="349" y="700" on="1"/>
        <pt x="564" y="0" on="1"/>
        <pt x="562" y="0" on="1"/>
      </contour>
      <contour>
        <pt x="268" y="666" on="1"/>
        <pt x="140" y="249" on="1"/>
        <pt x="452" y="249" on="1"/>
        <pt x="324" y="666" on="1"/>
      </contour>
    </TTGlyph>
    <TTGlyph name="Aring" xMin="28" yMin="0" xMax="564" yMax="851">
      <contour>
        <pt x="338" y="851" on="0"/>
        <pt x="391" y="802" on="0"/>
        <pt x="391" y="709" on="0"/>
        <pt x="354" y="683" on="1"/>
        <pt x="564" y="0" on="1"/>
        <pt x="528" y="0" on="1"/>
        <pt x="463" y="215" on="1"/>
        <pt x="129" y="215" on="1"/>
        <pt x="64" y="0" on="1"/>
        <pt x="28" y="0" on="1"/>
        <pt x="237" y="681" on="1"/>
        <pt x="197" y="705" on="0"/>
        <pt x="197" y="802" on="0"/>
        <pt x="250" y="851" on="0"/>
      </contour>
      <contour>
        <pt x="268" y="666" on="1"/>
        <pt x="140" y="249" on="1"/>
        <pt x="452" y="249" on="1"/>
        <pt x="324" y="666" on="1"/>
      </contour>
      <contour>
        <pt x="230" y="759" on="1"/>
        <pt x="230" y="711" on="0"/>
        <pt x="270" y="700" on="1"/>
        <pt x="317" y="700" on="1"/>
        <pt x="358" y="711" on="0"/>
        <pt x="358" y="759" on="1"/>
        <pt x="358" y="789" on="0"/>
        <pt x="324" y="821" on="0"/>
        <pt x="264" y="821" on="0"/>
        <pt x="230" y="789" on="0"/>
      </contour>
    </TTGlyph>
    <TTGlyph name="Aringacute" xMin="28" yMin="0" xMax="564" yMax="1011">
      <contour>
        <pt x="340" y="854" on="0"/>
        <pt x="393" y="805" on="0"/>
        <pt x="393" y="708" on="0"/>
        <pt x="353" y="684" on="1"/>
        <pt x="564" y="0" on="1"/>
        <pt x="528" y="0" on="1"/>
        <pt x="463" y="215" on="1"/>
        <pt x="129" y="215" on="1"/>
        <pt x="64" y="0" on="1"/>
        <pt x="28" y="0" on="1"/>
        <pt x="238" y="684" on="1"/>
        <pt x="199" y="708" on="0"/>
        <pt x="199" y="805" on="0"/>
        <pt x="252" y="854" on="0"/>
      </contour>
      <contour>
        <pt x="268" y="666" on="1"/>
        <pt x="140" y="249" on="1"/>
        <pt x="452" y="249" on="1"/>
        <pt x="324" y="666" on="1"/>
      </contour>
      <contour>
        <pt x="232" y="792" on="0"/>
        <pt x="232" y="732" on="0"/>
        <pt x="266" y="700" on="0"/>
        <pt x="296" y="700" on="1"/>
        <pt x="302" y="700" on="1"/>
        <pt x="329" y="702" on="0"/>
        <pt x="360" y="734" on="0"/>
        <pt x="360" y="792" on="0"/>
        <pt x="326" y="824" on="0"/>
        <pt x="266" y="824" on="0"/>
      </contour>
      <contour>
        <pt x="190" y="915" on="1"/>
        <pt x="382" y="1011" on="1"/>
        <pt x="398" y="980" on="1"/>
        <pt x="205" y="888" on="1"/>
      </contour>
    </TTGlyph>
    <TTGlyph name="Atilde" xMin="28" yMin="0" xMax="564" yMax="924">
      <contour>
        <pt x="28" y="0" on="1"/>
        <pt x="243" y="700" on="1"/>
        <pt x="349" y="700" on="1"/>
        <pt x="564" y="0" on="1"/>
        <pt x="528" y="0" on="1"/>
        <pt x="463" y="215" on="1"/>
        <pt x="129" y="215" on="1"/>
        <pt x="64" y="0" on="1"/>
      </contour>
      <contour>
        <pt x="268" y="666" on="1"/>
        <pt x="140" y="249" on="1"/>
        <pt x="452" y="249" on="1"/>
        <pt x="324" y="666" on="1"/>
      </contour>
      <contour>
        <pt x="447" y="885" on="1"/>
        <pt x="408" y="833" on="0"/>
        <pt x="354" y="833" on="0"/>
        <pt x="233" y="893" on="0"/>
        <pt x="221" y="893" on="1"/>
        <pt x="199" y="893" on="0"/>
        <pt x="163" y="854" on="1"/>
        <pt x="151" y="841" on="1"/>
        <pt x="141" y="870" on="1"/>
        <pt x="185" y="924" on="0"/>
        <pt x="218" y="924" on="1"/>
        <pt x="241" y="924" on="0"/>
        <pt x="362" y="865" on="0"/>
        <pt x="374" y="865" on="1"/>
        <pt x="392" y="865" on="0"/>
        <pt x="425" y="901" on="1"/>
        <pt x="436" y="913" on="1"/>
      </contour>
    </TTGlyph>
    <TTGlyph name="B" xMin="92" yMin="0" xMax="561" yMax="700">
      <contour>
        <pt x="92" y="700" on="1"/>
        <pt x="332" y="700" on="1"/>
        <pt x="534" y="700" on="0"/>
        <pt x="534" y="527" on="1"/>
        <pt x="534" y="397" on="0"/>
        <pt x="437" y="361" on="1"/>
        <pt x="561" y="327" on="0"/>
        <pt x="561" y="193" on="1"/>
        <pt x="561" y="85" on="0"/>
        <pt x="454" y="0" on="0"/>
        <pt x="351" y="0" on="1"/>
        <pt x="92" y="0" on="1"/>
      </contour>
      <contour>
        <pt x="343" y="341" on="1"/>
        <pt x="128" y="341" on="1"/>
        <pt x="128" y="34" on="1"/>
        <pt x="351" y="34" on="1"/>
        <pt x="434" y="34" on="0"/>
        <pt x="524" y="105" on="0"/>
        <pt x="524" y="193" on="1"/>
        <pt x="524" y="341" on="0"/>
      </contour>
      <contour>
        <pt x="332" y="666" on="1"/>
        <pt x="128" y="666" on="1"/>
        <pt x="128" y="375" on="1"/>
        <pt x="343" y="375" on="1"/>
        <pt x="424" y="375" on="0"/>
        <pt x="497" y="449" on="0"/>
        <pt x="497" y="599" on="0"/>
        <pt x="417" y="666" on="0"/>
      </contour>
    </TTGlyph>
    <TTGlyph name="C" xMin="67" yMin="-9" xMax="501" yMax="709">
      <contour>
        <pt x="501" y="11" on="1"/>
        <pt x="401" y="-9" on="0"/>
        <pt x="240" y="-9" on="0"/>
        <pt x="141" y="38" on="0"/>
        <pt x="87" y="136" on="0"/>
        <pt x="67" y="258" on="0"/>
        <pt x="67" y="418" on="0"/>
        <pt x="78" y="520" on="0"/>
        <pt x="109" y="616" on="0"/>
        <pt x="136" y="645" on="1"/>
        <pt x="196" y="709" on="0"/>
        <pt x="316" y="709" on="1"/>
        <pt x="404" y="709" on="0"/>
        <pt x="501" y="690" on="1"/>
        <pt x="498" y="655" on="1"/>
        <pt x="402" y="675" on="0"/>
        <pt x="261" y="675" on="0"/>
        <pt x="183" y="643" on="0"/>
        <pt x="138" y="592" on="0"/>
        <pt x="113" y="503" on="0"/>
        <pt x="105" y="413" on="0"/>
        <pt x="105" y="281" on="0"/>
        <pt x="113" y="191" on="0"/>
        <pt x="139" y="105" on="0"/>
        <pt x="162" y="80" on="1"/>
        <pt x="213" y="25" on="0"/>
        <pt x="316" y="25" on="1"/>
        <pt x="394" y="25" on="0"/>
        <pt x="498" y="45" on="1"/>
      </contour>
    </TTGlyph>
    <TTGlyph name="Cacute" xMin="67" yMin="-9" xMax="501" yMax="922">
      <contour>
        <pt x="501" y="11" on="1"/>
        <pt x="401" y="-9" on="0"/>
        <pt x="240" y="-9" on="0"/>
        <pt x="141" y="38" on="0"/>
        <pt x="87" y="136" on="0"/>
        <pt x="67" y="258" on="0"/>
        <pt x="67" y="418" on="0"/>
        <pt x="78" y="520" on="0"/>
        <pt x="109" y="616" on="0"/>
        <pt x="136" y="645" on="1"/>
        <pt x="196" y="709" on="0"/>
        <pt x="316" y="709" on="1"/>
        <pt x="404" y="709" on="0"/>
        <pt x="501" y="690" on="1"/>
        <pt x="498" y="655" on="1"/>
        <pt x="402" y="675" on="0"/>
        <pt x="261" y="675" on="0"/>
        <pt x="183" y="643" on="0"/>
        <pt x="138" y="592" on="0"/>
        <pt x="113" y="503" on="0"/>
        <pt x="105" y="413" on="0"/>
        <pt x="105" y="281" on="0"/>
        <pt x="113" y="191" on="0"/>
        <pt x="139" y="105" on="0"/>
        <pt x="162" y="80" on="1"/>
        <pt x="213" y="25" on="0"/>
        <pt x="316" y="25" on="1"/>
        <pt x="394" y="25" on="0"/>
        <pt x="498" y="45" on="1"/>
      </contour>
      <contour>
        <pt x="205" y="826" on="1"/>
        <pt x="397" y="922" on="1"/>
        <pt x="413" y="891" on="1"/>
        <pt x="220" y="799" on="1"/>
      </contour>
    </TTGlyph>
    <TTGlyph name="Ccaron" xMin="67" yMin="-9" xMax="501" yMax="934">
      <contour>
        <pt x="501" y="11" on="1"/>
        <pt x="401" y="-9" on="0"/>
        <pt x="240" y="-9" on="0"/>
        <pt x="141" y="38" on="0"/>
        <pt x="87" y="136" on="0"/>
        <pt x="67" y="258" on="0"/>
        <pt x="67" y="418" on="0"/>
        <pt x="78" y="520" on="0"/>
        <pt x="109" y="616" on="0"/>
        <pt x="136" y="645" on="1"/>
        <pt x="196" y="709" on="0"/>
        <pt x="316" y="709" on="1"/>
        <pt x="404" y="709" on="0"/>
        <pt x="501" y="690" on="1"/>
        <pt x="498" y="655" on="1"/>
        <pt x="402" y="675" on="0"/>
        <pt x="261" y="675" on="0"/>
        <pt x="183" y="643" on="0"/>
        <pt x="138" y="592" on="0"/>
        <pt x="113" y="503" on="0"/>
        <pt x="105" y="413" on="0"/>
        <pt x="105" y="281" on="0"/>
        <pt x="113" y="191" on="0"/>
        <pt x="139" y="105" on="0"/>
        <pt x="162" y="80" on="1"/>
        <pt x="213" y="25" on="0"/>
        <pt x="316" y="25" on="1"/>
        <pt x="394" y="25" on="0"/>
        <pt x="498" y="45" on="1"/>
      </contour>
      <contour>
        <pt x="285" y="809" on="1"/>
        <pt x="151" y="934" on="1"/>
        <pt x="196" y="934" on="1"/>
        <pt x="300" y="838" on="1"/>
        <pt x="403" y="934" on="1"/>
        <pt x="449" y="934" on="1"/>
        <pt x="315" y="809" on="1"/>
      </contour>
    </TTGlyph>
    <TTGlyph name="Ccedilla" xMin="67" yMin="-201" xMax="501" yMax="709">
      <contour>
        <pt x="431" y="-127" on="1"/>
        <pt x="431" y="-201" on="0"/>
        <pt x="349" y="-201" on="1"/>
        <pt x="268" y="-197" on="1"/>
        <pt x="270" y="-169" on="1"/>
        <pt x="314" y="-173" on="0"/>
        <pt x="348" y="-173" on="1"/>
        <pt x="396" y="-173" on="0"/>
        <pt x="396" y="-127" on="1"/>
        <pt x="396" y="-85" on="0"/>
        <pt x="348" y="-85" on="1"/>
        <pt x="294" y="-85" on="1"/>
        <pt x="294" y="-8" on="1"/>
        <pt x="186" y="-2" on="0"/>
        <pt x="133" y="59" on="1"/>
        <pt x="85" y="115" on="0"/>
        <pt x="72" y="228" on="1"/>
        <pt x="67" y="279" on="0"/>
        <pt x="67" y="418" on="0"/>
        <pt x="78" y="520" on="0"/>
        <pt x="109" y="616" on="0"/>
        <pt x="136" y="645" on="1"/>
        <pt x="196" y="709" on="0"/>
        <pt x="316" y="709" on="1"/>
        <pt x="404" y="709" on="0"/>
        <pt x="501" y="690" on="1"/>
        <pt x="498" y="655" on="1"/>
        <pt x="402" y="675" on="0"/>
        <pt x="261" y="675" on="0"/>
        <pt x="183" y="643" on="0"/>
        <pt x="138" y="592" on="0"/>
        <pt x="113" y="503" on="0"/>
        <pt x="105" y="413" on="0"/>
        <pt x="105" y="281" on="0"/>
        <pt x="113" y="191" on="0"/>
        <pt x="139" y="105" on="0"/>
        <pt x="162" y="80" on="1"/>
        <pt x="213" y="25" on="0"/>
        <pt x="316" y="25" on="1"/>
        <pt x="394" y="25" on="0"/>
        <pt x="498" y="45" on="1"/>
        <pt x="501" y="11" on="1"/>
        <pt x="411" y="-8" on="0"/>
        <pt x="327" y="-9" on="1"/>
        <pt x="327" y="-57" on="1"/>
        <pt x="383" y="-57" on="0"/>
        <pt x="431" y="-87" on="0"/>
      </contour>
    </TTGlyph>
    <TTGlyph name="Ccircumflex" xMin="67" yMin="-9" xMax="501" yMax="934">
      <contour>
        <pt x="501" y="11" on="1"/>
        <pt x="401" y="-9" on="0"/>
        <pt x="240" y="-9" on="0"/>
        <pt x="141" y="38" on="0"/>
        <pt x="87" y="136" on="0"/>
        <pt x="67" y="258" on="0"/>
        <pt x="67" y="418" on="0"/>
        <pt x="78" y="520" on="0"/>
        <pt x="109" y="616" on="0"/>
        <pt x="136" y="645" on="1"/>
        <pt x="196" y="709" on="0"/>
        <pt x="316" y="709" on="1"/>
        <pt x="404" y="709" on="0"/>
        <pt x="501" y="690" on="1"/>
        <pt x="498" y="655" on="1"/>
        <pt x="402" y="675" on="0"/>
        <pt x="261" y="675" on="0"/>
        <pt x="183" y="643" on="0"/>
        <pt x="138" y="592" on="0"/>
        <pt x="113" y="503" on="0"/>
        <pt x="105" y="413" on="0"/>
        <pt x="105" y="281" on="0"/>
        <pt x="113" y="191" on="0"/>
        <pt x="139" y="105" on="0"/>
        <pt x="162" y="80" on="1"/>
        <pt x="213" y="25" on="0"/>
        <pt x="316" y="25" on="1"/>
        <pt x="394" y="25" on="0"/>
        <pt x="498" y="45" on="1"/>
      </contour>
      <contour>
        <pt x="169" y="809" on="1"/>
        <pt x="303" y="934" on="1"/>
        <pt x="333" y="934" on="1"/>
        <pt x="467" y="809" on="1"/>
        <pt x="422" y="809" on="1"/>
        <pt x="318" y="905" on="1"/>
        <pt x="215" y="809" on="1"/>
      </contour>
    </TTGlyph>
    <TTGlyph name="Cdotaccent" xMin="67" yMin="-9" xMax="501" yMax="878">
      <contour>
        <pt x="501" y="11" on="1"/>
        <pt x="401" y="-9" on="0"/>
        <pt x="240" y="-9" on="0"/>
        <pt x="141" y="38" on="0"/>
        <pt x="87" y="136" on="0"/>
        <pt x="67" y="258" on="0"/>
        <pt x="67" y="418" on="0"/>
        <pt x="78" y="520" on="0"/>
        <pt x="109" y="616" on="0"/>
        <pt x="136" y="645" on="1"/>
        <pt x="196" y="709" on="0"/>
        <pt x="316" y="709" on="1"/>
        <pt x="404" y="709" on="0"/>
        <pt x="501" y="690" on="1"/>
        <pt x="498" y="655" on="1"/>
        <pt x="402" y="675" on="0"/>
        <pt x="261" y="675" on="0"/>
        <pt x="183" y="643" on="0"/>
        <pt x="138" y="592" on="0"/>
        <pt x="113" y="503" on="0"/>
        <pt x="105" y="413" on="0"/>
        <pt x="105" y="281" on="0"/>
        <pt x="113" y="191" on="0"/>
        <pt x="139" y="105" on="0"/>
        <pt x="162" y="80" on="1"/>
        <pt x="213" y="25" on="0"/>
        <pt x="316" y="25" on="1"/>
        <pt x="394" y="25" on="0"/>
        <pt x="498" y="45" on="1"/>
      </contour>
      <contour>
        <pt x="279" y="823" on="1"/>
        <pt x="279" y="878" on="1"/>
        <pt x="314" y="878" on="1"/>
        <pt x="314" y="823" on="1"/>
      </contour>
    </TTGlyph>
    <TTGlyph name="D" xMin="92" yMin="0" xMax="586" yMax="700">
      <contour>
        <pt x="352" y="0" on="1"/>
        <pt x="92" y="0" on="1"/>
        <pt x="92" y="700" on="1"/>
        <pt x="352" y="700" on="1"/>
        <pt x="416" y="700" on="0"/>
        <pt x="509" y="644" on="0"/>
        <pt x="562" y="545" on="0"/>
        <pt x="586" y="428" on="0"/>
        <pt x="586" y="288" on="0"/>
        <pt x="561" y="166" on="0"/>
        <pt x="509" y="61" on="0"/>
        <pt x="415" y="0" on="0"/>
      </contour>
      <contour>
        <pt x="528" y="189" on="0"/>
        <pt x="548" y="298" on="0"/>
        <pt x="548" y="440" on="0"/>
        <pt x="515" y="571" on="0"/>
        <pt x="423" y="666" on="0"/>
        <pt x="352" y="666" on="1"/>
        <pt x="128" y="666" on="1"/>
        <pt x="128" y="34" on="1"/>
        <pt x="352" y="34" on="1"/>
        <pt x="406" y="34" on="0"/>
        <pt x="485" y="92" on="0"/>
      </contour>
    </TTGlyph>
    <TTGlyph name="Dcaron" xMin="92" yMin="0" xMax="586" yMax="934">
      <contour>
        <pt x="352" y="0" on="1"/>
        <pt x="92" y="0" on="1"/>
        <pt x="92" y="700" on="1"/>
        <pt x="352" y="700" on="1"/>
        <pt x="416" y="700" on="0"/>
        <pt x="509" y="644" on="0"/>
        <pt x="562" y="545" on="0"/>
        <pt x="586" y="428" on="0"/>
        <pt x="586" y="288" on="0"/>
        <pt x="561" y="166" on="0"/>
        <pt x="509" y="61" on="0"/>
        <pt x="415" y="0" on="0"/>
      </contour>
      <contour>
        <pt x="528" y="189" on="0"/>
        <pt x="548" y="298" on="0"/>
        <pt x="548" y="440" on="0"/>
        <pt x="515" y="571" on="0"/>
        <pt x="423" y="666" on="0"/>
        <pt x="352" y="666" on="1"/>
        <pt x="128" y="666" on="1"/>
        <pt x="128" y="34" on="1"/>
        <pt x="352" y="34" on="1"/>
        <pt x="406" y="34" on="0"/>
        <pt x="485" y="92" on="0"/>
      </contour>
      <contour>
        <pt x="273" y="809" on="1"/>
        <pt x="139" y="934" on="1"/>
        <pt x="184" y="934" on="1"/>
        <pt x="288" y="838" on="1"/>
        <pt x="391" y="934" on="1"/>
        <pt x="437" y="934" on="1"/>
        <pt x="303" y="809" on="1"/>
      </contour>
    </TTGlyph>
    <TTGlyph name="Dcroat" xMin="17" yMin="0" xMax="588" yMax="700">
      <contour>
        <pt x="17" y="334" on="1"/>
        <pt x="17" y="368" on="1"/>
        <pt x="94" y="368" on="1"/>
        <pt x="94" y="700" on="1"/>
        <pt x="354" y="700" on="1"/>
        <pt x="418" y="700" on="0"/>
        <pt x="511" y="644" on="0"/>
        <pt x="538" y="595" on="1"/>
        <pt x="588" y="502" on="0"/>
        <pt x="588" y="360" on="1"/>
        <pt x="588" y="219" on="0"/>
        <pt x="537" y="115" on="1"/>
        <pt x="511" y="62" on="0"/>
        <pt x="417" y="0" on="0"/>
        <pt x="354" y="0" on="1"/>
        <pt x="94" y="0" on="1"/>
        <pt x="94" y="334" on="1"/>
      </contour>
      <contour>
        <pt x="550" y="300" on="0"/>
        <pt x="550" y="420" on="0"/>
        <pt x="530" y="523" on="0"/>
        <pt x="487" y="614" on="0"/>
        <pt x="408" y="666" on="0"/>
        <pt x="354" y="666" on="1"/>
        <pt x="130" y="666" on="1"/>
        <pt x="130" y="368" on="1"/>
        <pt x="307" y="368" on="1"/>
        <pt x="307" y="334" on="1"/>
        <pt x="130" y="334" on="1"/>
        <pt x="130" y="34" on="1"/>
        <pt x="354" y="34" on="1"/>
        <pt x="408" y="34" on="0"/>
        <pt x="487" y="92" on="0"/>
        <pt x="530" y="191" on="0"/>
      </contour>
    </TTGlyph>
    <TTGlyph name="Delta" xMin="59" yMin="0" xMax="500" yMax="660">
      <contour>
        <pt x="59" y="0" on="1"/>
        <pt x="59" y="26" on="1"/>
        <pt x="241" y="660" on="1"/>
        <pt x="317" y="660" on="1"/>
        <pt x="499" y="26" on="1"/>
        <pt x="500" y="0" on="1"/>
      </contour>
      <contour>
        <pt x="291" y="626" on="1"/>
        <pt x="266" y="626" on="1"/>
        <pt x="99" y="34" on="1"/>
        <pt x="458" y="34" on="1"/>
      </contour>
    </TTGlyph>
    <TTGlyph name="E" xMin="92" yMin="0" xMax="501" yMax="700">
      <contour>
        <pt x="92" y="0" on="1"/>
        <pt x="92" y="700" on="1"/>
        <pt x="501" y="700" on="1"/>
        <pt x="501" y="666" on="1"/>
        <pt x="128" y="666" on="1"/>
        <pt x="128" y="375" on="1"/>
        <pt x="441" y="375" on="1"/>
        <pt x="441" y="341" on="1"/>
        <pt x="128" y="341" on="1"/>
        <pt x="128" y="34" on="1"/>
        <pt x="501" y="34" on="1"/>
        <pt x="501" y="0" on="1"/>
      </contour>
    </TTGlyph>
    <TTGlyph name="Eacute" xMin="92" yMin="0" xMax="501" yMax="922">
      <contour>
        <pt x="92" y="0" on="1"/>
        <pt x="92" y="700" on="1"/>
        <pt x="501" y="700" on="1"/>
        <pt x="501" y="666" on="1"/>
        <pt x="128" y="666" on="1"/>
        <pt x="128" y="375" on="1"/>
        <pt x="441" y="375" on="1"/>
        <pt x="441" y="341" on="1"/>
        <pt x="128" y="341" on="1"/>
        <pt x="128" y="34" on="1"/>
        <pt x="501" y="34" on="1"/>
        <pt x="501" y="0" on="1"/>
      </contour>
      <contour>
        <pt x="192" y="826" on="1"/>
        <pt x="384" y="922" on="1"/>
        <pt x="400" y="891" on="1"/>
        <pt x="207" y="799" on="1"/>
      </contour>
    </TTGlyph>
    <TTGlyph name="Ebreve" xMin="92" yMin="0" xMax="501" yMax="924">
      <contour>
        <pt x="92" y="0" on="1"/>
        <pt x="92" y="700" on="1"/>
        <pt x="501" y="700" on="1"/>
        <pt x="501" y="666" on="1"/>
        <pt x="128" y="666" on="1"/>
        <pt x="128" y="375" on="1"/>
        <pt x="441" y="375" on="1"/>
        <pt x="441" y="341" on="1"/>
        <pt x="128" y="341" on="1"/>
        <pt x="128" y="34" on="1"/>
        <pt x="501" y="34" on="1"/>
        <pt x="501" y="0" on="1"/>
      </contour>
      <contour>
        <pt x="169" y="924" on="1"/>
        <pt x="204" y="924" on="1"/>
        <pt x="204" y="884" on="0"/>
        <pt x="264" y="837" on="0"/>
        <pt x="350" y="837" on="0"/>
        <pt x="410" y="884" on="0"/>
        <pt x="410" y="924" on="1"/>
        <pt x="445" y="924" on="1"/>
        <pt x="445" y="870" on="0"/>
        <pt x="365" y="805" on="0"/>
        <pt x="249" y="805" on="0"/>
        <pt x="169" y="870" on="0"/>
      </contour>
    </TTGlyph>
    <TTGlyph name="Ecaron" xMin="92" yMin="0" xMax="501" yMax="934">
      <contour>
        <pt x="92" y="0" on="1"/>
        <pt x="92" y="700" on="1"/>
        <pt x="501" y="700" on="1"/>
        <pt x="501" y="666" on="1"/>
        <pt x="128" y="666" on="1"/>
        <pt x="128" y="375" on="1"/>
        <pt x="441" y="375" on="1"/>
        <pt x="441" y="341" on="1"/>
        <pt x="128" y="341" on="1"/>
        <pt x="128" y="34" on="1"/>
        <pt x="501" y="34" on="1"/>
        <pt x="501" y="0" on="1"/>
      </contour>
      <contour>
        <pt x="283" y="809" on="1"/>
        <pt x="149" y="934" on="1"/>
        <pt x="194" y="934" on="1"/>
        <pt x="298" y="838" on="1"/>
        <pt x="401" y="934" on="1"/>
        <pt x="447" y="934" on="1"/>
        <pt x="313" y="809" on="1"/>
      </contour>
    </TTGlyph>
    <TTGlyph name="Ecircumflex" xMin="92" yMin="0" xMax="501" yMax="934">
      <contour>
        <pt x="92" y="0" on="1"/>
        <pt x="92" y="700" on="1"/>
        <pt x="501" y="700" on="1"/>
        <pt x="501" y="666" on="1"/>
        <pt x="128" y="666" on="1"/>
        <pt x="128" y="375" on="1"/>
        <pt x="441" y="375" on="1"/>
        <pt x="441" y="341" on="1"/>
        <pt x="128" y="341" on="1"/>
        <pt x="128" y="34" on="1"/>
        <pt x="501" y="34" on="1"/>
        <pt x="501" y="0" on="1"/>
      </contour>
      <contour>
        <pt x="142" y="809" on="1"/>
        <pt x="276" y="934" on="1"/>
        <pt x="306" y="934" on="1"/>
        <pt x="440" y="809" on="1"/>
        <pt x="395" y="809" on="1"/>
        <pt x="291" y="905" on="1"/>
        <pt x="188" y="809" on="1"/>
      </contour>
    </TTGlyph>
    <TTGlyph name="Edieresis" xMin="92" yMin="0" xMax="501" yMax="900">
      <contour>
        <pt x="92" y="0" on="1"/>
        <pt x="92" y="700" on="1"/>
        <pt x="501" y="700" on="1"/>
        <pt x="501" y="666" on="1"/>
        <pt x="128" y="666" on="1"/>
        <pt x="128" y="375" on="1"/>
        <pt x="441" y="375" on="1"/>
        <pt x="441" y="341" on="1"/>
        <pt x="128" y="341" on="1"/>
        <pt x="128" y="34" on="1"/>
        <pt x="501" y="34" on="1"/>
        <pt x="501" y="0" on="1"/>
      </contour>
      <contour>
        <pt x="180" y="838" on="1"/>
        <pt x="180" y="900" on="1"/>
        <pt x="215" y="900" on="1"/>
        <pt x="215" y="838" on="1"/>
      </contour>
      <contour>
        <pt x="376" y="838" on="1"/>
        <pt x="376" y="900" on="1"/>
        <pt x="411" y="900" on="1"/>
        <pt x="411" y="838" on="1"/>
      </contour>
    </TTGlyph>
    <TTGlyph name="Edotaccent" xMin="92" yMin="0" xMax="501" yMax="878">
      <contour>
        <pt x="92" y="0" on="1"/>
        <pt x="92" y="700" on="1"/>
        <pt x="501" y="700" on="1"/>
        <pt x="501" y="666" on="1"/>
        <pt x="128" y="666" on="1"/>
        <pt x="128" y="375" on="1"/>
        <pt x="441" y="375" on="1"/>
        <pt x="441" y="341" on="1"/>
        <pt x="128" y="341" on="1"/>
        <pt x="128" y="34" on="1"/>
        <pt x="501" y="34" on="1"/>
        <pt x="501" y="0" on="1"/>
      </contour>
      <contour>
        <pt x="277" y="823" on="1"/>
        <pt x="277" y="878" on="1"/>
        <pt x="312" y="878" on="1"/>
        <pt x="312" y="823" on="1"/>
      </contour>
    </TTGlyph>
    <TTGlyph name="Egrave" xMin="92" yMin="0" xMax="501" yMax="922">
      <contour>
        <pt x="92" y="0" on="1"/>
        <pt x="92" y="700" on="1"/>
        <pt x="501" y="700" on="1"/>
        <pt x="501" y="666" on="1"/>
        <pt x="128" y="666" on="1"/>
        <pt x="128" y="375" on="1"/>
        <pt x="441" y="375" on="1"/>
        <pt x="441" y="341" on="1"/>
        <pt x="128" y="341" on="1"/>
        <pt x="128" y="34" on="1"/>
        <pt x="501" y="34" on="1"/>
        <pt x="501" y="0" on="1"/>
      </contour>
      <contour>
        <pt x="205" y="922" on="1"/>
        <pt x="397" y="826" on="1"/>
        <pt x="382" y="799" on="1"/>
        <pt x="189" y="891" on="1"/>
      </contour>
    </TTGlyph>
    <TTGlyph name="Emacron" xMin="92" yMin="0" xMax="501" yMax="864">
      <contour>
        <pt x="92" y="0" on="1"/>
        <pt x="92" y="700" on="1"/>
        <pt x="501" y="700" on="1"/>
        <pt x="501" y="666" on="1"/>
        <pt x="128" y="666" on="1"/>
        <pt x="128" y="375" on="1"/>
        <pt x="441" y="375" on="1"/>
        <pt x="441" y="341" on="1"/>
        <pt x="128" y="341" on="1"/>
        <pt x="128" y="34" on="1"/>
        <pt x="501" y="34" on="1"/>
        <pt x="501" y="0" on="1"/>
      </contour>
      <contour>
        <pt x="152" y="832" on="1"/>
        <pt x="152" y="864" on="1"/>
        <pt x="439" y="864" on="1"/>
        <pt x="439" y="832" on="1"/>
      </contour>
    </TTGlyph>
    <TTGlyph name="Eng" xMin="92" yMin="-173" xMax="573" yMax="700">
      <contour>
        <pt x="92" y="0" on="1"/>
        <pt x="92" y="700" on="1"/>
        <pt x="177" y="700" on="1"/>
        <pt x="510" y="34" on="1"/>
        <pt x="537" y="34" on="1"/>
        <pt x="537" y="700" on="1"/>
        <pt x="573" y="700" on="1"/>
        <pt x="573" y="-19" on="1"/>
        <pt x="573" y="-97" on="0"/>
        <pt x="554" y="-126" on="1"/>
        <pt x="543" y="-143" on="0"/>
        <pt x="521" y="-162" on="0"/>
        <pt x="498" y="-166" on="1"/>
        <pt x="464" y="-173" on="0"/>
        <pt x="400" y="-173" on="1"/>
        <pt x="400" y="-139" on="1"/>
        <pt x="497" y="-139" on="0"/>
        <pt x="513" y="-122" on="1"/>
        <pt x="533" y="-100" on="0"/>
        <pt x="537" y="-39" on="0"/>
        <pt x="537" y="-4" on="1"/>
        <pt x="537" y="0" on="1"/>
        <pt x="488" y="0" on="1"/>
        <pt x="154" y="666" on="1"/>
        <pt x="128" y="666" on="1"/>
        <pt x="128" y="0" on="1"/>
      </contour>
    </TTGlyph>
    <TTGlyph name="Eogonek" xMin="92" yMin="-200" xMax="501" yMax="700">
      <contour>
        <pt x="92" y="0" on="1"/>
        <pt x="92" y="700" on="1"/>
        <pt x="501" y="700" on="1"/>
        <pt x="501" y="666" on="1"/>
        <pt x="128" y="666" on="1"/>
        <pt x="128" y="375" on="1"/>
        <pt x="441" y="375" on="1"/>
        <pt x="441" y="341" on="1"/>
        <pt x="128" y="341" on="1"/>
        <pt x="128" y="34" on="1"/>
        <pt x="501" y="34" on="1"/>
        <pt x="501" y="0" on="1"/>
        <pt x="471" y="0" on="1"/>
        <pt x="460" y="-9" on="0"/>
        <pt x="391" y="-96" on="0"/>
        <pt x="391" y="-137" on="0"/>
        <pt x="417" y="-166" on="0"/>
        <pt x="438" y="-166" on="1"/>
        <pt x="494" y="-159" on="1"/>
        <pt x="498" y="-192" on="1"/>
        <pt x="462" y="-200" on="0"/>
        <pt x="399" y="-200" on="0"/>
        <pt x="354" y="-156" on="0"/>
        <pt x="354" y="-77" on="0"/>
        <pt x="431" y="0" on="1"/>
      </contour>
    </TTGlyph>
    <TTGlyph name="Eth" xMin="17" yMin="0" xMax="588" yMax="700">
      <contour>
        <pt x="17" y="334" on="1"/>
        <pt x="17" y="368" on="1"/>
        <pt x="94" y="368" on="1"/>
        <pt x="94" y="700" on="1"/>
        <pt x="354" y="700" on="1"/>
        <pt x="418" y="700" on="0"/>
        <pt x="511" y="644" on="0"/>
        <pt x="538" y="595" on="1"/>
        <pt x="588" y="502" on="0"/>
        <pt x="588" y="360" on="1"/>
        <pt x="588" y="219" on="0"/>
        <pt x="537" y="115" on="1"/>
        <pt x="511" y="62" on="0"/>
        <pt x="417" y="0" on="0"/>
        <pt x="354" y="0" on="1"/>
        <pt x="94" y="0" on="1"/>
        <pt x="94" y="334" on="1"/>
      </contour>
      <contour>
        <pt x="550" y="300" on="0"/>
        <pt x="550" y="420" on="0"/>
        <pt x="530" y="523" on="0"/>
        <pt x="487" y="614" on="0"/>
        <pt x="408" y="666" on="0"/>
        <pt x="354" y="666" on="1"/>
        <pt x="130" y="666" on="1"/>
        <pt x="130" y="368" on="1"/>
        <pt x="307" y="368" on="1"/>
        <pt x="307" y="334" on="1"/>
        <pt x="130" y="334" on="1"/>
        <pt x="130" y="34" on="1"/>
        <pt x="354" y="34" on="1"/>
        <pt x="408" y="34" on="0"/>
        <pt x="487" y="92" on="0"/>
        <pt x="530" y="191" on="0"/>
      </contour>
    </TTGlyph>
    <TTGlyph name="Euro" xMin="32" yMin="-8" xMax="505" yMax="669">
      <contour>
        <pt x="32" y="393" on="1"/>
        <pt x="32" y="427" on="1"/>
        <pt x="98" y="427" on="1"/>
        <pt x="109" y="547" on="0"/>
        <pt x="212" y="669" on="0"/>
        <pt x="330" y="669" on="1"/>
        <pt x="419" y="669" on="0"/>
        <pt x="505" y="651" on="1"/>
        <pt x="502" y="618" on="1"/>
        <pt x="418" y="637" on="0"/>
        <pt x="228" y="637" on="0"/>
        <pt x="142" y="532" on="0"/>
        <pt x="134" y="427" on="1"/>
        <pt x="454" y="427" on="1"/>
        <pt x="454" y="393" on="1"/>
        <pt x="132" y="393" on="1"/>
        <pt x="131" y="372" on="0"/>
        <pt x="131" y="294" on="0"/>
        <pt x="132" y="279" on="1"/>
        <pt x="454" y="279" on="1"/>
        <pt x="454" y="245" on="1"/>
        <pt x="133" y="245" on="1"/>
        <pt x="141" y="133" on="0"/>
        <pt x="226" y="24" on="0"/>
        <pt x="330" y="24" on="1"/>
        <pt x="404" y="24" on="0"/>
        <pt x="502" y="42" on="1"/>
        <pt x="505" y="10" on="1"/>
        <pt x="411" y="-8" on="0"/>
        <pt x="330" y="-8" on="1"/>
        <pt x="211" y="-8" on="0"/>
        <pt x="107" y="117" on="0"/>
        <pt x="97" y="245" on="1"/>
        <pt x="32" y="245" on="1"/>
        <pt x="32" y="279" on="1"/>
        <pt x="95" y="279" on="1"/>
        <pt x="95" y="328" on="1"/>
        <pt x="95" y="372" on="0"/>
        <pt x="96" y="393" on="1"/>
      </contour>
    </TTGlyph>
    <TTGlyph name="F" xMin="92" yMin="0" xMax="493" yMax="700">
      <contour>
        <pt x="92" y="0" on="1"/>
        <pt x="92" y="700" on="1"/>
        <pt x="493" y="700" on="1"/>
        <pt x="493" y="666" on="1"/>
        <pt x="128" y="666" on="1"/>
        <pt x="128" y="350" on="1"/>
        <pt x="442" y="350" on="1"/>
        <pt x="442" y="316" on="1"/>
        <pt x="128" y="316" on="1"/>
        <pt x="128" y="0" on="1"/>
      </contour>
    </TTGlyph>
    <TTGlyph name="G" xMin="65" yMin="-9" xMax="547" yMax="709">
      <contour>
        <pt x="361" y="313" on="1"/>
        <pt x="361" y="347" on="1"/>
        <pt x="547" y="347" on="1"/>
        <pt x="547" y="16" on="1"/>
        <pt x="418" y="-9" on="0"/>
        <pt x="327" y="-9" on="1"/>
        <pt x="180" y="-9" on="0"/>
        <pt x="65" y="169" on="0"/>
        <pt x="65" y="347" on="1"/>
        <pt x="65" y="434" on="0"/>
        <pt x="88" y="559" on="0"/>
        <pt x="116" y="609" on="1"/>
        <pt x="172" y="709" on="0"/>
        <pt x="327" y="709" on="1"/>
        <pt x="416" y="709" on="0"/>
        <pt x="516" y="690" on="1"/>
        <pt x="547" y="684" on="1"/>
        <pt x="544" y="649" on="1"/>
        <pt x="418" y="675" on="0"/>
        <pt x="258" y="675" on="0"/>
        <pt x="168" y="631" on="0"/>
        <pt x="121" y="539" on="0"/>
        <pt x="103" y="428" on="0"/>
        <pt x="103" y="267" on="0"/>
        <pt x="122" y="156" on="0"/>
        <pt x="146" y="112" on="1"/>
        <pt x="193" y="25" on="0"/>
        <pt x="327" y="25" on="1"/>
        <pt x="401" y="25" on="0"/>
        <pt x="511" y="45" on="1"/>
        <pt x="511" y="313" on="1"/>
      </contour>
    </TTGlyph>
    <TTGlyph name="Gbreve" xMin="65" yMin="-9" xMax="547" yMax="924">
      <contour>
        <pt x="361" y="313" on="1"/>
        <pt x="361" y="347" on="1"/>
        <pt x="547" y="347" on="1"/>
        <pt x="547" y="16" on="1"/>
        <pt x="418" y="-9" on="0"/>
        <pt x="327" y="-9" on="1"/>
        <pt x="180" y="-9" on="0"/>
        <pt x="65" y="169" on="0"/>
        <pt x="65" y="347" on="1"/>
        <pt x="65" y="434" on="0"/>
        <pt x="88" y="559" on="0"/>
        <pt x="116" y="609" on="1"/>
        <pt x="172" y="709" on="0"/>
        <pt x="327" y="709" on="1"/>
        <pt x="416" y="709" on="0"/>
        <pt x="516" y="690" on="1"/>
        <pt x="547" y="684" on="1"/>
        <pt x="544" y="649" on="1"/>
        <pt x="418" y="675" on="0"/>
        <pt x="258" y="675" on="0"/>
        <pt x="168" y="631" on="0"/>
        <pt x="121" y="539" on="0"/>
        <pt x="103" y="428" on="0"/>
        <pt x="103" y="267" on="0"/>
        <pt x="122" y="156" on="0"/>
        <pt x="146" y="112" on="1"/>
        <pt x="193" y="25" on="0"/>
        <pt x="327" y="25" on="1"/>
        <pt x="401" y="25" on="0"/>
        <pt x="511" y="45" on="1"/>
        <pt x="511" y="313" on="1"/>
      </contour>
      <contour>
        <pt x="195" y="924" on="1"/>
        <pt x="230" y="924" on="1"/>
        <pt x="230" y="884" on="0"/>
        <pt x="290" y="837" on="0"/>
        <pt x="376" y="837" on="0"/>
        <pt x="436" y="884" on="0"/>
        <pt x="436" y="924" on="1"/>
        <pt x="471" y="924" on="1"/>
        <pt x="471" y="870" on="0"/>
        <pt x="391" y="805" on="0"/>
        <pt x="275" y="805" on="0"/>
        <pt x="195" y="870" on="0"/>
      </contour>
    </TTGlyph>
    <TTGlyph name="Gcircumflex" xMin="65" yMin="-5" xMax="547" yMax="929">
      <contour>
        <pt x="361" y="317" on="1"/>
        <pt x="361" y="351" on="1"/>
        <pt x="547" y="351" on="1"/>
        <pt x="547" y="20" on="1"/>
        <pt x="418" y="-5" on="0"/>
        <pt x="327" y="-5" on="1"/>
        <pt x="180" y="-5" on="0"/>
        <pt x="65" y="173" on="0"/>
        <pt x="65" y="351" on="1"/>
        <pt x="65" y="438" on="0"/>
        <pt x="88" y="563" on="0"/>
        <pt x="116" y="613" on="1"/>
        <pt x="172" y="713" on="0"/>
        <pt x="327" y="713" on="1"/>
        <pt x="416" y="713" on="0"/>
        <pt x="516" y="694" on="1"/>
        <pt x="547" y="688" on="1"/>
        <pt x="544" y="653" on="1"/>
        <pt x="418" y="679" on="0"/>
        <pt x="258" y="679" on="0"/>
        <pt x="168" y="635" on="0"/>
        <pt x="121" y="543" on="0"/>
        <pt x="103" y="432" on="0"/>
        <pt x="103" y="271" on="0"/>
        <pt x="122" y="160" on="0"/>
        <pt x="146" y="116" on="1"/>
        <pt x="193" y="29" on="0"/>
        <pt x="327" y="29" on="1"/>
        <pt x="401" y="29" on="0"/>
        <pt x="511" y="49" on="1"/>
        <pt x="511" y="317" on="1"/>
      </contour>
      <contour>
        <pt x="169" y="804" on="1"/>
        <pt x="303" y="929" on="1"/>
        <pt x="333" y="929" on="1"/>
        <pt x="467" y="804" on="1"/>
        <pt x="422" y="804" on="1"/>
        <pt x="318" y="900" on="1"/>
        <pt x="215" y="804" on="1"/>
      </contour>
    </TTGlyph>
    <TTGlyph name="Gcommaaccent" xMin="65" yMin="-267" xMax="547" yMax="709">
      <contour>
        <pt x="361" y="313" on="1"/>
        <pt x="361" y="347" on="1"/>
        <pt x="547" y="347" on="1"/>
        <pt x="547" y="16" on="1"/>
        <pt x="418" y="-9" on="0"/>
        <pt x="327" y="-9" on="1"/>
        <pt x="180" y="-9" on="0"/>
        <pt x="65" y="169" on="0"/>
        <pt x="65" y="347" on="1"/>
        <pt x="65" y="434" on="0"/>
        <pt x="88" y="559" on="0"/>
        <pt x="116" y="609" on="1"/>
        <pt x="172" y="709" on="0"/>
        <pt x="327" y="709" on="1"/>
        <pt x="416" y="709" on="0"/>
        <pt x="516" y="690" on="1"/>
        <pt x="547" y="684" on="1"/>
        <pt x="544" y="649" on="1"/>
        <pt x="418" y="675" on="0"/>
        <pt x="258" y="675" on="0"/>
        <pt x="168" y="631" on="0"/>
        <pt x="121" y="539" on="0"/>
        <pt x="103" y="428" on="0"/>
        <pt x="103" y="267" on="0"/>
        <pt x="122" y="156" on="0"/>
        <pt x="146" y="112" on="1"/>
        <pt x="193" y="25" on="0"/>
        <pt x="327" y="25" on="1"/>
        <pt x="401" y="25" on="0"/>
        <pt x="511" y="45" on="1"/>
        <pt x="511" y="313" on="1"/>
      </contour>
      <contour>
        <pt x="324" y="-78" on="1"/>
        <pt x="361" y="-78" on="1"/>
        <pt x="315" y="-267" on="1"/>
        <pt x="287" y="-267" on="1"/>
      </contour>
    </TTGlyph>
    <TTGlyph name="Gdotaccent" xMin="65" yMin="-9" xMax="547" yMax="878">
      <contour>
        <pt x="361" y="313" on="1"/>
        <pt x="361" y="347" on="1"/>
        <pt x="547" y="347" on="1"/>
        <pt x="547" y="16" on="1"/>
        <pt x="418" y="-9" on="0"/>
        <pt x="327" y="-9" on="1"/>
        <pt x="180" y="-9" on="0"/>
        <pt x="65" y="169" on="0"/>
        <pt x="65" y="347" on="1"/>
        <pt x="65" y="434" on="0"/>
        <pt x="88" y="559" on="0"/>
        <pt x="116" y="609" on="1"/>
        <pt x="172" y="709" on="0"/>
        <pt x="327" y="709" on="1"/>
        <pt x="416" y="709" on="0"/>
        <pt x="516" y="690" on="1"/>
        <pt x="547" y="684" on="1"/>
        <pt x="544" y="649" on="1"/>
        <pt x="418" y="675" on="0"/>
        <pt x="258" y="675" on="0"/>
        <pt x="168" y="631" on="0"/>
        <pt x="121" y="539" on="0"/>
        <pt x="103" y="428" on="0"/>
        <pt x="103" y="267" on="0"/>
        <pt x="122" y="156" on="0"/>
        <pt x="146" y="112" on="1"/>
        <pt x="193" y="25" on="0"/>
        <pt x="327" y="25" on="1"/>
        <pt x="401" y="25" on="0"/>
        <pt x="511" y="45" on="1"/>
        <pt x="511" y="313" on="1"/>
      </contour>
      <contour>
        <pt x="296" y="823" on="1"/>
        <pt x="296" y="878" on="1"/>
        <pt x="331" y="878" on="1"/>
        <pt x="331" y="823" on="1"/>
      </contour>
    </TTGlyph>
    <TTGlyph name="H" xMin="92" yMin="0" xMax="582" yMax="700">
      <contour>
        <pt x="546" y="0" on="1"/>
        <pt x="546" y="334" on="1"/>
        <pt x="128" y="334" on="1"/>
        <pt x="128" y="0" on="1"/>
        <pt x="92" y="0" on="1"/>
        <pt x="92" y="700" on="1"/>
        <pt x="128" y="700" on="1"/>
        <pt x="128" y="368" on="1"/>
        <pt x="546" y="368" on="1"/>
        <pt x="546" y="700" on="1"/>
        <pt x="582" y="700" on="1"/>
        <pt x="582" y="0" on="1"/>
      </contour>
    </TTGlyph>
    <TTGlyph name="Hbar" xMin="12" yMin="0" xMax="679" yMax="700">
      <contour>
        <pt x="12" y="522" on="1"/>
        <pt x="12" y="554" on="1"/>
        <pt x="96" y="554" on="1"/>
        <pt x="96" y="700" on="1"/>
        <pt x="132" y="700" on="1"/>
        <pt x="132" y="554" on="1"/>
        <pt x="550" y="554" on="1"/>
        <pt x="550" y="700" on="1"/>
        <pt x="586" y="700" on="1"/>
        <pt x="586" y="554" on="1"/>
        <pt x="679" y="554" on="1"/>
        <pt x="679" y="522" on="1"/>
        <pt x="586" y="522" on="1"/>
        <pt x="586" y="0" on="1"/>
        <pt x="550" y="0" on="1"/>
        <pt x="550" y="334" on="1"/>
        <pt x="132" y="334" on="1"/>
        <pt x="132" y="0" on="1"/>
        <pt x="96" y="0" on="1"/>
        <pt x="96" y="522" on="1"/>
      </contour>
      <contour>
        <pt x="132" y="368" on="1"/>
        <pt x="550" y="368" on="1"/>
        <pt x="550" y="522" on="1"/>
        <pt x="132" y="522" on="1"/>
      </contour>
    </TTGlyph>
    <TTGlyph name="Hcircumflex" xMin="92" yMin="0" xMax="582" yMax="934">
      <contour>
        <pt x="546" y="0" on="1"/>
        <pt x="546" y="334" on="1"/>
        <pt x="128" y="334" on="1"/>
        <pt x="128" y="0" on="1"/>
        <pt x="92" y="0" on="1"/>
        <pt x="92" y="700" on="1"/>
        <pt x="128" y="700" on="1"/>
        <pt x="128" y="368" on="1"/>
        <pt x="546" y="368" on="1"/>
        <pt x="546" y="700" on="1"/>
        <pt x="582" y="700" on="1"/>
        <pt x="582" y="0" on="1"/>
      </contour>
      <contour>
        <pt x="189" y="809" on="1"/>
        <pt x="323" y="934" on="1"/>
        <pt x="353" y="934" on="1"/>
        <pt x="487" y="809" on="1"/>
        <pt x="442" y="809" on="1"/>
        <pt x="338" y="905" on="1"/>
        <pt x="235" y="809" on="1"/>
      </contour>
    </TTGlyph>
    <TTGlyph name="I" xMin="92" yMin="0" xMax="128" yMax="700">
      <contour>
        <pt x="92" y="0" on="1"/>
        <pt x="92" y="700" on="1"/>
        <pt x="128" y="700" on="1"/>
        <pt x="128" y="0" on="1"/>
      </contour>
    </TTGlyph>
    <TTGlyph name="Iacute" xMin="17" yMin="0" xMax="225" yMax="922">
      <contour>
        <pt x="92" y="0" on="1"/>
        <pt x="92" y="700" on="1"/>
        <pt x="128" y="700" on="1"/>
        <pt x="128" y="0" on="1"/>
      </contour>
      <contour>
        <pt x="17" y="826" on="1"/>
        <pt x="209" y="922" on="1"/>
        <pt x="225" y="891" on="1"/>
        <pt x="32" y="799" on="1"/>
      </contour>
    </TTGlyph>
    <TTGlyph name="Ibreve" xMin="-26" yMin="0" xMax="250" yMax="924">
      <contour>
        <pt x="92" y="0" on="1"/>
        <pt x="92" y="700" on="1"/>
        <pt x="128" y="700" on="1"/>
        <pt x="128" y="0" on="1"/>
      </contour>
      <contour>
        <pt x="-26" y="924" on="1"/>
        <pt x="9" y="924" on="1"/>
        <pt x="9" y="884" on="0"/>
        <pt x="69" y="837" on="0"/>
        <pt x="155" y="837" on="0"/>
        <pt x="215" y="884" on="0"/>
        <pt x="215" y="924" on="1"/>
        <pt x="250" y="924" on="1"/>
        <pt x="250" y="870" on="0"/>
        <pt x="170" y="805" on="0"/>
        <pt x="54" y="805" on="0"/>
        <pt x="-26" y="870" on="0"/>
      </contour>
    </TTGlyph>
    <TTGlyph name="Icircumflex" xMin="-45" yMin="0" xMax="253" yMax="934">
      <contour>
        <pt x="92" y="0" on="1"/>
        <pt x="92" y="700" on="1"/>
        <pt x="128" y="700" on="1"/>
        <pt x="128" y="0" on="1"/>
      </contour>
      <contour>
        <pt x="-45" y="809" on="1"/>
        <pt x="89" y="934" on="1"/>
        <pt x="119" y="934" on="1"/>
        <pt x="253" y="809" on="1"/>
        <pt x="208" y="809" on="1"/>
        <pt x="104" y="905" on="1"/>
        <pt x="1" y="809" on="1"/>
      </contour>
    </TTGlyph>
    <TTGlyph name="Idieresis" xMin="-6" yMin="0" xMax="225" yMax="900">
      <contour>
        <pt x="92" y="0" on="1"/>
        <pt x="92" y="700" on="1"/>
        <pt x="128" y="700" on="1"/>
        <pt x="128" y="0" on="1"/>
      </contour>
      <contour>
        <pt x="-6" y="838" on="1"/>
        <pt x="-6" y="900" on="1"/>
        <pt x="29" y="900" on="1"/>
        <pt x="29" y="838" on="1"/>
      </contour>
      <contour>
        <pt x="190" y="838" on="1"/>
        <pt x="190" y="900" on="1"/>
        <pt x="225" y="900" on="1"/>
        <pt x="225" y="838" on="1"/>
      </contour>
    </TTGlyph>
    <TTGlyph name="Idotaccent" xMin="92" yMin="0" xMax="128" yMax="878">
      <contour>
        <pt x="92" y="0" on="1"/>
        <pt x="92" y="700" on="1"/>
        <pt x="128" y="700" on="1"/>
        <pt x="128" y="0" on="1"/>
      </contour>
      <contour>
        <pt x="93" y="823" on="1"/>
        <pt x="93" y="878" on="1"/>
        <pt x="128" y="878" on="1"/>
        <pt x="128" y="823" on="1"/>
      </contour>
    </TTGlyph>
    <TTGlyph name="Igrave" xMin="-18" yMin="0" xMax="190" yMax="922">
      <contour>
        <pt x="92" y="0" on="1"/>
        <pt x="92" y="700" on="1"/>
        <pt x="128" y="700" on="1"/>
        <pt x="128" y="0" on="1"/>
      </contour>
      <contour>
        <pt x="-2" y="922" on="1"/>
        <pt x="190" y="826" on="1"/>
        <pt x="175" y="799" on="1"/>
        <pt x="-18" y="891" on="1"/>
      </contour>
    </TTGlyph>
    <TTGlyph name="Imacron" xMin="-32" yMin="0" xMax="255" yMax="864">
      <contour>
        <pt x="92" y="0" on="1"/>
        <pt x="92" y="700" on="1"/>
        <pt x="128" y="700" on="1"/>
        <pt x="128" y="0" on="1"/>
      </contour>
      <contour>
        <pt x="-32" y="832" on="1"/>
        <pt x="-32" y="864" on="1"/>
        <pt x="255" y="864" on="1"/>
        <pt x="255" y="832" on="1"/>
      </contour>
    </TTGlyph>
    <TTGlyph name="Iogonek" xMin="10" yMin="-200" xMax="154" yMax="700">
      <contour>
        <pt x="47" y="-116" on="1"/>
        <pt x="47" y="-137" on="0"/>
        <pt x="73" y="-166" on="0"/>
        <pt x="94" y="-166" on="1"/>
        <pt x="150" y="-159" on="1"/>
        <pt x="154" y="-192" on="1"/>
        <pt x="118" y="-200" on="0"/>
        <pt x="55" y="-200" on="0"/>
        <pt x="10" y="-156" on="0"/>
        <pt x="10" y="-77" on="0"/>
        <pt x="92" y="5" on="1"/>
        <pt x="92" y="700" on="1"/>
        <pt x="128" y="700" on="1"/>
        <pt x="128" y="0" on="1"/>
        <pt x="47" y="-84" on="0"/>
      </contour>
    </TTGlyph>
    <TTGlyph name="Itilde" xMin="-50" yMin="0" xMax="256" yMax="924">
      <contour>
        <pt x="92" y="0" on="1"/>
        <pt x="92" y="700" on="1"/>
        <pt x="128" y="700" on="1"/>
        <pt x="128" y="0" on="1"/>
      </contour>
      <contour>
        <pt x="256" y="885" on="1"/>
        <pt x="217" y="833" on="0"/>
        <pt x="163" y="833" on="0"/>
        <pt x="42" y="893" on="0"/>
        <pt x="30" y="893" on="1"/>
        <pt x="8" y="893" on="0"/>
        <pt x="-28" y="854" on="1"/>
        <pt x="-40" y="841" on="1"/>
        <pt x="-50" y="870" on="1"/>
        <pt x="-6" y="924" on="0"/>
        <pt x="27" y="924" on="1"/>
        <pt x="50" y="924" on="0"/>
        <pt x="171" y="865" on="0"/>
        <pt x="182" y="865" on="1"/>
        <pt x="203" y="865" on="0"/>
        <pt x="234" y="901" on="1"/>
        <pt x="245" y="913" on="1"/>
      </contour>
    </TTGlyph>
    <TTGlyph name="J" xMin="18" yMin="-73" xMax="191" yMax="700">
      <contour>
        <pt x="191" y="700" on="1"/>
        <pt x="191" y="81" on="1"/>
        <pt x="191" y="3" on="0"/>
        <pt x="172" y="-26" on="1"/>
        <pt x="161" y="-43" on="0"/>
        <pt x="139" y="-62" on="0"/>
        <pt x="116" y="-66" on="1"/>
        <pt x="82" y="-73" on="0"/>
        <pt x="18" y="-73" on="1"/>
        <pt x="18" y="-39" on="1"/>
        <pt x="115" y="-39" on="0"/>
        <pt x="131" y="-22" on="1"/>
        <pt x="151" y="0" on="0"/>
        <pt x="155" y="61" on="0"/>
        <pt x="155" y="96" on="1"/>
        <pt x="155" y="700" on="1"/>
      </contour>
    </TTGlyph>
    <TTGlyph name="Jcircumflex" xMin="18" yMin="-73" xMax="321" yMax="929">
      <contour>
        <pt x="191" y="700" on="1"/>
        <pt x="191" y="81" on="1"/>
        <pt x="191" y="3" on="0"/>
        <pt x="172" y="-26" on="1"/>
        <pt x="161" y="-43" on="0"/>
        <pt x="139" y="-62" on="0"/>
        <pt x="116" y="-66" on="1"/>
        <pt x="82" y="-73" on="0"/>
        <pt x="18" y="-73" on="1"/>
        <pt x="18" y="-39" on="1"/>
        <pt x="115" y="-39" on="0"/>
        <pt x="131" y="-22" on="1"/>
        <pt x="151" y="0" on="0"/>
        <pt x="155" y="61" on="0"/>
        <pt x="155" y="96" on="1"/>
        <pt x="155" y="700" on="1"/>
      </contour>
      <contour>
        <pt x="23" y="804" on="1"/>
        <pt x="157" y="929" on="1"/>
        <pt x="187" y="929" on="1"/>
        <pt x="321" y="804" on="1"/>
        <pt x="276" y="804" on="1"/>
        <pt x="172" y="900" on="1"/>
        <pt x="69" y="804" on="1"/>
      </contour>
    </TTGlyph>
    <TTGlyph name="K" xMin="92" yMin="0" xMax="536" yMax="700">
      <contour>
        <pt x="128" y="329" on="1"/>
        <pt x="128" y="0" on="1"/>
        <pt x="92" y="0" on="1"/>
        <pt x="92" y="700" on="1"/>
        <pt x="128" y="700" on="1"/>
        <pt x="128" y="363" on="1"/>
        <pt x="257" y="363" on="1"/>
        <pt x="477" y="700" on="1"/>
        <pt x="520" y="700" on="1"/>
        <pt x="289" y="348" on="1"/>
        <pt x="536" y="0" on="1"/>
        <pt x="490" y="0" on="1"/>
        <pt x="259" y="329" on="1"/>
      </contour>
    </TTGlyph>
    <TTGlyph name="Kcommaaccent" xMin="92" yMin="-267" xMax="536" yMax="700">
      <contour>
        <pt x="128" y="329" on="1"/>
        <pt x="128" y="0" on="1"/>
        <pt x="92" y="0" on="1"/>
        <pt x="92" y="700" on="1"/>
        <pt x="128" y="700" on="1"/>
        <pt x="128" y="363" on="1"/>
        <pt x="257" y="363" on="1"/>
        <pt x="477" y="700" on="1"/>
        <pt x="520" y="700" on="1"/>
        <pt x="289" y="348" on="1"/>
        <pt x="536" y="0" on="1"/>
        <pt x="490" y="0" on="1"/>
        <pt x="259" y="329" on="1"/>
      </contour>
      <contour>
        <pt x="277" y="-78" on="1"/>
        <pt x="314" y="-78" on="1"/>
        <pt x="268" y="-267" on="1"/>
        <pt x="240" y="-267" on="1"/>
      </contour>
    </TTGlyph>
    <TTGlyph name="L" xMin="92" yMin="0" xMax="469" yMax="700">
      <contour>
        <pt x="469" y="0" on="1"/>
        <pt x="92" y="0" on="1"/>
        <pt x="92" y="700" on="1"/>
        <pt x="128" y="700" on="1"/>
        <pt x="128" y="34" on="1"/>
        <pt x="469" y="34" on="1"/>
      </contour>
    </TTGlyph>
    <TTGlyph name="Lacute" xMin="92" yMin="0" xMax="469" yMax="922">
      <contour>
        <pt x="469" y="0" on="1"/>
        <pt x="92" y="0" on="1"/>
        <pt x="92" y="700" on="1"/>
        <pt x="128" y="700" on="1"/>
        <pt x="128" y="34" on="1"/>
        <pt x="469" y="34" on="1"/>
      </contour>
      <contour>
        <pt x="150" y="826" on="1"/>
        <pt x="342" y="922" on="1"/>
        <pt x="358" y="891" on="1"/>
        <pt x="165" y="799" on="1"/>
      </contour>
    </TTGlyph>
    <TTGlyph name="Lcaron" xMin="92" yMin="0" xMax="469" yMax="700">
      <contour>
        <pt x="424" y="700" on="1"/>
        <pt x="424" y="483" on="1"/>
        <pt x="390" y="483" on="1"/>
        <pt x="390" y="700" on="1"/>
      </contour>
      <contour>
        <pt x="469" y="0" on="1"/>
        <pt x="92" y="0" on="1"/>
        <pt x="92" y="700" on="1"/>
        <pt x="128" y="700" on="1"/>
        <pt x="128" y="34" on="1"/>
        <pt x="469" y="34" on="1"/>
      </contour>
    </TTGlyph>
    <TTGlyph name="Lcommaaccent" xMin="92" yMin="-267" xMax="469" yMax="700">
      <contour>
        <pt x="265" y="-78" on="1"/>
        <pt x="302" y="-78" on="1"/>
        <pt x="256" y="-267" on="1"/>
        <pt x="228" y="-267" on="1"/>
      </contour>
      <contour>
        <pt x="469" y="0" on="1"/>
        <pt x="92" y="0" on="1"/>
        <pt x="92" y="700" on="1"/>
        <pt x="128" y="700" on="1"/>
        <pt x="128" y="34" on="1"/>
        <pt x="469" y="34" on="1"/>
      </contour>
    </TTGlyph>
    <TTGlyph name="Lslash" xMin="9" yMin="0" xMax="471" yMax="700">
      <contour>
        <pt x="471" y="0" on="1"/>
        <pt x="94" y="0" on="1"/>
        <pt x="94" y="308" on="1"/>
        <pt x="28" y="262" on="1"/>
        <pt x="9" y="288" on="1"/>
        <pt x="94" y="347" on="1"/>
        <pt x="94" y="700" on="1"/>
        <pt x="130" y="700" on="1"/>
        <pt x="130" y="373" on="1"/>
        <pt x="301" y="493" on="1"/>
        <pt x="320" y="467" on="1"/>
        <pt x="130" y="333" on="1"/>
        <pt x="130" y="34" on="1"/>
        <pt x="471" y="34" on="1"/>
      </contour>
    </TTGlyph>
    <TTGlyph name="M" xMin="92" yMin="0" xMax="736" yMax="700">
      <contour>
        <pt x="92" y="0" on="1"/>
        <pt x="92" y="700" on="1"/>
        <pt x="168" y="700" on="1"/>
        <pt x="414" y="55" on="1"/>
        <pt x="660" y="700" on="1"/>
        <pt x="736" y="700" on="1"/>
        <pt x="736" y="0" on="1"/>
        <pt x="700" y="0" on="1"/>
        <pt x="700" y="666" on="1"/>
        <pt x="686" y="666" on="1"/>
        <pt x="440" y="21" on="1"/>
        <pt x="388" y="21" on="1"/>
        <pt x="142" y="666" on="1"/>
        <pt x="128" y="666" on="1"/>
        <pt x="128" y="0" on="1"/>
      </contour>
    </TTGlyph>
    <TTGlyph name="N" xMin="92" yMin="0" xMax="573" yMax="700">
      <contour>
        <pt x="92" y="0" on="1"/>
        <pt x="92" y="700" on="1"/>
        <pt x="177" y="700" on="1"/>
        <pt x="510" y="34" on="1"/>
        <pt x="537" y="34" on="1"/>
        <pt x="537" y="700" on="1"/>
        <pt x="573" y="700" on="1"/>
        <pt x="573" y="0" on="1"/>
        <pt x="488" y="0" on="1"/>
        <pt x="154" y="666" on="1"/>
        <pt x="128" y="666" on="1"/>
        <pt x="128" y="0" on="1"/>
      </contour>
    </TTGlyph>
    <TTGlyph name="Nacute" xMin="92" yMin="0" xMax="573" yMax="922">
      <contour>
        <pt x="92" y="0" on="1"/>
        <pt x="92" y="700" on="1"/>
        <pt x="177" y="700" on="1"/>
        <pt x="510" y="34" on="1"/>
        <pt x="537" y="34" on="1"/>
        <pt x="537" y="700" on="1"/>
        <pt x="573" y="700" on="1"/>
        <pt x="573" y="0" on="1"/>
        <pt x="488" y="0" on="1"/>
        <pt x="154" y="666" on="1"/>
        <pt x="128" y="666" on="1"/>
        <pt x="128" y="0" on="1"/>
      </contour>
      <contour>
        <pt x="232" y="826" on="1"/>
        <pt x="424" y="922" on="1"/>
        <pt x="440" y="891" on="1"/>
        <pt x="247" y="799" on="1"/>
      </contour>
    </TTGlyph>
    <TTGlyph name="Ncaron" xMin="92" yMin="0" xMax="573" yMax="929">
      <contour>
        <pt x="92" y="0" on="1"/>
        <pt x="92" y="700" on="1"/>
        <pt x="177" y="700" on="1"/>
        <pt x="510" y="34" on="1"/>
        <pt x="537" y="34" on="1"/>
        <pt x="537" y="700" on="1"/>
        <pt x="573" y="700" on="1"/>
        <pt x="573" y="0" on="1"/>
        <pt x="488" y="0" on="1"/>
        <pt x="154" y="666" on="1"/>
        <pt x="128" y="666" on="1"/>
        <pt x="128" y="0" on="1"/>
      </contour>
      <contour>
        <pt x="318" y="804" on="1"/>
        <pt x="184" y="929" on="1"/>
        <pt x="229" y="929" on="1"/>
        <pt x="333" y="833" on="1"/>
        <pt x="436" y="929" on="1"/>
        <pt x="482" y="929" on="1"/>
        <pt x="348" y="804" on="1"/>
      </contour>
    </TTGlyph>
    <TTGlyph name="Ncommaaccent" xMin="92" yMin="-267" xMax="573" yMax="700">
      <contour>
        <pt x="340" y="-78" on="1"/>
        <pt x="377" y="-78" on="1"/>
        <pt x="331" y="-267" on="1"/>
        <pt x="303" y="-267" on="1"/>
      </contour>
      <contour>
        <pt x="92" y="0" on="1"/>
        <pt x="92" y="700" on="1"/>
        <pt x="177" y="700" on="1"/>
        <pt x="510" y="34" on="1"/>
        <pt x="537" y="34" on="1"/>
        <pt x="537" y="700" on="1"/>
        <pt x="573" y="700" on="1"/>
        <pt x="573" y="0" on="1"/>
        <pt x="488" y="0" on="1"/>
        <pt x="154" y="666" on="1"/>
        <pt x="128" y="666" on="1"/>
        <pt x="128" y="0" on="1"/>
      </contour>
    </TTGlyph>
    <TTGlyph name="Ntilde" xMin="92" yMin="0" xMax="573" yMax="924">
      <contour>
        <pt x="92" y="0" on="1"/>
        <pt x="92" y="700" on="1"/>
        <pt x="177" y="700" on="1"/>
        <pt x="510" y="34" on="1"/>
        <pt x="537" y="34" on="1"/>
        <pt x="537" y="700" on="1"/>
        <pt x="573" y="700" on="1"/>
        <pt x="573" y="0" on="1"/>
        <pt x="488" y="0" on="1"/>
        <pt x="154" y="666" on="1"/>
        <pt x="128" y="666" on="1"/>
        <pt x="128" y="0" on="1"/>
      </contour>
      <contour>
        <pt x="485" y="885" on="1"/>
        <pt x="446" y="833" on="0"/>
        <pt x="392" y="833" on="0"/>
        <pt x="271" y="893" on="0"/>
        <pt x="259" y="893" on="1"/>
        <pt x="237" y="893" on="0"/>
        <pt x="201" y="854" on="1"/>
        <pt x="189" y="841" on="1"/>
        <pt x="179" y="870" on="1"/>
        <pt x="223" y="924" on="0"/>
        <pt x="256" y="924" on="1"/>
        <pt x="279" y="924" on="0"/>
        <pt x="400" y="865" on="0"/>
        <pt x="412" y="865" on="1"/>
        <pt x="430" y="865" on="0"/>
        <pt x="463" y="901" on="1"/>
        <pt x="474" y="913" on="1"/>
      </contour>
    </TTGlyph>
    <TTGlyph name="O" xMin="65" yMin="-9" xMax="601" yMax="709">
      <contour>
        <pt x="170" y="65" on="0"/>
        <pt x="262" y="25" on="0"/>
        <pt x="405" y="25" on="0"/>
        <pt x="496" y="62" on="0"/>
        <pt x="545" y="147" on="0"/>
        <pt x="563" y="259" on="0"/>
        <pt x="563" y="347" on="1"/>
        <pt x="563" y="515" on="0"/>
        <pt x="466" y="675" on="0"/>
        <pt x="333" y="675" on="1"/>
        <pt x="194" y="675" on="0"/>
        <pt x="146" y="588" on="1"/>
        <pt x="122" y="544" on="0"/>
        <pt x="103" y="431" on="0"/>
        <pt x="103" y="262" on="0"/>
        <pt x="121" y="152" on="0"/>
      </contour>
      <contour>
        <pt x="118" y="82" on="1"/>
        <pt x="88" y="130" on="0"/>
        <pt x="65" y="255" on="0"/>
        <pt x="65" y="347" on="1"/>
        <pt x="65" y="531" on="0"/>
        <pt x="181" y="709" on="0"/>
        <pt x="485" y="709" on="0"/>
        <pt x="601" y="532" on="0"/>
        <pt x="601" y="156" on="0"/>
        <pt x="488" y="-9" on="0"/>
        <pt x="174" y="-9" on="0"/>
      </contour>
    </TTGlyph>
    <TTGlyph name="OE" xMin="65" yMin="-9" xMax="889" yMax="709">
      <contour>
        <pt x="889" y="-1" on="1"/>
        <pt x="491" y="-1" on="1"/>
        <pt x="407" y="-9" on="0"/>
        <pt x="253" y="-9" on="0"/>
        <pt x="147" y="35" on="0"/>
        <pt x="88" y="130" on="0"/>
        <pt x="65" y="254" on="0"/>
        <pt x="65" y="436" on="0"/>
        <pt x="89" y="563" on="0"/>
        <pt x="118" y="612" on="1"/>
        <pt x="176" y="709" on="0"/>
        <pt x="333" y="709" on="1"/>
        <pt x="434" y="709" on="0"/>
        <pt x="490" y="700" on="1"/>
        <pt x="889" y="700" on="1"/>
        <pt x="889" y="664" on="1"/>
        <pt x="526" y="664" on="1"/>
        <pt x="526" y="378" on="1"/>
        <pt x="829" y="378" on="1"/>
        <pt x="829" y="342" on="1"/>
        <pt x="526" y="342" on="1"/>
        <pt x="526" y="36" on="1"/>
        <pt x="889" y="36" on="1"/>
      </contour>
      <contour>
        <pt x="170" y="65" on="0"/>
        <pt x="262" y="25" on="0"/>
        <pt x="385" y="25" on="0"/>
        <pt x="490" y="34" on="1"/>
        <pt x="490" y="663" on="1"/>
        <pt x="350" y="675" on="0"/>
        <pt x="333" y="675" on="1"/>
        <pt x="194" y="675" on="0"/>
        <pt x="146" y="588" on="1"/>
        <pt x="122" y="544" on="0"/>
        <pt x="103" y="431" on="0"/>
        <pt x="103" y="262" on="0"/>
        <pt x="121" y="152" on="0"/>
      </contour>
    </TTGlyph>
    <TTGlyph name="Oacute" xMin="65" yMin="-9" xMax="601" yMax="922">
      <contour>
        <pt x="170" y="65" on="0"/>
        <pt x="262" y="25" on="0"/>
        <pt x="405" y="25" on="0"/>
        <pt x="496" y="62" on="0"/>
        <pt x="545" y="147" on="0"/>
        <pt x="563" y="259" on="0"/>
        <pt x="563" y="347" on="1"/>
        <pt x="563" y="515" on="0"/>
        <pt x="466" y="675" on="0"/>
        <pt x="333" y="675" on="1"/>
        <pt x="194" y="675" on="0"/>
        <pt x="146" y="588" on="1"/>
        <pt x="122" y="544" on="0"/>
        <pt x="103" y="431" on="0"/>
        <pt x="103" y="262" on="0"/>
        <pt x="121" y="152" on="0"/>
      </contour>
      <contour>
        <pt x="118" y="82" on="1"/>
        <pt x="88" y="130" on="0"/>
        <pt x="65" y="255" on="0"/>
        <pt x="65" y="347" on="1"/>
        <pt x="65" y="531" on="0"/>
        <pt x="181" y="709" on="0"/>
        <pt x="485" y="709" on="0"/>
        <pt x="601" y="532" on="0"/>
        <pt x="601" y="156" on="0"/>
        <pt x="488" y="-9" on="0"/>
        <pt x="174" y="-9" on="0"/>
      </contour>
      <contour>
        <pt x="219" y="826" on="1"/>
        <pt x="411" y="922" on="1"/>
        <pt x="427" y="891" on="1"/>
        <pt x="234" y="799" on="1"/>
      </contour>
    </TTGlyph>
    <TTGlyph name="Obreve" xMin="65" yMin="-9" xMax="601" yMax="924">
      <contour>
        <pt x="170" y="65" on="0"/>
        <pt x="262" y="25" on="0"/>
        <pt x="405" y="25" on="0"/>
        <pt x="496" y="62" on="0"/>
        <pt x="545" y="147" on="0"/>
        <pt x="563" y="259" on="0"/>
        <pt x="563" y="347" on="1"/>
        <pt x="563" y="515" on="0"/>
        <pt x="466" y="675" on="0"/>
        <pt x="333" y="675" on="1"/>
        <pt x="194" y="675" on="0"/>
        <pt x="146" y="588" on="1"/>
        <pt x="122" y="544" on="0"/>
        <pt x="103" y="431" on="0"/>
        <pt x="103" y="262" on="0"/>
        <pt x="121" y="152" on="0"/>
      </contour>
      <contour>
        <pt x="118" y="82" on="1"/>
        <pt x="88" y="130" on="0"/>
        <pt x="65" y="255" on="0"/>
        <pt x="65" y="347" on="1"/>
        <pt x="65" y="531" on="0"/>
        <pt x="181" y="709" on="0"/>
        <pt x="485" y="709" on="0"/>
        <pt x="601" y="532" on="0"/>
        <pt x="601" y="156" on="0"/>
        <pt x="488" y="-9" on="0"/>
        <pt x="174" y="-9" on="0"/>
      </contour>
      <contour>
        <pt x="196" y="924" on="1"/>
        <pt x="231" y="924" on="1"/>
        <pt x="231" y="884" on="0"/>
        <pt x="291" y="837" on="0"/>
        <pt x="377" y="837" on="0"/>
        <pt x="437" y="884" on="0"/>
        <pt x="437" y="924" on="1"/>
        <pt x="472" y="924" on="1"/>
        <pt x="472" y="870" on="0"/>
        <pt x="392" y="805" on="0"/>
        <pt x="276" y="805" on="0"/>
        <pt x="196" y="870" on="0"/>
      </contour>
    </TTGlyph>
    <TTGlyph name="Ocircumflex" xMin="65" yMin="-9" xMax="601" yMax="934">
      <contour>
        <pt x="170" y="65" on="0"/>
        <pt x="262" y="25" on="0"/>
        <pt x="405" y="25" on="0"/>
        <pt x="496" y="62" on="0"/>
        <pt x="545" y="147" on="0"/>
        <pt x="563" y="259" on="0"/>
        <pt x="563" y="347" on="1"/>
        <pt x="563" y="515" on="0"/>
        <pt x="466" y="675" on="0"/>
        <pt x="333" y="675" on="1"/>
        <pt x="194" y="675" on="0"/>
        <pt x="146" y="588" on="1"/>
        <pt x="122" y="544" on="0"/>
        <pt x="103" y="431" on="0"/>
        <pt x="103" y="262" on="0"/>
        <pt x="121" y="152" on="0"/>
      </contour>
      <contour>
        <pt x="118" y="82" on="1"/>
        <pt x="88" y="130" on="0"/>
        <pt x="65" y="255" on="0"/>
        <pt x="65" y="347" on="1"/>
        <pt x="65" y="531" on="0"/>
        <pt x="181" y="709" on="0"/>
        <pt x="485" y="709" on="0"/>
        <pt x="601" y="532" on="0"/>
        <pt x="601" y="156" on="0"/>
        <pt x="488" y="-9" on="0"/>
        <pt x="174" y="-9" on="0"/>
      </contour>
      <contour>
        <pt x="184" y="809" on="1"/>
        <pt x="318" y="934" on="1"/>
        <pt x="348" y="934" on="1"/>
        <pt x="482" y="809" on="1"/>
        <pt x="437" y="809" on="1"/>
        <pt x="333" y="905" on="1"/>
        <pt x="230" y="809" on="1"/>
      </contour>
    </TTGlyph>
    <TTGlyph name="Odieresis" xMin="65" yMin="-9" xMax="601" yMax="900">
      <contour>
        <pt x="170" y="65" on="0"/>
        <pt x="262" y="25" on="0"/>
        <pt x="405" y="25" on="0"/>
        <pt x="496" y="62" on="0"/>
        <pt x="545" y="147" on="0"/>
        <pt x="563" y="259" on="0"/>
        <pt x="563" y="347" on="1"/>
        <pt x="563" y="515" on="0"/>
        <pt x="466" y="675" on="0"/>
        <pt x="333" y="675" on="1"/>
        <pt x="194" y="675" on="0"/>
        <pt x="146" y="588" on="1"/>
        <pt x="122" y="544" on="0"/>
        <pt x="103" y="431" on="0"/>
        <pt x="103" y="262" on="0"/>
        <pt x="121" y="152" on="0"/>
      </contour>
      <contour>
        <pt x="118" y="82" on="1"/>
        <pt x="88" y="130" on="0"/>
        <pt x="65" y="255" on="0"/>
        <pt x="65" y="347" on="1"/>
        <pt x="65" y="531" on="0"/>
        <pt x="181" y="709" on="0"/>
        <pt x="485" y="709" on="0"/>
        <pt x="601" y="532" on="0"/>
        <pt x="601" y="156" on="0"/>
        <pt x="488" y="-9" on="0"/>
        <pt x="174" y="-9" on="0"/>
      </contour>
      <contour>
        <pt x="218" y="838" on="1"/>
        <pt x="218" y="900" on="1"/>
        <pt x="253" y="900" on="1"/>
        <pt x="253" y="838" on="1"/>
      </contour>
      <contour>
        <pt x="414" y="838" on="1"/>
        <pt x="414" y="900" on="1"/>
        <pt x="449" y="900" on="1"/>
        <pt x="449" y="838" on="1"/>
      </contour>
    </TTGlyph>
    <TTGlyph name="Ograve" xMin="65" yMin="-9" xMax="601" yMax="922">
      <contour>
        <pt x="170" y="65" on="0"/>
        <pt x="262" y="25" on="0"/>
        <pt x="405" y="25" on="0"/>
        <pt x="496" y="62" on="0"/>
        <pt x="545" y="147" on="0"/>
        <pt x="563" y="259" on="0"/>
        <pt x="563" y="347" on="1"/>
        <pt x="563" y="515" on="0"/>
        <pt x="466" y="675" on="0"/>
        <pt x="333" y="675" on="1"/>
        <pt x="194" y="675" on="0"/>
        <pt x="146" y="588" on="1"/>
        <pt x="122" y="544" on="0"/>
        <pt x="103" y="431" on="0"/>
        <pt x="103" y="262" on="0"/>
        <pt x="121" y="152" on="0"/>
      </contour>
      <contour>
        <pt x="118" y="82" on="1"/>
        <pt x="88" y="130" on="0"/>
        <pt x="65" y="255" on="0"/>
        <pt x="65" y="347" on="1"/>
        <pt x="65" y="531" on="0"/>
        <pt x="181" y="709" on="0"/>
        <pt x="485" y="709" on="0"/>
        <pt x="601" y="532" on="0"/>
        <pt x="601" y="156" on="0"/>
        <pt x="488" y="-9" on="0"/>
        <pt x="174" y="-9" on="0"/>
      </contour>
      <contour>
        <pt x="242" y="922" on="1"/>
        <pt x="434" y="826" on="1"/>
        <pt x="419" y="799" on="1"/>
        <pt x="226" y="891" on="1"/>
      </contour>
    </TTGlyph>
    <TTGlyph name="Ohungarumlaut" xMin="65" yMin="-9" xMax="601" yMax="879">
      <contour>
        <pt x="170" y="65" on="0"/>
        <pt x="262" y="25" on="0"/>
        <pt x="405" y="25" on="0"/>
        <pt x="496" y="62" on="0"/>
        <pt x="545" y="147" on="0"/>
        <pt x="563" y="259" on="0"/>
        <pt x="563" y="347" on="1"/>
        <pt x="563" y="515" on="0"/>
        <pt x="466" y="675" on="0"/>
        <pt x="333" y="675" on="1"/>
        <pt x="194" y="675" on="0"/>
        <pt x="146" y="588" on="1"/>
        <pt x="122" y="544" on="0"/>
        <pt x="103" y="431" on="0"/>
        <pt x="103" y="262" on="0"/>
        <pt x="121" y="152" on="0"/>
      </contour>
      <contour>
        <pt x="118" y="82" on="1"/>
        <pt x="88" y="130" on="0"/>
        <pt x="65" y="255" on="0"/>
        <pt x="65" y="347" on="1"/>
        <pt x="65" y="531" on="0"/>
        <pt x="181" y="709" on="0"/>
        <pt x="485" y="709" on="0"/>
        <pt x="601" y="532" on="0"/>
        <pt x="601" y="156" on="0"/>
        <pt x="488" y="-9" on="0"/>
        <pt x="174" y="-9" on="0"/>
      </contour>
      <contour>
        <pt x="337" y="791" on="1"/>
        <pt x="528" y="878" on="1"/>
        <pt x="543" y="849" on="1"/>
        <pt x="351" y="761" on="1"/>
      </contour>
      <contour>
        <pt x="146" y="791" on="1"/>
        <pt x="338" y="879" on="1"/>
        <pt x="352" y="849" on="1"/>
        <pt x="161" y="762" on="1"/>
      </contour>
    </TTGlyph>
    <TTGlyph name="Omacron" xMin="65" yMin="-9" xMax="601" yMax="864">
      <contour>
        <pt x="170" y="65" on="0"/>
        <pt x="262" y="25" on="0"/>
        <pt x="405" y="25" on="0"/>
        <pt x="496" y="62" on="0"/>
        <pt x="545" y="147" on="0"/>
        <pt x="563" y="259" on="0"/>
        <pt x="563" y="347" on="1"/>
        <pt x="563" y="515" on="0"/>
        <pt x="466" y="675" on="0"/>
        <pt x="333" y="675" on="1"/>
        <pt x="194" y="675" on="0"/>
        <pt x="146" y="588" on="1"/>
        <pt x="122" y="544" on="0"/>
        <pt x="103" y="431" on="0"/>
        <pt x="103" y="262" on="0"/>
        <pt x="121" y="152" on="0"/>
      </contour>
      <contour>
        <pt x="118" y="82" on="1"/>
        <pt x="88" y="130" on="0"/>
        <pt x="65" y="255" on="0"/>
        <pt x="65" y="347" on="1"/>
        <pt x="65" y="531" on="0"/>
        <pt x="181" y="709" on="0"/>
        <pt x="485" y="709" on="0"/>
        <pt x="601" y="532" on="0"/>
        <pt x="601" y="156" on="0"/>
        <pt x="488" y="-9" on="0"/>
        <pt x="174" y="-9" on="0"/>
      </contour>
      <contour>
        <pt x="190" y="832" on="1"/>
        <pt x="190" y="864" on="1"/>
        <pt x="477" y="864" on="1"/>
        <pt x="477" y="832" on="1"/>
      </contour>
    </TTGlyph>
    <TTGlyph name="Omega" xMin="41" yMin="-9" xMax="519" yMax="670">
      <contour>
        <pt x="41" y="25" on="1"/>
        <pt x="192" y="25" on="1"/>
        <pt x="116" y="161" on="0"/>
        <pt x="84" y="284" on="1"/>
        <pt x="71" y="334" on="0"/>
        <pt x="71" y="370" on="1"/>
        <pt x="71" y="527" on="0"/>
        <pt x="157" y="670" on="0"/>
        <pt x="403" y="670" on="0"/>
        <pt x="489" y="527" on="0"/>
        <pt x="489" y="370" on="1"/>
        <pt x="489" y="313" on="0"/>
        <pt x="428" y="141" on="0"/>
        <pt x="398" y="83" on="1"/>
        <pt x="367" y="25" on="1"/>
        <pt x="519" y="25" on="1"/>
        <pt x="519" y="-9" on="1"/>
        <pt x="330" y="-9" on="1"/>
        <pt x="330" y="20" on="1"/>
        <pt x="374" y="102" on="0"/>
        <pt x="451" y="312" on="0"/>
        <pt x="451" y="419" on="0"/>
        <pt x="444" y="498" on="0"/>
        <pt x="423" y="571" on="0"/>
        <pt x="404" y="592" on="1"/>
        <pt x="364" y="636" on="0"/>
        <pt x="280" y="636" on="1"/>
        <pt x="195" y="636" on="0"/>
        <pt x="154" y="592" on="1"/>
        <pt x="109" y="541" on="0"/>
        <pt x="109" y="360" on="1"/>
        <pt x="109" y="312" on="0"/>
        <pt x="170" y="142" on="0"/>
        <pt x="200" y="81" on="1"/>
        <pt x="230" y="20" on="1"/>
        <pt x="230" y="-9" on="1"/>
        <pt x="41" y="-9" on="1"/>
      </contour>
    </TTGlyph>
    <TTGlyph name="Oslash" xMin="65" yMin="-109" xMax="601" yMax="792">
      <contour>
        <pt x="333" y="-9" on="1"/>
        <pt x="253" y="-9" on="0"/>
        <pt x="199" y="14" on="1"/>
        <pt x="141" y="-109" on="1"/>
        <pt x="111" y="-98" on="1"/>
        <pt x="170" y="29" on="1"/>
        <pt x="111" y="68" on="0"/>
        <pt x="65" y="222" on="0"/>
        <pt x="65" y="347" on="1"/>
        <pt x="65" y="531" on="0"/>
        <pt x="181" y="709" on="0"/>
        <pt x="333" y="709" on="1"/>
        <pt x="419" y="709" on="0"/>
        <pt x="475" y="680" on="1"/>
        <pt x="528" y="792" on="1"/>
        <pt x="558" y="780" on="1"/>
        <pt x="503" y="662" on="1"/>
        <pt x="557" y="621" on="0"/>
        <pt x="601" y="466" on="0"/>
        <pt x="601" y="347" on="1"/>
        <pt x="601" y="156" on="0"/>
        <pt x="488" y="-9" on="0"/>
      </contour>
      <contour>
        <pt x="122" y="544" on="0"/>
        <pt x="103" y="431" on="0"/>
        <pt x="103" y="234" on="0"/>
        <pt x="139" y="98" on="0"/>
        <pt x="186" y="63" on="1"/>
        <pt x="460" y="647" on="1"/>
        <pt x="410" y="675" on="0"/>
        <pt x="263" y="675" on="0"/>
        <pt x="171" y="633" on="0"/>
      </contour>
      <contour>
        <pt x="214" y="46" on="1"/>
        <pt x="260" y="25" on="0"/>
        <pt x="405" y="25" on="0"/>
        <pt x="496" y="62" on="0"/>
        <pt x="545" y="147" on="0"/>
        <pt x="563" y="259" on="0"/>
        <pt x="563" y="347" on="1"/>
        <pt x="563" y="559" on="0"/>
        <pt x="486" y="627" on="1"/>
      </contour>
    </TTGlyph>
    <TTGlyph name="Oslashacute" xMin="66" yMin="-109" xMax="602" yMax="922">
      <contour>
        <pt x="334" y="-9" on="1"/>
        <pt x="254" y="-9" on="0"/>
        <pt x="200" y="14" on="1"/>
        <pt x="142" y="-109" on="1"/>
        <pt x="112" y="-98" on="1"/>
        <pt x="171" y="29" on="1"/>
        <pt x="112" y="68" on="0"/>
        <pt x="66" y="222" on="0"/>
        <pt x="66" y="347" on="1"/>
        <pt x="66" y="531" on="0"/>
        <pt x="182" y="709" on="0"/>
        <pt x="334" y="709" on="1"/>
        <pt x="420" y="709" on="0"/>
        <pt x="476" y="680" on="1"/>
        <pt x="529" y="792" on="1"/>
        <pt x="559" y="780" on="1"/>
        <pt x="504" y="662" on="1"/>
        <pt x="558" y="621" on="0"/>
        <pt x="602" y="466" on="0"/>
        <pt x="602" y="347" on="1"/>
        <pt x="602" y="156" on="0"/>
        <pt x="489" y="-9" on="0"/>
      </contour>
      <contour>
        <pt x="123" y="544" on="0"/>
        <pt x="104" y="431" on="0"/>
        <pt x="104" y="234" on="0"/>
        <pt x="140" y="98" on="0"/>
        <pt x="187" y="63" on="1"/>
        <pt x="461" y="647" on="1"/>
        <pt x="411" y="675" on="0"/>
        <pt x="264" y="675" on="0"/>
        <pt x="172" y="633" on="0"/>
      </contour>
      <contour>
        <pt x="262" y="25" on="0"/>
        <pt x="406" y="25" on="0"/>
        <pt x="497" y="62" on="0"/>
        <pt x="546" y="147" on="0"/>
        <pt x="564" y="259" on="0"/>
        <pt x="564" y="347" on="1"/>
        <pt x="564" y="559" on="0"/>
        <pt x="487" y="627" on="1"/>
        <pt x="215" y="46" on="1"/>
      </contour>
      <contour>
        <pt x="236" y="826" on="1"/>
        <pt x="428" y="922" on="1"/>
        <pt x="444" y="891" on="1"/>
        <pt x="251" y="799" on="1"/>
      </contour>
    </TTGlyph>
    <TTGlyph name="Otilde" xMin="65" yMin="-9" xMax="601" yMax="924">
      <contour>
        <pt x="170" y="65" on="0"/>
        <pt x="262" y="25" on="0"/>
        <pt x="405" y="25" on="0"/>
        <pt x="496" y="62" on="0"/>
        <pt x="545" y="147" on="0"/>
        <pt x="563" y="259" on="0"/>
        <pt x="563" y="347" on="1"/>
        <pt x="563" y="515" on="0"/>
        <pt x="466" y="675" on="0"/>
        <pt x="333" y="675" on="1"/>
        <pt x="194" y="675" on="0"/>
        <pt x="146" y="588" on="1"/>
        <pt x="122" y="544" on="0"/>
        <pt x="103" y="431" on="0"/>
        <pt x="103" y="262" on="0"/>
        <pt x="121" y="152" on="0"/>
      </contour>
      <contour>
        <pt x="118" y="82" on="1"/>
        <pt x="88" y="130" on="0"/>
        <pt x="65" y="255" on="0"/>
        <pt x="65" y="347" on="1"/>
        <pt x="65" y="531" on="0"/>
        <pt x="181" y="709" on="0"/>
        <pt x="485" y="709" on="0"/>
        <pt x="601" y="532" on="0"/>
        <pt x="601" y="156" on="0"/>
        <pt x="488" y="-9" on="0"/>
        <pt x="174" y="-9" on="0"/>
      </contour>
      <contour>
        <pt x="482" y="885" on="1"/>
        <pt x="443" y="833" on="0"/>
        <pt x="389" y="833" on="0"/>
        <pt x="268" y="893" on="0"/>
        <pt x="256" y="893" on="1"/>
        <pt x="234" y="893" on="0"/>
        <pt x="198" y="854" on="1"/>
        <pt x="186" y="841" on="1"/>
        <pt x="176" y="870" on="1"/>
        <pt x="220" y="924" on="0"/>
        <pt x="253" y="924" on="1"/>
        <pt x="276" y="924" on="0"/>
        <pt x="397" y="865" on="0"/>
        <pt x="408" y="865" on="1"/>
        <pt x="429" y="865" on="0"/>
        <pt x="460" y="901" on="1"/>
        <pt x="471" y="913" on="1"/>
      </contour>
    </TTGlyph>
    <TTGlyph name="P" xMin="92" yMin="0" xMax="554" yMax="700">
      <contour>
        <pt x="347" y="257" on="1"/>
        <pt x="128" y="257" on="1"/>
        <pt x="128" y="0" on="1"/>
        <pt x="92" y="0" on="1"/>
        <pt x="92" y="700" on="1"/>
        <pt x="347" y="700" on="1"/>
        <pt x="455" y="700" on="0"/>
        <pt x="554" y="595" on="0"/>
        <pt x="554" y="485" on="1"/>
        <pt x="554" y="257" on="0"/>
      </contour>
      <contour>
        <pt x="128" y="291" on="1"/>
        <pt x="347" y="291" on="1"/>
        <pt x="516" y="291" on="0"/>
        <pt x="516" y="485" on="1"/>
        <pt x="516" y="577" on="0"/>
        <pt x="436" y="666" on="0"/>
        <pt x="347" y="666" on="1"/>
        <pt x="128" y="666" on="1"/>
      </contour>
    </TTGlyph>
    <TTGlyph name="Q" xMin="65" yMin="-138" xMax="601" yMax="709">
      <contour>
        <pt x="443" y="5" on="1"/>
        <pt x="395" y="-9" on="0"/>
        <pt x="253" y="-9" on="0"/>
        <pt x="147" y="35" on="0"/>
        <pt x="88" y="130" on="0"/>
        <pt x="65" y="255" on="0"/>
        <pt x="65" y="347" on="1"/>
        <pt x="65" y="531" on="0"/>
        <pt x="181" y="709" on="0"/>
        <pt x="485" y="709" on="0"/>
        <pt x="601" y="532" on="0"/>
        <pt x="601" y="347" on="1"/>
        <pt x="601" y="210" on="0"/>
        <pt x="548" y="54" on="0"/>
        <pt x="480" y="19" on="1"/>
        <pt x="566" y="-121" on="1"/>
        <pt x="530" y="-138" on="1"/>
      </contour>
      <contour>
        <pt x="170" y="65" on="0"/>
        <pt x="262" y="25" on="0"/>
        <pt x="405" y="25" on="0"/>
        <pt x="496" y="62" on="0"/>
        <pt x="545" y="147" on="0"/>
        <pt x="563" y="259" on="0"/>
        <pt x="563" y="347" on="1"/>
        <pt x="563" y="515" on="0"/>
        <pt x="466" y="675" on="0"/>
        <pt x="333" y="675" on="1"/>
        <pt x="194" y="675" on="0"/>
        <pt x="146" y="588" on="1"/>
        <pt x="122" y="544" on="0"/>
        <pt x="103" y="431" on="0"/>
        <pt x="103" y="262" on="0"/>
        <pt x="121" y="152" on="0"/>
      </contour>
    </TTGlyph>
    <TTGlyph name="R" xMin="92" yMin="0" xMax="564" yMax="700">
      <contour>
        <pt x="128" y="290" on="1"/>
        <pt x="128" y="0" on="1"/>
        <pt x="92" y="0" on="1"/>
        <pt x="92" y="700" on="1"/>
        <pt x="343" y="700" on="1"/>
        <pt x="449" y="700" on="0"/>
        <pt x="551" y="604" on="0"/>
        <pt x="551" y="500" on="1"/>
        <pt x="551" y="323" on="0"/>
        <pt x="406" y="295" on="1"/>
        <pt x="564" y="0" on="1"/>
        <pt x="523" y="0" on="1"/>
        <pt x="367" y="290" on="1"/>
      </contour>
      <contour>
        <pt x="513" y="500" on="1"/>
        <pt x="513" y="587" on="0"/>
        <pt x="431" y="666" on="0"/>
        <pt x="343" y="666" on="1"/>
        <pt x="128" y="666" on="1"/>
        <pt x="128" y="324" on="1"/>
        <pt x="343" y="324" on="1"/>
        <pt x="513" y="324" on="0"/>
      </contour>
    </TTGlyph>
    <TTGlyph name="Racute" xMin="92" yMin="0" xMax="564" yMax="922">
      <contour>
        <pt x="128" y="290" on="1"/>
        <pt x="128" y="0" on="1"/>
        <pt x="92" y="0" on="1"/>
        <pt x="92" y="700" on="1"/>
        <pt x="343" y="700" on="1"/>
        <pt x="449" y="700" on="0"/>
        <pt x="551" y="604" on="0"/>
        <pt x="551" y="500" on="1"/>
        <pt x="551" y="323" on="0"/>
        <pt x="406" y="295" on="1"/>
        <pt x="564" y="0" on="1"/>
        <pt x="523" y="0" on="1"/>
        <pt x="367" y="290" on="1"/>
      </contour>
      <contour>
        <pt x="513" y="500" on="1"/>
        <pt x="513" y="587" on="0"/>
        <pt x="431" y="666" on="0"/>
        <pt x="343" y="666" on="1"/>
        <pt x="128" y="666" on="1"/>
        <pt x="128" y="324" on="1"/>
        <pt x="343" y="324" on="1"/>
        <pt x="513" y="324" on="0"/>
      </contour>
      <contour>
        <pt x="199" y="826" on="1"/>
        <pt x="391" y="922" on="1"/>
        <pt x="407" y="891" on="1"/>
        <pt x="214" y="799" on="1"/>
      </contour>
    </TTGlyph>
    <TTGlyph name="Rcaron" xMin="92" yMin="0" xMax="564" yMax="934">
      <contour>
        <pt x="128" y="290" on="1"/>
        <pt x="128" y="0" on="1"/>
        <pt x="92" y="0" on="1"/>
        <pt x="92" y="700" on="1"/>
        <pt x="343" y="700" on="1"/>
        <pt x="449" y="700" on="0"/>
        <pt x="551" y="604" on="0"/>
        <pt x="551" y="500" on="1"/>
        <pt x="551" y="323" on="0"/>
        <pt x="406" y="295" on="1"/>
        <pt x="564" y="0" on="1"/>
        <pt x="523" y="0" on="1"/>
        <pt x="367" y="290" on="1"/>
      </contour>
      <contour>
        <pt x="513" y="500" on="1"/>
        <pt x="513" y="587" on="0"/>
        <pt x="431" y="666" on="0"/>
        <pt x="343" y="666" on="1"/>
        <pt x="128" y="666" on="1"/>
        <pt x="128" y="324" on="1"/>
        <pt x="343" y="324" on="1"/>
        <pt x="513" y="324" on="0"/>
      </contour>
      <contour>
        <pt x="286" y="809" on="1"/>
        <pt x="152" y="934" on="1"/>
        <pt x="197" y="934" on="1"/>
        <pt x="301" y="838" on="1"/>
        <pt x="404" y="934" on="1"/>
        <pt x="450" y="934" on="1"/>
        <pt x="316" y="809" on="1"/>
      </contour>
    </TTGlyph>
    <TTGlyph name="Rcommaaccent" xMin="92" yMin="-267" xMax="564" yMax="700">
      <contour>
        <pt x="268" y="-267" on="1"/>
        <pt x="305" y="-78" on="1"/>
        <pt x="342" y="-78" on="1"/>
        <pt x="296" y="-267" on="1"/>
      </contour>
      <contour>
        <pt x="128" y="290" on="1"/>
        <pt x="128" y="0" on="1"/>
        <pt x="92" y="0" on="1"/>
        <pt x="92" y="700" on="1"/>
        <pt x="343" y="700" on="1"/>
        <pt x="449" y="700" on="0"/>
        <pt x="551" y="604" on="0"/>
        <pt x="551" y="500" on="1"/>
        <pt x="551" y="323" on="0"/>
        <pt x="406" y="295" on="1"/>
        <pt x="564" y="0" on="1"/>
        <pt x="523" y="0" on="1"/>
        <pt x="367" y="290" on="1"/>
      </contour>
      <contour>
        <pt x="513" y="500" on="1"/>
        <pt x="513" y="587" on="0"/>
        <pt x="431" y="666" on="0"/>
        <pt x="343" y="666" on="1"/>
        <pt x="128" y="666" on="1"/>
        <pt x="128" y="324" on="1"/>
        <pt x="343" y="324" on="1"/>
        <pt x="513" y="324" on="0"/>
      </contour>
    </TTGlyph>
    <TTGlyph name="S" xMin="56" yMin="-7" xMax="486" yMax="711">
      <contour>
        <pt x="272" y="677" on="1"/>
        <pt x="94" y="677" on="0"/>
        <pt x="94" y="537" on="1"/>
        <pt x="94" y="474" on="0"/>
        <pt x="115" y="446" on="1"/>
        <pt x="127" y="431" on="0"/>
        <pt x="153" y="410" on="0"/>
        <pt x="178" y="402" on="1"/>
        <pt x="219" y="390" on="0"/>
        <pt x="282" y="380" on="1"/>
        <pt x="391" y="363" on="0"/>
        <pt x="486" y="292" on="0"/>
        <pt x="486" y="203" on="1"/>
        <pt x="486" y="90" on="0"/>
        <pt x="381" y="-7" on="0"/>
        <pt x="274" y="-7" on="1"/>
        <pt x="208" y="-7" on="0"/>
        <pt x="97" y="5" on="1"/>
        <pt x="60" y="9" on="1"/>
        <pt x="64" y="44" on="1"/>
        <pt x="202" y="27" on="0"/>
        <pt x="282" y="27" on="1"/>
        <pt x="448" y="27" on="0"/>
        <pt x="448" y="200" on="1"/>
        <pt x="448" y="273" on="0"/>
        <pt x="372" y="329" on="0"/>
        <pt x="213" y="353" on="0"/>
        <pt x="146" y="372" on="0"/>
        <pt x="83" y="412" on="0"/>
        <pt x="56" y="481" on="0"/>
        <pt x="56" y="535" on="1"/>
        <pt x="56" y="711" on="0"/>
        <pt x="272" y="711" on="1"/>
        <pt x="341" y="711" on="0"/>
        <pt x="438" y="699" on="1"/>
        <pt x="471" y="695" on="1"/>
        <pt x="467" y="660" on="1"/>
        <pt x="330" y="677" on="0"/>
      </contour>
    </TTGlyph>
    <TTGlyph name="Sacute" xMin="56" yMin="-7" xMax="486" yMax="922">
      <contour>
        <pt x="272" y="677" on="1"/>
        <pt x="94" y="677" on="0"/>
        <pt x="94" y="537" on="1"/>
        <pt x="94" y="474" on="0"/>
        <pt x="115" y="446" on="1"/>
        <pt x="127" y="431" on="0"/>
        <pt x="153" y="410" on="0"/>
        <pt x="178" y="402" on="1"/>
        <pt x="219" y="390" on="0"/>
        <pt x="282" y="380" on="1"/>
        <pt x="391" y="363" on="0"/>
        <pt x="486" y="292" on="0"/>
        <pt x="486" y="203" on="1"/>
        <pt x="486" y="90" on="0"/>
        <pt x="381" y="-7" on="0"/>
        <pt x="274" y="-7" on="1"/>
        <pt x="208" y="-7" on="0"/>
        <pt x="97" y="5" on="1"/>
        <pt x="60" y="9" on="1"/>
        <pt x="64" y="44" on="1"/>
        <pt x="202" y="27" on="0"/>
        <pt x="282" y="27" on="1"/>
        <pt x="448" y="27" on="0"/>
        <pt x="448" y="200" on="1"/>
        <pt x="448" y="273" on="0"/>
        <pt x="372" y="329" on="0"/>
        <pt x="213" y="353" on="0"/>
        <pt x="146" y="372" on="0"/>
        <pt x="83" y="412" on="0"/>
        <pt x="56" y="481" on="0"/>
        <pt x="56" y="535" on="1"/>
        <pt x="56" y="711" on="0"/>
        <pt x="272" y="711" on="1"/>
        <pt x="341" y="711" on="0"/>
        <pt x="438" y="699" on="1"/>
        <pt x="471" y="695" on="1"/>
        <pt x="467" y="660" on="1"/>
        <pt x="330" y="677" on="0"/>
      </contour>
      <contour>
        <pt x="177" y="826" on="1"/>
        <pt x="369" y="922" on="1"/>
        <pt x="385" y="891" on="1"/>
        <pt x="192" y="799" on="1"/>
      </contour>
    </TTGlyph>
    <TTGlyph name="Scaron" xMin="56" yMin="-7" xMax="486" yMax="934">
      <contour>
        <pt x="272" y="677" on="1"/>
        <pt x="94" y="677" on="0"/>
        <pt x="94" y="537" on="1"/>
        <pt x="94" y="474" on="0"/>
        <pt x="115" y="446" on="1"/>
        <pt x="127" y="431" on="0"/>
        <pt x="153" y="410" on="0"/>
        <pt x="178" y="402" on="1"/>
        <pt x="219" y="390" on="0"/>
        <pt x="282" y="380" on="1"/>
        <pt x="391" y="363" on="0"/>
        <pt x="486" y="292" on="0"/>
        <pt x="486" y="203" on="1"/>
        <pt x="486" y="90" on="0"/>
        <pt x="381" y="-7" on="0"/>
        <pt x="274" y="-7" on="1"/>
        <pt x="208" y="-7" on="0"/>
        <pt x="97" y="5" on="1"/>
        <pt x="60" y="9" on="1"/>
        <pt x="64" y="44" on="1"/>
        <pt x="202" y="27" on="0"/>
        <pt x="282" y="27" on="1"/>
        <pt x="448" y="27" on="0"/>
        <pt x="448" y="200" on="1"/>
        <pt x="448" y="273" on="0"/>
        <pt x="372" y="329" on="0"/>
        <pt x="213" y="353" on="0"/>
        <pt x="146" y="372" on="0"/>
        <pt x="83" y="412" on="0"/>
        <pt x="56" y="481" on="0"/>
        <pt x="56" y="535" on="1"/>
        <pt x="56" y="711" on="0"/>
        <pt x="272" y="711" on="1"/>
        <pt x="341" y="711" on="0"/>
        <pt x="438" y="699" on="1"/>
        <pt x="471" y="695" on="1"/>
        <pt x="467" y="660" on="1"/>
        <pt x="330" y="677" on="0"/>
      </contour>
      <contour>
        <pt x="260" y="809" on="1"/>
        <pt x="126" y="934" on="1"/>
        <pt x="171" y="934" on="1"/>
        <pt x="275" y="838" on="1"/>
        <pt x="378" y="934" on="1"/>
        <pt x="424" y="934" on="1"/>
        <pt x="290" y="809" on="1"/>
      </contour>
    </TTGlyph>
    <TTGlyph name="Scedilla" xMin="56" yMin="-201" xMax="486" yMax="711">
      <contour>
        <pt x="395" y="-127" on="1"/>
        <pt x="395" y="-201" on="0"/>
        <pt x="313" y="-201" on="1"/>
        <pt x="232" y="-197" on="1"/>
        <pt x="234" y="-169" on="1"/>
        <pt x="278" y="-173" on="0"/>
        <pt x="312" y="-173" on="1"/>
        <pt x="360" y="-173" on="0"/>
        <pt x="360" y="-127" on="1"/>
        <pt x="360" y="-85" on="0"/>
        <pt x="312" y="-85" on="1"/>
        <pt x="258" y="-85" on="1"/>
        <pt x="258" y="-7" on="1"/>
        <pt x="190" y="-5" on="0"/>
        <pt x="92" y="6" on="1"/>
        <pt x="60" y="9" on="1"/>
        <pt x="64" y="44" on="1"/>
        <pt x="202" y="27" on="0"/>
        <pt x="282" y="27" on="1"/>
        <pt x="448" y="27" on="0"/>
        <pt x="448" y="200" on="1"/>
        <pt x="448" y="273" on="0"/>
        <pt x="372" y="329" on="0"/>
        <pt x="213" y="353" on="0"/>
        <pt x="146" y="372" on="0"/>
        <pt x="83" y="412" on="0"/>
        <pt x="56" y="481" on="0"/>
        <pt x="56" y="535" on="1"/>
        <pt x="56" y="711" on="0"/>
        <pt x="272" y="711" on="1"/>
        <pt x="341" y="711" on="0"/>
        <pt x="438" y="699" on="1"/>
        <pt x="471" y="695" on="1"/>
        <pt x="467" y="660" on="1"/>
        <pt x="330" y="677" on="0"/>
        <pt x="272" y="677" on="1"/>
        <pt x="94" y="677" on="0"/>
        <pt x="94" y="537" on="1"/>
        <pt x="94" y="474" on="0"/>
        <pt x="115" y="446" on="1"/>
        <pt x="127" y="431" on="0"/>
        <pt x="153" y="410" on="0"/>
        <pt x="178" y="402" on="1"/>
        <pt x="219" y="390" on="0"/>
        <pt x="282" y="380" on="1"/>
        <pt x="391" y="363" on="0"/>
        <pt x="486" y="292" on="0"/>
        <pt x="486" y="94" on="0"/>
        <pt x="390" y="-3" on="0"/>
        <pt x="291" y="-6" on="1"/>
        <pt x="291" y="-57" on="1"/>
        <pt x="347" y="-57" on="0"/>
        <pt x="395" y="-87" on="0"/>
      </contour>
    </TTGlyph>
    <TTGlyph name="Scircumflex" xMin="56" yMin="-7" xMax="486" yMax="929">
      <contour>
        <pt x="272" y="677" on="1"/>
        <pt x="94" y="677" on="0"/>
        <pt x="94" y="537" on="1"/>
        <pt x="94" y="474" on="0"/>
        <pt x="115" y="446" on="1"/>
        <pt x="127" y="431" on="0"/>
        <pt x="153" y="410" on="0"/>
        <pt x="178" y="402" on="1"/>
        <pt x="219" y="390" on="0"/>
        <pt x="282" y="380" on="1"/>
        <pt x="391" y="363" on="0"/>
        <pt x="486" y="292" on="0"/>
        <pt x="486" y="203" on="1"/>
        <pt x="486" y="90" on="0"/>
        <pt x="381" y="-7" on="0"/>
        <pt x="274" y="-7" on="1"/>
        <pt x="208" y="-7" on="0"/>
        <pt x="97" y="5" on="1"/>
        <pt x="60" y="9" on="1"/>
        <pt x="64" y="44" on="1"/>
        <pt x="202" y="27" on="0"/>
        <pt x="282" y="27" on="1"/>
        <pt x="448" y="27" on="0"/>
        <pt x="448" y="200" on="1"/>
        <pt x="448" y="273" on="0"/>
        <pt x="372" y="329" on="0"/>
        <pt x="213" y="353" on="0"/>
        <pt x="146" y="372" on="0"/>
        <pt x="83" y="412" on="0"/>
        <pt x="56" y="481" on="0"/>
        <pt x="56" y="535" on="1"/>
        <pt x="56" y="711" on="0"/>
        <pt x="272" y="711" on="1"/>
        <pt x="341" y="711" on="0"/>
        <pt x="438" y="699" on="1"/>
        <pt x="471" y="695" on="1"/>
        <pt x="467" y="660" on="1"/>
        <pt x="330" y="677" on="0"/>
      </contour>
      <contour>
        <pt x="124" y="804" on="1"/>
        <pt x="258" y="929" on="1"/>
        <pt x="288" y="929" on="1"/>
        <pt x="422" y="804" on="1"/>
        <pt x="377" y="804" on="1"/>
        <pt x="273" y="900" on="1"/>
        <pt x="170" y="804" on="1"/>
      </contour>
    </TTGlyph>
    <TTGlyph name="Scommaaccent" xMin="56" yMin="-267" xMax="486" yMax="711">
      <contour>
        <pt x="272" y="-78" on="1"/>
        <pt x="309" y="-78" on="1"/>
        <pt x="263" y="-267" on="1"/>
        <pt x="235" y="-267" on="1"/>
      </contour>
      <contour>
        <pt x="272" y="677" on="1"/>
        <pt x="94" y="677" on="0"/>
        <pt x="94" y="537" on="1"/>
        <pt x="94" y="474" on="0"/>
        <pt x="115" y="446" on="1"/>
        <pt x="127" y="431" on="0"/>
        <pt x="153" y="410" on="0"/>
        <pt x="178" y="402" on="1"/>
        <pt x="219" y="390" on="0"/>
        <pt x="282" y="380" on="1"/>
        <pt x="391" y="363" on="0"/>
        <pt x="486" y="292" on="0"/>
        <pt x="486" y="203" on="1"/>
        <pt x="486" y="90" on="0"/>
        <pt x="381" y="-7" on="0"/>
        <pt x="274" y="-7" on="1"/>
        <pt x="208" y="-7" on="0"/>
        <pt x="97" y="5" on="1"/>
        <pt x="60" y="9" on="1"/>
        <pt x="64" y="44" on="1"/>
        <pt x="202" y="27" on="0"/>
        <pt x="282" y="27" on="1"/>
        <pt x="448" y="27" on="0"/>
        <pt x="448" y="200" on="1"/>
        <pt x="448" y="273" on="0"/>
        <pt x="372" y="329" on="0"/>
        <pt x="213" y="353" on="0"/>
        <pt x="146" y="372" on="0"/>
        <pt x="83" y="412" on="0"/>
        <pt x="56" y="481" on="0"/>
        <pt x="56" y="535" on="1"/>
        <pt x="56" y="711" on="0"/>
        <pt x="272" y="711" on="1"/>
        <pt x="341" y="711" on="0"/>
        <pt x="438" y="699" on="1"/>
        <pt x="471" y="695" on="1"/>
        <pt x="467" y="660" on="1"/>
        <pt x="330" y="677" on="0"/>
      </contour>
    </TTGlyph>
    <TTGlyph name="T" xMin="13" yMin="0" xMax="513" yMax="700">
      <contour>
        <pt x="13" y="666" on="1"/>
        <pt x="13" y="700" on="1"/>
        <pt x="513" y="700" on="1"/>
        <pt x="513" y="666" on="1"/>
        <pt x="282" y="666" on="1"/>
        <pt x="282" y="0" on="1"/>
        <pt x="246" y="0" on="1"/>
        <pt x="246" y="666" on="1"/>
      </contour>
    </TTGlyph>
    <TTGlyph name="Tbar" xMin="15" yMin="0" xMax="515" yMax="700">
      <contour>
        <pt x="15" y="666" on="1"/>
        <pt x="15" y="700" on="1"/>
        <pt x="515" y="700" on="1"/>
        <pt x="515" y="666" on="1"/>
        <pt x="284" y="666" on="1"/>
        <pt x="284" y="364" on="1"/>
        <pt x="465" y="364" on="1"/>
        <pt x="465" y="332" on="1"/>
        <pt x="284" y="332" on="1"/>
        <pt x="284" y="0" on="1"/>
        <pt x="248" y="0" on="1"/>
        <pt x="248" y="332" on="1"/>
        <pt x="65" y="332" on="1"/>
        <pt x="65" y="364" on="1"/>
        <pt x="248" y="364" on="1"/>
        <pt x="248" y="666" on="1"/>
      </contour>
    </TTGlyph>
    <TTGlyph name="Tcaron" xMin="13" yMin="0" xMax="513" yMax="934">
      <contour>
        <pt x="13" y="666" on="1"/>
        <pt x="13" y="700" on="1"/>
        <pt x="513" y="700" on="1"/>
        <pt x="513" y="666" on="1"/>
        <pt x="282" y="666" on="1"/>
        <pt x="282" y="0" on="1"/>
        <pt x="246" y="0" on="1"/>
        <pt x="246" y="666" on="1"/>
      </contour>
      <contour>
        <pt x="249" y="809" on="1"/>
        <pt x="115" y="934" on="1"/>
        <pt x="160" y="934" on="1"/>
        <pt x="264" y="838" on="1"/>
        <pt x="367" y="934" on="1"/>
        <pt x="413" y="934" on="1"/>
        <pt x="279" y="809" on="1"/>
      </contour>
    </TTGlyph>
    <TTGlyph name="Tcommaaccent" xMin="13" yMin="-267" xMax="513" yMax="700">
      <contour>
        <pt x="262" y="-78" on="1"/>
        <pt x="299" y="-78" on="1"/>
        <pt x="253" y="-267" on="1"/>
        <pt x="225" y="-267" on="1"/>
      </contour>
      <contour>
        <pt x="13" y="666" on="1"/>
        <pt x="13" y="700" on="1"/>
        <pt x="513" y="700" on="1"/>
        <pt x="513" y="666" on="1"/>
        <pt x="282" y="666" on="1"/>
        <pt x="282" y="0" on="1"/>
        <pt x="246" y="0" on="1"/>
        <pt x="246" y="666" on="1"/>
      </contour>
    </TTGlyph>
    <TTGlyph name="Thorn" xMin="92" yMin="0" xMax="554" yMax="700">
      <contour>
        <pt x="347" y="169" on="1"/>
        <pt x="516" y="169" on="0"/>
        <pt x="516" y="367" on="1"/>
        <pt x="516" y="459" on="0"/>
        <pt x="437" y="544" on="0"/>
        <pt x="347" y="544" on="1"/>
        <pt x="128" y="544" on="1"/>
        <pt x="128" y="169" on="1"/>
      </contour>
      <contour>
        <pt x="347" y="135" on="1"/>
        <pt x="128" y="135" on="1"/>
        <pt x="128" y="0" on="1"/>
        <pt x="92" y="0" on="1"/>
        <pt x="92" y="700" on="1"/>
        <pt x="128" y="700" on="1"/>
        <pt x="128" y="578" on="1"/>
        <pt x="347" y="578" on="1"/>
        <pt x="455" y="578" on="0"/>
        <pt x="554" y="476" on="0"/>
        <pt x="554" y="367" on="1"/>
        <pt x="554" y="135" on="0"/>
      </contour>
    </TTGlyph>
    <TTGlyph name="U" xMin="88" yMin="-9" xMax="550" yMax="700">
      <contour>
        <pt x="124" y="196" on="1"/>
        <pt x="124" y="105" on="0"/>
        <pt x="222" y="25" on="0"/>
        <pt x="413" y="25" on="0"/>
        <pt x="514" y="104" on="0"/>
        <pt x="514" y="196" on="1"/>
        <pt x="514" y="700" on="1"/>
        <pt x="550" y="700" on="1"/>
        <pt x="550" y="196" on="1"/>
        <pt x="550" y="87" on="0"/>
        <pt x="431" y="-9" on="0"/>
        <pt x="204" y="-9" on="0"/>
        <pt x="88" y="87" on="0"/>
        <pt x="88" y="196" on="1"/>
        <pt x="88" y="700" on="1"/>
        <pt x="124" y="700" on="1"/>
      </contour>
    </TTGlyph>
    <TTGlyph name="Uacute" xMin="88" yMin="-9" xMax="550" yMax="922">
      <contour>
        <pt x="124" y="196" on="1"/>
        <pt x="124" y="105" on="0"/>
        <pt x="222" y="25" on="0"/>
        <pt x="413" y="25" on="0"/>
        <pt x="514" y="104" on="0"/>
        <pt x="514" y="196" on="1"/>
        <pt x="514" y="700" on="1"/>
        <pt x="550" y="700" on="1"/>
        <pt x="550" y="196" on="1"/>
        <pt x="550" y="87" on="0"/>
        <pt x="431" y="-9" on="0"/>
        <pt x="204" y="-9" on="0"/>
        <pt x="88" y="87" on="0"/>
        <pt x="88" y="196" on="1"/>
        <pt x="88" y="700" on="1"/>
        <pt x="124" y="700" on="1"/>
      </contour>
      <contour>
        <pt x="215" y="826" on="1"/>
        <pt x="407" y="922" on="1"/>
        <pt x="423" y="891" on="1"/>
        <pt x="230" y="799" on="1"/>
      </contour>
    </TTGlyph>
    <TTGlyph name="Ubreve" xMin="88" yMin="-9" xMax="550" yMax="924">
      <contour>
        <pt x="124" y="196" on="1"/>
        <pt x="124" y="105" on="0"/>
        <pt x="222" y="25" on="0"/>
        <pt x="413" y="25" on="0"/>
        <pt x="514" y="104" on="0"/>
        <pt x="514" y="196" on="1"/>
        <pt x="514" y="700" on="1"/>
        <pt x="550" y="700" on="1"/>
        <pt x="550" y="196" on="1"/>
        <pt x="550" y="87" on="0"/>
        <pt x="431" y="-9" on="0"/>
        <pt x="204" y="-9" on="0"/>
        <pt x="88" y="87" on="0"/>
        <pt x="88" y="196" on="1"/>
        <pt x="88" y="700" on="1"/>
        <pt x="124" y="700" on="1"/>
      </contour>
      <contour>
        <pt x="181" y="924" on="1"/>
        <pt x="216" y="924" on="1"/>
        <pt x="216" y="884" on="0"/>
        <pt x="276" y="837" on="0"/>
        <pt x="362" y="837" on="0"/>
        <pt x="422" y="884" on="0"/>
        <pt x="422" y="924" on="1"/>
        <pt x="457" y="924" on="1"/>
        <pt x="457" y="870" on="0"/>
        <pt x="377" y="805" on="0"/>
        <pt x="261" y="805" on="0"/>
        <pt x="181" y="870" on="0"/>
      </contour>
    </TTGlyph>
    <TTGlyph name="Ucircumflex" xMin="88" yMin="-9" xMax="550" yMax="934">
      <contour>
        <pt x="124" y="196" on="1"/>
        <pt x="124" y="105" on="0"/>
        <pt x="222" y="25" on="0"/>
        <pt x="413" y="25" on="0"/>
        <pt x="514" y="104" on="0"/>
        <pt x="514" y="196" on="1"/>
        <pt x="514" y="700" on="1"/>
        <pt x="550" y="700" on="1"/>
        <pt x="550" y="196" on="1"/>
        <pt x="550" y="87" on="0"/>
        <pt x="431" y="-9" on="0"/>
        <pt x="204" y="-9" on="0"/>
        <pt x="88" y="87" on="0"/>
        <pt x="88" y="196" on="1"/>
        <pt x="88" y="700" on="1"/>
        <pt x="124" y="700" on="1"/>
      </contour>
      <contour>
        <pt x="169" y="809" on="1"/>
        <pt x="303" y="934" on="1"/>
        <pt x="333" y="934" on="1"/>
        <pt x="467" y="809" on="1"/>
        <pt x="422" y="809" on="1"/>
        <pt x="318" y="905" on="1"/>
        <pt x="215" y="809" on="1"/>
      </contour>
    </TTGlyph>
    <TTGlyph name="Udieresis" xMin="88" yMin="-9" xMax="550" yMax="900">
      <contour>
        <pt x="124" y="196" on="1"/>
        <pt x="124" y="105" on="0"/>
        <pt x="222" y="25" on="0"/>
        <pt x="413" y="25" on="0"/>
        <pt x="514" y="104" on="0"/>
        <pt x="514" y="196" on="1"/>
        <pt x="514" y="700" on="1"/>
        <pt x="550" y="700" on="1"/>
        <pt x="550" y="196" on="1"/>
        <pt x="550" y="87" on="0"/>
        <pt x="431" y="-9" on="0"/>
        <pt x="204" y="-9" on="0"/>
        <pt x="88" y="87" on="0"/>
        <pt x="88" y="196" on="1"/>
        <pt x="88" y="700" on="1"/>
        <pt x="124" y="700" on="1"/>
      </contour>
      <contour>
        <pt x="204" y="838" on="1"/>
        <pt x="204" y="900" on="1"/>
        <pt x="239" y="900" on="1"/>
        <pt x="239" y="838" on="1"/>
      </contour>
      <contour>
        <pt x="400" y="838" on="1"/>
        <pt x="400" y="900" on="1"/>
        <pt x="435" y="900" on="1"/>
        <pt x="435" y="838" on="1"/>
      </contour>
    </TTGlyph>
    <TTGlyph name="Ugrave" xMin="88" yMin="-9" xMax="550" yMax="922">
      <contour>
        <pt x="124" y="196" on="1"/>
        <pt x="124" y="105" on="0"/>
        <pt x="222" y="25" on="0"/>
        <pt x="413" y="25" on="0"/>
        <pt x="514" y="104" on="0"/>
        <pt x="514" y="196" on="1"/>
        <pt x="514" y="700" on="1"/>
        <pt x="550" y="700" on="1"/>
        <pt x="550" y="196" on="1"/>
        <pt x="550" y="87" on="0"/>
        <pt x="431" y="-9" on="0"/>
        <pt x="204" y="-9" on="0"/>
        <pt x="88" y="87" on="0"/>
        <pt x="88" y="196" on="1"/>
        <pt x="88" y="700" on="1"/>
        <pt x="124" y="700" on="1"/>
      </contour>
      <contour>
        <pt x="226" y="922" on="1"/>
        <pt x="418" y="826" on="1"/>
        <pt x="403" y="799" on="1"/>
        <pt x="210" y="891" on="1"/>
      </contour>
    </TTGlyph>
    <TTGlyph name="Uhungarumlaut" xMin="88" yMin="-9" xMax="553" yMax="879">
      <contour>
        <pt x="124" y="196" on="1"/>
        <pt x="124" y="105" on="0"/>
        <pt x="222" y="25" on="0"/>
        <pt x="413" y="25" on="0"/>
        <pt x="514" y="104" on="0"/>
        <pt x="514" y="196" on="1"/>
        <pt x="514" y="700" on="1"/>
        <pt x="550" y="700" on="1"/>
        <pt x="550" y="196" on="1"/>
        <pt x="550" y="87" on="0"/>
        <pt x="431" y="-9" on="0"/>
        <pt x="204" y="-9" on="0"/>
        <pt x="88" y="87" on="0"/>
        <pt x="88" y="196" on="1"/>
        <pt x="88" y="700" on="1"/>
        <pt x="124" y="700" on="1"/>
      </contour>
      <contour>
        <pt x="347" y="791" on="1"/>
        <pt x="538" y="878" on="1"/>
        <pt x="553" y="849" on="1"/>
        <pt x="361" y="761" on="1"/>
      </contour>
      <contour>
        <pt x="156" y="791" on="1"/>
        <pt x="348" y="879" on="1"/>
        <pt x="362" y="849" on="1"/>
        <pt x="171" y="762" on="1"/>
      </contour>
    </TTGlyph>
    <TTGlyph name="Umacron" xMin="88" yMin="-9" xMax="550" yMax="864">
      <contour>
        <pt x="124" y="196" on="1"/>
        <pt x="124" y="105" on="0"/>
        <pt x="222" y="25" on="0"/>
        <pt x="413" y="25" on="0"/>
        <pt x="514" y="104" on="0"/>
        <pt x="514" y="196" on="1"/>
        <pt x="514" y="700" on="1"/>
        <pt x="550" y="700" on="1"/>
        <pt x="550" y="196" on="1"/>
        <pt x="550" y="87" on="0"/>
        <pt x="431" y="-9" on="0"/>
        <pt x="204" y="-9" on="0"/>
        <pt x="88" y="87" on="0"/>
        <pt x="88" y="196" on="1"/>
        <pt x="88" y="700" on="1"/>
        <pt x="124" y="700" on="1"/>
      </contour>
      <contour>
        <pt x="176" y="832" on="1"/>
        <pt x="176" y="864" on="1"/>
        <pt x="463" y="864" on="1"/>
        <pt x="463" y="832" on="1"/>
      </contour>
    </TTGlyph>
    <TTGlyph name="Uogonek" xMin="87" yMin="-200" xMax="549" yMax="700">
      <contour>
        <pt x="123" y="196" on="1"/>
        <pt x="123" y="105" on="0"/>
        <pt x="221" y="25" on="0"/>
        <pt x="412" y="25" on="0"/>
        <pt x="513" y="104" on="0"/>
        <pt x="513" y="196" on="1"/>
        <pt x="513" y="700" on="1"/>
        <pt x="549" y="700" on="1"/>
        <pt x="549" y="196" on="1"/>
        <pt x="549" y="34" on="0"/>
        <pt x="409" y="1" on="1"/>
        <pt x="328" y="-84" on="0"/>
        <pt x="328" y="-116" on="1"/>
        <pt x="328" y="-137" on="0"/>
        <pt x="354" y="-166" on="0"/>
        <pt x="375" y="-166" on="1"/>
        <pt x="431" y="-159" on="1"/>
        <pt x="435" y="-192" on="1"/>
        <pt x="399" y="-200" on="0"/>
        <pt x="336" y="-200" on="0"/>
        <pt x="291" y="-156" on="0"/>
        <pt x="291" y="-77" on="0"/>
        <pt x="361" y="-7" on="1"/>
        <pt x="331" y="-9" on="0"/>
        <pt x="313" y="-9" on="1"/>
        <pt x="203" y="-9" on="0"/>
        <pt x="87" y="87" on="0"/>
        <pt x="87" y="196" on="1"/>
        <pt x="87" y="700" on="1"/>
        <pt x="123" y="700" on="1"/>
      </contour>
    </TTGlyph>
    <TTGlyph name="Uring" xMin="88" yMin="-9" xMax="550" yMax="942">
      <contour>
        <pt x="124" y="196" on="1"/>
        <pt x="124" y="105" on="0"/>
        <pt x="222" y="25" on="0"/>
        <pt x="413" y="25" on="0"/>
        <pt x="514" y="104" on="0"/>
        <pt x="514" y="196" on="1"/>
        <pt x="514" y="700" on="1"/>
        <pt x="550" y="700" on="1"/>
        <pt x="550" y="196" on="1"/>
        <pt x="550" y="87" on="0"/>
        <pt x="431" y="-9" on="0"/>
        <pt x="204" y="-9" on="0"/>
        <pt x="88" y="87" on="0"/>
        <pt x="88" y="196" on="1"/>
        <pt x="88" y="700" on="1"/>
        <pt x="124" y="700" on="1"/>
      </contour>
      <contour>
        <pt x="416" y="893" on="0"/>
        <pt x="416" y="807" on="0"/>
        <pt x="363" y="758" on="0"/>
        <pt x="275" y="758" on="0"/>
        <pt x="222" y="807" on="0"/>
        <pt x="222" y="893" on="0"/>
        <pt x="275" y="942" on="0"/>
        <pt x="363" y="942" on="0"/>
      </contour>
      <contour>
        <pt x="255" y="880" on="0"/>
        <pt x="255" y="820" on="0"/>
        <pt x="289" y="788" on="0"/>
        <pt x="349" y="788" on="0"/>
        <pt x="383" y="820" on="0"/>
        <pt x="383" y="880" on="0"/>
        <pt x="349" y="912" on="0"/>
        <pt x="289" y="912" on="0"/>
      </contour>
    </TTGlyph>
    <TTGlyph name="Utilde" xMin="88" yMin="-9" xMax="550" yMax="924">
      <contour>
        <pt x="124" y="196" on="1"/>
        <pt x="124" y="105" on="0"/>
        <pt x="222" y="25" on="0"/>
        <pt x="413" y="25" on="0"/>
        <pt x="514" y="104" on="0"/>
        <pt x="514" y="196" on="1"/>
        <pt x="514" y="700" on="1"/>
        <pt x="550" y="700" on="1"/>
        <pt x="550" y="196" on="1"/>
        <pt x="550" y="87" on="0"/>
        <pt x="431" y="-9" on="0"/>
        <pt x="204" y="-9" on="0"/>
        <pt x="88" y="87" on="0"/>
        <pt x="88" y="196" on="1"/>
        <pt x="88" y="700" on="1"/>
        <pt x="124" y="700" on="1"/>
      </contour>
      <contour>
        <pt x="475" y="885" on="1"/>
        <pt x="436" y="833" on="0"/>
        <pt x="382" y="833" on="0"/>
        <pt x="261" y="893" on="0"/>
        <pt x="249" y="893" on="1"/>
        <pt x="227" y="893" on="0"/>
        <pt x="191" y="854" on="1"/>
        <pt x="179" y="841" on="1"/>
        <pt x="169" y="870" on="1"/>
        <pt x="213" y="924" on="0"/>
        <pt x="246" y="924" on="1"/>
        <pt x="269" y="924" on="0"/>
        <pt x="390" y="865" on="0"/>
        <pt x="402" y="865" on="1"/>
        <pt x="420" y="865" on="0"/>
        <pt x="453" y="901" on="1"/>
        <pt x="464" y="913" on="1"/>
      </contour>
    </TTGlyph>
    <TTGlyph name="V" xMin="30" yMin="0" xMax="538" yMax="700">
      <contour>
        <pt x="502" y="700" on="1"/>
        <pt x="538" y="700" on="1"/>
        <pt x="342" y="0" on="1"/>
        <pt x="226" y="0" on="1"/>
        <pt x="30" y="700" on="1"/>
        <pt x="66" y="700" on="1"/>
        <pt x="252" y="34" on="1"/>
        <pt x="316" y="34" on="1"/>
      </contour>
    </TTGlyph>
    <TTGlyph name="W" xMin="38" yMin="0" xMax="818" yMax="700">
      <contour>
        <pt x="38" y="700" on="1"/>
        <pt x="74" y="700" on="1"/>
        <pt x="214" y="34" on="1"/>
        <pt x="253" y="34" on="1"/>
        <pt x="406" y="690" on="1"/>
        <pt x="450" y="690" on="1"/>
        <pt x="603" y="34" on="1"/>
        <pt x="642" y="34" on="1"/>
        <pt x="782" y="700" on="1"/>
        <pt x="818" y="700" on="1"/>
        <pt x="671" y="0" on="1"/>
        <pt x="575" y="0" on="1"/>
        <pt x="428" y="641" on="1"/>
        <pt x="281" y="0" on="1"/>
        <pt x="185" y="0" on="1"/>
      </contour>
    </TTGlyph>
    <TTGlyph name="Wacute" xMin="38" yMin="0" xMax="818" yMax="922">
      <contour>
        <pt x="38" y="700" on="1"/>
        <pt x="74" y="700" on="1"/>
        <pt x="214" y="34" on="1"/>
        <pt x="253" y="34" on="1"/>
        <pt x="406" y="690" on="1"/>
        <pt x="450" y="690" on="1"/>
        <pt x="603" y="34" on="1"/>
        <pt x="642" y="34" on="1"/>
        <pt x="782" y="700" on="1"/>
        <pt x="818" y="700" on="1"/>
        <pt x="671" y="0" on="1"/>
        <pt x="575" y="0" on="1"/>
        <pt x="428" y="641" on="1"/>
        <pt x="281" y="0" on="1"/>
        <pt x="185" y="0" on="1"/>
      </contour>
      <contour>
        <pt x="334" y="826" on="1"/>
        <pt x="526" y="922" on="1"/>
        <pt x="542" y="891" on="1"/>
        <pt x="349" y="799" on="1"/>
      </contour>
    </TTGlyph>
    <TTGlyph name="Wcircumflex" xMin="38" yMin="0" xMax="818" yMax="929">
      <contour>
        <pt x="38" y="700" on="1"/>
        <pt x="74" y="700" on="1"/>
        <pt x="214" y="34" on="1"/>
        <pt x="253" y="34" on="1"/>
        <pt x="406" y="690" on="1"/>
        <pt x="450" y="690" on="1"/>
        <pt x="603" y="34" on="1"/>
        <pt x="642" y="34" on="1"/>
        <pt x="782" y="700" on="1"/>
        <pt x="818" y="700" on="1"/>
        <pt x="671" y="0" on="1"/>
        <pt x="575" y="0" on="1"/>
        <pt x="428" y="641" on="1"/>
        <pt x="281" y="0" on="1"/>
        <pt x="185" y="0" on="1"/>
      </contour>
      <contour>
        <pt x="279" y="804" on="1"/>
        <pt x="413" y="929" on="1"/>
        <pt x="443" y="929" on="1"/>
        <pt x="577" y="804" on="1"/>
        <pt x="532" y="804" on="1"/>
        <pt x="428" y="900" on="1"/>
        <pt x="325" y="804" on="1"/>
      </contour>
    </TTGlyph>
    <TTGlyph name="Wdieresis" xMin="38" yMin="0" xMax="818" yMax="900">
      <contour>
        <pt x="38" y="700" on="1"/>
        <pt x="74" y="700" on="1"/>
        <pt x="214" y="34" on="1"/>
        <pt x="253" y="34" on="1"/>
        <pt x="406" y="690" on="1"/>
        <pt x="450" y="690" on="1"/>
        <pt x="603" y="34" on="1"/>
        <pt x="642" y="34" on="1"/>
        <pt x="782" y="700" on="1"/>
        <pt x="818" y="700" on="1"/>
        <pt x="671" y="0" on="1"/>
        <pt x="575" y="0" on="1"/>
        <pt x="428" y="641" on="1"/>
        <pt x="281" y="0" on="1"/>
        <pt x="185" y="0" on="1"/>
      </contour>
      <contour>
        <pt x="313" y="838" on="1"/>
        <pt x="313" y="900" on="1"/>
        <pt x="348" y="900" on="1"/>
        <pt x="348" y="838" on="1"/>
      </contour>
      <contour>
        <pt x="509" y="838" on="1"/>
        <pt x="509" y="900" on="1"/>
        <pt x="544" y="900" on="1"/>
        <pt x="544" y="838" on="1"/>
      </contour>
    </TTGlyph>
    <TTGlyph name="Wgrave" xMin="38" yMin="0" xMax="818" yMax="922">
      <contour>
        <pt x="38" y="700" on="1"/>
        <pt x="74" y="700" on="1"/>
        <pt x="214" y="34" on="1"/>
        <pt x="253" y="34" on="1"/>
        <pt x="406" y="690" on="1"/>
        <pt x="450" y="690" on="1"/>
        <pt x="603" y="34" on="1"/>
        <pt x="642" y="34" on="1"/>
        <pt x="782" y="700" on="1"/>
        <pt x="818" y="700" on="1"/>
        <pt x="671" y="0" on="1"/>
        <pt x="575" y="0" on="1"/>
        <pt x="428" y="641" on="1"/>
        <pt x="281" y="0" on="1"/>
        <pt x="185" y="0" on="1"/>
      </contour>
      <contour>
        <pt x="330" y="922" on="1"/>
        <pt x="522" y="826" on="1"/>
        <pt x="507" y="799" on="1"/>
        <pt x="314" y="891" on="1"/>
      </contour>
    </TTGlyph>
    <TTGlyph name="X" xMin="25" yMin="0" xMax="526" yMax="700">
      <contour>
        <pt x="68" y="700" on="1"/>
        <pt x="276" y="374" on="1"/>
        <pt x="483" y="700" on="1"/>
        <pt x="526" y="700" on="1"/>
        <pt x="303" y="347" on="1"/>
        <pt x="526" y="0" on="1"/>
        <pt x="483" y="0" on="1"/>
        <pt x="277" y="322" on="1"/>
        <pt x="68" y="0" on="1"/>
        <pt x="25" y="0" on="1"/>
        <pt x="251" y="347" on="1"/>
        <pt x="25" y="700" on="1"/>
      </contour>
    </TTGlyph>
    <TTGlyph name="Y" xMin="17" yMin="0" xMax="509" yMax="700">
      <contour>
        <pt x="281" y="0" on="1"/>
        <pt x="245" y="0" on="1"/>
        <pt x="245" y="301" on="1"/>
        <pt x="17" y="700" on="1"/>
        <pt x="59" y="700" on="1"/>
        <pt x="263" y="341" on="1"/>
        <pt x="467" y="700" on="1"/>
        <pt x="509" y="700" on="1"/>
        <pt x="281" y="301" on="1"/>
      </contour>
    </TTGlyph>
    <TTGlyph name="Yacute" xMin="17" yMin="0" xMax="509" yMax="922">
      <contour>
        <pt x="281" y="0" on="1"/>
        <pt x="245" y="0" on="1"/>
        <pt x="245" y="301" on="1"/>
        <pt x="17" y="700" on="1"/>
        <pt x="59" y="700" on="1"/>
        <pt x="263" y="341" on="1"/>
        <pt x="467" y="700" on="1"/>
        <pt x="509" y="700" on="1"/>
        <pt x="281" y="301" on="1"/>
      </contour>
      <contour>
        <pt x="190" y="826" on="1"/>
        <pt x="382" y="922" on="1"/>
        <pt x="398" y="891" on="1"/>
        <pt x="205" y="799" on="1"/>
      </contour>
    </TTGlyph>
    <TTGlyph name="Ycircumflex" xMin="17" yMin="0" xMax="509" yMax="934">
      <contour>
        <pt x="281" y="0" on="1"/>
        <pt x="245" y="0" on="1"/>
        <pt x="245" y="301" on="1"/>
        <pt x="17" y="700" on="1"/>
        <pt x="59" y="700" on="1"/>
        <pt x="263" y="341" on="1"/>
        <pt x="467" y="700" on="1"/>
        <pt x="509" y="700" on="1"/>
        <pt x="281" y="301" on="1"/>
      </contour>
      <contour>
        <pt x="114" y="809" on="1"/>
        <pt x="248" y="934" on="1"/>
        <pt x="278" y="934" on="1"/>
        <pt x="412" y="809" on="1"/>
        <pt x="367" y="809" on="1"/>
        <pt x="263" y="905" on="1"/>
        <pt x="160" y="809" on="1"/>
      </contour>
    </TTGlyph>
    <TTGlyph name="Ydieresis" xMin="17" yMin="0" xMax="509" yMax="900">
      <contour>
        <pt x="281" y="0" on="1"/>
        <pt x="245" y="0" on="1"/>
        <pt x="245" y="301" on="1"/>
        <pt x="17" y="700" on="1"/>
        <pt x="59" y="700" on="1"/>
        <pt x="263" y="341" on="1"/>
        <pt x="467" y="700" on="1"/>
        <pt x="509" y="700" on="1"/>
        <pt x="281" y="301" on="1"/>
      </contour>
      <contour>
        <pt x="147" y="838" on="1"/>
        <pt x="147" y="900" on="1"/>
        <pt x="182" y="900" on="1"/>
        <pt x="182" y="838" on="1"/>
      </contour>
      <contour>
        <pt x="343" y="838" on="1"/>
        <pt x="343" y="900" on="1"/>
        <pt x="378" y="900" on="1"/>
        <pt x="378" y="838" on="1"/>
      </contour>
    </TTGlyph>
    <TTGlyph name="Ygrave" xMin="17" yMin="0" xMax="509" yMax="922">
      <contour>
        <pt x="281" y="0" on="1"/>
        <pt x="245" y="0" on="1"/>
        <pt x="245" y="301" on="1"/>
        <pt x="17" y="700" on="1"/>
        <pt x="59" y="700" on="1"/>
        <pt x="263" y="341" on="1"/>
        <pt x="467" y="700" on="1"/>
        <pt x="509" y="700" on="1"/>
        <pt x="281" y="301" on="1"/>
      </contour>
      <contour>
        <pt x="154" y="922" on="1"/>
        <pt x="346" y="826" on="1"/>
        <pt x="331" y="799" on="1"/>
        <pt x="138" y="891" on="1"/>
      </contour>
    </TTGlyph>
    <TTGlyph name="Z" xMin="44" yMin="-1" xMax="494" yMax="700">
      <contour>
        <pt x="44" y="666" on="1"/>
        <pt x="44" y="700" on="1"/>
        <pt x="494" y="700" on="1"/>
        <pt x="494" y="630" on="1"/>
        <pt x="81" y="55" on="1"/>
        <pt x="81" y="33" on="1"/>
        <pt x="494" y="33" on="1"/>
        <pt x="494" y="-1" on="1"/>
        <pt x="44" y="-1" on="1"/>
        <pt x="44" y="68" on="1"/>
        <pt x="457" y="642" on="1"/>
        <pt x="457" y="666" on="1"/>
      </contour>
    </TTGlyph>
    <TTGlyph name="Zacute" xMin="44" yMin="-1" xMax="494" yMax="922">
      <contour>
        <pt x="44" y="666" on="1"/>
        <pt x="44" y="700" on="1"/>
        <pt x="494" y="700" on="1"/>
        <pt x="494" y="630" on="1"/>
        <pt x="81" y="55" on="1"/>
        <pt x="81" y="33" on="1"/>
        <pt x="494" y="33" on="1"/>
        <pt x="494" y="-1" on="1"/>
        <pt x="44" y="-1" on="1"/>
        <pt x="44" y="68" on="1"/>
        <pt x="457" y="642" on="1"/>
        <pt x="457" y="666" on="1"/>
      </contour>
      <contour>
        <pt x="175" y="826" on="1"/>
        <pt x="367" y="922" on="1"/>
        <pt x="383" y="891" on="1"/>
        <pt x="190" y="799" on="1"/>
      </contour>
    </TTGlyph>
    <TTGlyph name="Zcaron" xMin="44" yMin="-1" xMax="494" yMax="934">
      <contour>
        <pt x="44" y="666" on="1"/>
        <pt x="44" y="700" on="1"/>
        <pt x="494" y="700" on="1"/>
        <pt x="494" y="630" on="1"/>
        <pt x="81" y="55" on="1"/>
        <pt x="81" y="33" on="1"/>
        <pt x="494" y="33" on="1"/>
        <pt x="494" y="-1" on="1"/>
        <pt x="44" y="-1" on="1"/>
        <pt x="44" y="68" on="1"/>
        <pt x="457" y="642" on="1"/>
        <pt x="457" y="666" on="1"/>
      </contour>
      <contour>
        <pt x="266" y="809" on="1"/>
        <pt x="132" y="934" on="1"/>
        <pt x="177" y="934" on="1"/>
        <pt x="281" y="838" on="1"/>
        <pt x="384" y="934" on="1"/>
        <pt x="430" y="934" on="1"/>
        <pt x="296" y="809" on="1"/>
      </contour>
    </TTGlyph>
    <TTGlyph name="Zdotaccent" xMin="44" yMin="-1" xMax="494" yMax="878">
      <contour>
        <pt x="44" y="666" on="1"/>
        <pt x="44" y="700" on="1"/>
        <pt x="494" y="700" on="1"/>
        <pt x="494" y="630" on="1"/>
        <pt x="81" y="55" on="1"/>
        <pt x="81" y="33" on="1"/>
        <pt x="494" y="33" on="1"/>
        <pt x="494" y="-1" on="1"/>
        <pt x="44" y="-1" on="1"/>
        <pt x="44" y="68" on="1"/>
        <pt x="457" y="642" on="1"/>
        <pt x="457" y="666" on="1"/>
      </contour>
      <contour>
        <pt x="251" y="823" on="1"/>
        <pt x="251" y="878" on="1"/>
        <pt x="286" y="878" on="1"/>
        <pt x="286" y="823" on="1"/>
      </contour>
    </TTGlyph>
    <TTGlyph name="a" xMin="48" yMin="-9" xMax="486" yMax="509">
      <contour>
        <pt x="411" y="353" on="1"/>
        <pt x="411" y="65" on="1"/>
        <pt x="415" y="29" on="0"/>
        <pt x="486" y="23" on="1"/>
        <pt x="484" y="-8" on="1"/>
        <pt x="411" y="-8" on="0"/>
        <pt x="381" y="34" on="1"/>
        <pt x="279" y="-9" on="0"/>
        <pt x="179" y="-9" on="1"/>
        <pt x="117" y="-9" on="0"/>
        <pt x="48" y="65" on="0"/>
        <pt x="48" y="202" on="0"/>
        <pt x="114" y="274" on="0"/>
        <pt x="186" y="281" on="1"/>
        <pt x="376" y="301" on="1"/>
        <pt x="376" y="353" on="1"/>
        <pt x="376" y="417" on="0"/>
        <pt x="321" y="475" on="0"/>
        <pt x="265" y="475" on="1"/>
        <pt x="208" y="475" on="0"/>
        <pt x="107" y="462" on="1"/>
        <pt x="76" y="458" on="1"/>
        <pt x="73" y="491" on="1"/>
        <pt x="185" y="509" on="0"/>
        <pt x="265" y="509" on="1"/>
        <pt x="411" y="509" on="0"/>
      </contour>
      <contour>
        <pt x="133" y="244" on="0"/>
        <pt x="85" y="190" on="0"/>
        <pt x="85" y="82" on="0"/>
        <pt x="134" y="23" on="0"/>
        <pt x="222" y="23" on="0"/>
        <pt x="320" y="44" on="0"/>
        <pt x="348" y="54" on="1"/>
        <pt x="376" y="64" on="1"/>
        <pt x="376" y="269" on="1"/>
        <pt x="190" y="250" on="1"/>
      </contour>
    </TTGlyph>
    <TTGlyph name="aacute" xMin="48" yMin="-9" xMax="486" yMax="732">
      <contour>
        <pt x="411" y="353" on="1"/>
        <pt x="411" y="65" on="1"/>
        <pt x="415" y="29" on="0"/>
        <pt x="486" y="23" on="1"/>
        <pt x="484" y="-8" on="1"/>
        <pt x="411" y="-8" on="0"/>
        <pt x="381" y="34" on="1"/>
        <pt x="279" y="-9" on="0"/>
        <pt x="179" y="-9" on="1"/>
        <pt x="117" y="-9" on="0"/>
        <pt x="48" y="65" on="0"/>
        <pt x="48" y="202" on="0"/>
        <pt x="114" y="274" on="0"/>
        <pt x="186" y="281" on="1"/>
        <pt x="376" y="301" on="1"/>
        <pt x="376" y="353" on="1"/>
        <pt x="376" y="417" on="0"/>
        <pt x="321" y="475" on="0"/>
        <pt x="265" y="475" on="1"/>
        <pt x="208" y="475" on="0"/>
        <pt x="107" y="462" on="1"/>
        <pt x="76" y="458" on="1"/>
        <pt x="73" y="491" on="1"/>
        <pt x="185" y="509" on="0"/>
        <pt x="265" y="509" on="1"/>
        <pt x="411" y="509" on="0"/>
      </contour>
      <contour>
        <pt x="133" y="244" on="0"/>
        <pt x="85" y="190" on="0"/>
        <pt x="85" y="82" on="0"/>
        <pt x="134" y="23" on="0"/>
        <pt x="222" y="23" on="0"/>
        <pt x="320" y="44" on="0"/>
        <pt x="348" y="54" on="1"/>
        <pt x="376" y="64" on="1"/>
        <pt x="376" y="269" on="1"/>
        <pt x="190" y="250" on="1"/>
      </contour>
      <contour>
        <pt x="132" y="636" on="1"/>
        <pt x="324" y="732" on="1"/>
        <pt x="340" y="701" on="1"/>
        <pt x="147" y="609" on="1"/>
      </contour>
    </TTGlyph>
    <TTGlyph name="abreve" xMin="48" yMin="-9" xMax="486" yMax="723">
      <contour>
        <pt x="411" y="353" on="1"/>
        <pt x="411" y="66" on="1"/>
        <pt x="415" y="30" on="0"/>
        <pt x="486" y="24" on="1"/>
        <pt x="484" y="-8" on="1"/>
        <pt x="409" y="-8" on="0"/>
        <pt x="381" y="32" on="1"/>
        <pt x="354" y="22" on="1"/>
        <pt x="328" y="12" on="0"/>
        <pt x="225" y="-9" on="0"/>
        <pt x="115" y="-9" on="0"/>
        <pt x="48" y="66" on="0"/>
        <pt x="48" y="202" on="0"/>
        <pt x="113" y="274" on="0"/>
        <pt x="186" y="281" on="1"/>
        <pt x="376" y="301" on="1"/>
        <pt x="376" y="353" on="1"/>
        <pt x="376" y="417" on="0"/>
        <pt x="321" y="475" on="0"/>
        <pt x="192" y="475" on="0"/>
        <pt x="76" y="458" on="1"/>
        <pt x="73" y="491" on="1"/>
        <pt x="103" y="496" on="1"/>
        <pt x="193" y="509" on="0"/>
        <pt x="265" y="509" on="1"/>
        <pt x="411" y="509" on="0"/>
      </contour>
      <contour>
        <pt x="176" y="23" on="1"/>
        <pt x="275" y="23" on="0"/>
        <pt x="376" y="63" on="1"/>
        <pt x="376" y="268" on="1"/>
        <pt x="190" y="250" on="1"/>
        <pt x="85" y="239" on="0"/>
        <pt x="85" y="137" on="1"/>
        <pt x="85" y="83" on="0"/>
        <pt x="134" y="23" on="0"/>
      </contour>
      <contour>
        <pt x="114" y="723" on="1"/>
        <pt x="149" y="723" on="1"/>
        <pt x="149" y="681" on="0"/>
        <pt x="204" y="627" on="0"/>
        <pt x="300" y="627" on="0"/>
        <pt x="355" y="681" on="0"/>
        <pt x="355" y="723" on="1"/>
        <pt x="390" y="723" on="1"/>
        <pt x="390" y="667" on="0"/>
        <pt x="314" y="595" on="0"/>
        <pt x="190" y="595" on="0"/>
        <pt x="114" y="667" on="0"/>
      </contour>
    </TTGlyph>
    <TTGlyph name="acircumflex" xMin="48" yMin="-9" xMax="486" yMax="732">
      <contour>
        <pt x="411" y="353" on="1"/>
        <pt x="411" y="65" on="1"/>
        <pt x="415" y="29" on="0"/>
        <pt x="486" y="23" on="1"/>
        <pt x="484" y="-8" on="1"/>
        <pt x="411" y="-8" on="0"/>
        <pt x="381" y="34" on="1"/>
        <pt x="279" y="-9" on="0"/>
        <pt x="179" y="-9" on="1"/>
        <pt x="117" y="-9" on="0"/>
        <pt x="48" y="65" on="0"/>
        <pt x="48" y="202" on="0"/>
        <pt x="114" y="274" on="0"/>
        <pt x="186" y="281" on="1"/>
        <pt x="376" y="301" on="1"/>
        <pt x="376" y="353" on="1"/>
        <pt x="376" y="417" on="0"/>
        <pt x="321" y="475" on="0"/>
        <pt x="265" y="475" on="1"/>
        <pt x="208" y="475" on="0"/>
        <pt x="107" y="462" on="1"/>
        <pt x="76" y="458" on="1"/>
        <pt x="73" y="491" on="1"/>
        <pt x="185" y="509" on="0"/>
        <pt x="265" y="509" on="1"/>
        <pt x="411" y="509" on="0"/>
      </contour>
      <contour>
        <pt x="133" y="244" on="0"/>
        <pt x="85" y="190" on="0"/>
        <pt x="85" y="82" on="0"/>
        <pt x="134" y="23" on="0"/>
        <pt x="222" y="23" on="0"/>
        <pt x="320" y="44" on="0"/>
        <pt x="348" y="54" on="1"/>
        <pt x="376" y="64" on="1"/>
        <pt x="376" y="269" on="1"/>
        <pt x="190" y="250" on="1"/>
      </contour>
      <contour>
        <pt x="103" y="600" on="1"/>
        <pt x="224" y="732" on="1"/>
        <pt x="252" y="732" on="1"/>
        <pt x="374" y="600" on="1"/>
        <pt x="331" y="600" on="1"/>
        <pt x="239" y="700" on="1"/>
        <pt x="146" y="600" on="1"/>
      </contour>
    </TTGlyph>
    <TTGlyph name="acute" xMin="40" yMin="609" xMax="248" yMax="732">
      <contour>
        <pt x="40" y="636" on="1"/>
        <pt x="232" y="732" on="1"/>
        <pt x="248" y="701" on="1"/>
        <pt x="55" y="609" on="1"/>
      </contour>
    </TTGlyph>
    <TTGlyph name="acute.cap" xMin="20" yMin="799" xMax="228" yMax="922">
      <contour>
        <pt x="20" y="826" on="1"/>
        <pt x="212" y="922" on="1"/>
        <pt x="228" y="891" on="1"/>
        <pt x="35" y="799" on="1"/>
      </contour>
    </TTGlyph>
    <TTGlyph name="adieresis" xMin="48" yMin="-9" xMax="486" yMax="700">
      <contour>
        <pt x="411" y="353" on="1"/>
        <pt x="411" y="65" on="1"/>
        <pt x="415" y="29" on="0"/>
        <pt x="486" y="23" on="1"/>
        <pt x="484" y="-8" on="1"/>
        <pt x="411" y="-8" on="0"/>
        <pt x="381" y="34" on="1"/>
        <pt x="279" y="-9" on="0"/>
        <pt x="179" y="-9" on="1"/>
        <pt x="117" y="-9" on="0"/>
        <pt x="48" y="65" on="0"/>
        <pt x="48" y="202" on="0"/>
        <pt x="114" y="274" on="0"/>
        <pt x="186" y="281" on="1"/>
        <pt x="376" y="301" on="1"/>
        <pt x="376" y="353" on="1"/>
        <pt x="376" y="417" on="0"/>
        <pt x="321" y="475" on="0"/>
        <pt x="265" y="475" on="1"/>
        <pt x="208" y="475" on="0"/>
        <pt x="107" y="462" on="1"/>
        <pt x="76" y="458" on="1"/>
        <pt x="73" y="491" on="1"/>
        <pt x="185" y="509" on="0"/>
        <pt x="265" y="509" on="1"/>
        <pt x="411" y="509" on="0"/>
      </contour>
      <contour>
        <pt x="133" y="244" on="0"/>
        <pt x="85" y="190" on="0"/>
        <pt x="85" y="82" on="0"/>
        <pt x="134" y="23" on="0"/>
        <pt x="222" y="23" on="0"/>
        <pt x="320" y="44" on="0"/>
        <pt x="348" y="54" on="1"/>
        <pt x="376" y="64" on="1"/>
        <pt x="376" y="269" on="1"/>
        <pt x="190" y="250" on="1"/>
      </contour>
      <contour>
        <pt x="132" y="638" on="1"/>
        <pt x="132" y="700" on="1"/>
        <pt x="167" y="700" on="1"/>
        <pt x="167" y="638" on="1"/>
      </contour>
      <contour>
        <pt x="322" y="638" on="1"/>
        <pt x="322" y="700" on="1"/>
        <pt x="357" y="700" on="1"/>
        <pt x="357" y="638" on="1"/>
      </contour>
    </TTGlyph>
    <TTGlyph name="ae" xMin="48" yMin="-9" xMax="766" yMax="509">
      <contour>
        <pt x="715" y="30" on="1"/>
        <pt x="745" y="32" on="1"/>
        <pt x="747" y="0" on="1"/>
        <pt x="635" y="-9" on="0"/>
        <pt x="562" y="-9" on="1"/>
        <pt x="464" y="-9" on="0"/>
        <pt x="419" y="49" on="1"/>
        <pt x="381" y="33" on="1"/>
        <pt x="288" y="-9" on="0"/>
        <pt x="175" y="-9" on="1"/>
        <pt x="48" y="-9" on="0"/>
        <pt x="48" y="137" on="1"/>
        <pt x="48" y="217" on="0"/>
        <pt x="126" y="272" on="0"/>
        <pt x="233" y="286" on="1"/>
        <pt x="376" y="301" on="1"/>
        <pt x="376" y="353" on="1"/>
        <pt x="376" y="417" on="0"/>
        <pt x="321" y="475" on="0"/>
        <pt x="265" y="475" on="1"/>
        <pt x="214" y="475" on="0"/>
        <pt x="108" y="468" on="1"/>
        <pt x="77" y="466" on="1"/>
        <pt x="75" y="499" on="1"/>
        <pt x="185" y="509" on="0"/>
        <pt x="265" y="509" on="1"/>
        <pt x="380" y="509" on="0"/>
        <pt x="404" y="413" on="1"/>
        <pt x="453" y="509" on="0"/>
        <pt x="576" y="509" on="1"/>
        <pt x="671" y="509" on="0"/>
        <pt x="766" y="395" on="0"/>
        <pt x="766" y="269" on="1"/>
        <pt x="766" y="236" on="1"/>
        <pt x="411" y="236" on="1"/>
        <pt x="411" y="128" on="0"/>
        <pt x="479" y="23" on="0"/>
        <pt x="637" y="23" on="0"/>
      </contour>
      <contour>
        <pt x="85" y="82" on="0"/>
        <pt x="133" y="23" on="0"/>
        <pt x="218" y="23" on="0"/>
        <pt x="273" y="35" on="1"/>
        <pt x="350" y="52" on="0"/>
        <pt x="404" y="74" on="1"/>
        <pt x="374" y="133" on="0"/>
        <pt x="374" y="268" on="1"/>
        <pt x="190" y="250" on="1"/>
        <pt x="135" y="245" on="0"/>
        <pt x="85" y="191" on="0"/>
      </contour>
      <contour>
        <pt x="411" y="268" on="1"/>
        <pt x="729" y="268" on="1"/>
        <pt x="729" y="381" on="0"/>
        <pt x="656" y="477" on="0"/>
        <pt x="576" y="477" on="1"/>
        <pt x="411" y="477" on="0"/>
      </contour>
    </TTGlyph>
    <TTGlyph name="aeacute" xMin="48" yMin="-9" xMax="766" yMax="732">
      <contour>
        <pt x="715" y="30" on="1"/>
        <pt x="745" y="32" on="1"/>
        <pt x="747" y="0" on="1"/>
        <pt x="635" y="-9" on="0"/>
        <pt x="562" y="-9" on="1"/>
        <pt x="464" y="-9" on="0"/>
        <pt x="419" y="49" on="1"/>
        <pt x="381" y="33" on="1"/>
        <pt x="288" y="-9" on="0"/>
        <pt x="175" y="-9" on="1"/>
        <pt x="48" y="-9" on="0"/>
        <pt x="48" y="137" on="1"/>
        <pt x="48" y="217" on="0"/>
        <pt x="126" y="272" on="0"/>
        <pt x="233" y="286" on="1"/>
        <pt x="376" y="301" on="1"/>
        <pt x="376" y="353" on="1"/>
        <pt x="376" y="417" on="0"/>
        <pt x="321" y="475" on="0"/>
        <pt x="265" y="475" on="1"/>
        <pt x="214" y="475" on="0"/>
        <pt x="108" y="468" on="1"/>
        <pt x="77" y="466" on="1"/>
        <pt x="75" y="499" on="1"/>
        <pt x="185" y="509" on="0"/>
        <pt x="265" y="509" on="1"/>
        <pt x="380" y="509" on="0"/>
        <pt x="404" y="413" on="1"/>
        <pt x="453" y="509" on="0"/>
        <pt x="576" y="509" on="1"/>
        <pt x="671" y="509" on="0"/>
        <pt x="766" y="395" on="0"/>
        <pt x="766" y="269" on="1"/>
        <pt x="766" y="236" on="1"/>
        <pt x="411" y="236" on="1"/>
        <pt x="411" y="128" on="0"/>
        <pt x="479" y="23" on="0"/>
        <pt x="637" y="23" on="0"/>
      </contour>
      <contour>
        <pt x="85" y="82" on="0"/>
        <pt x="133" y="23" on="0"/>
        <pt x="218" y="23" on="0"/>
        <pt x="273" y="35" on="1"/>
        <pt x="350" y="52" on="0"/>
        <pt x="404" y="74" on="1"/>
        <pt x="374" y="133" on="0"/>
        <pt x="374" y="268" on="1"/>
        <pt x="190" y="250" on="1"/>
        <pt x="135" y="245" on="0"/>
        <pt x="85" y="191" on="0"/>
      </contour>
      <contour>
        <pt x="411" y="268" on="1"/>
        <pt x="729" y="268" on="1"/>
        <pt x="729" y="381" on="0"/>
        <pt x="656" y="477" on="0"/>
        <pt x="576" y="477" on="1"/>
        <pt x="411" y="477" on="0"/>
      </contour>
      <contour>
        <pt x="313" y="636" on="1"/>
        <pt x="505" y="732" on="1"/>
        <pt x="521" y="701" on="1"/>
        <pt x="328" y="609" on="1"/>
      </contour>
    </TTGlyph>
    <TTGlyph name="agrave" xMin="48" yMin="-9" xMax="486" yMax="732">
      <contour>
        <pt x="411" y="353" on="1"/>
        <pt x="411" y="65" on="1"/>
        <pt x="415" y="29" on="0"/>
        <pt x="486" y="23" on="1"/>
        <pt x="484" y="-8" on="1"/>
        <pt x="411" y="-8" on="0"/>
        <pt x="381" y="34" on="1"/>
        <pt x="279" y="-9" on="0"/>
        <pt x="179" y="-9" on="1"/>
        <pt x="117" y="-9" on="0"/>
        <pt x="48" y="65" on="0"/>
        <pt x="48" y="202" on="0"/>
        <pt x="114" y="274" on="0"/>
        <pt x="186" y="281" on="1"/>
        <pt x="376" y="301" on="1"/>
        <pt x="376" y="353" on="1"/>
        <pt x="376" y="417" on="0"/>
        <pt x="321" y="475" on="0"/>
        <pt x="265" y="475" on="1"/>
        <pt x="208" y="475" on="0"/>
        <pt x="107" y="462" on="1"/>
        <pt x="76" y="458" on="1"/>
        <pt x="73" y="491" on="1"/>
        <pt x="185" y="509" on="0"/>
        <pt x="265" y="509" on="1"/>
        <pt x="411" y="509" on="0"/>
      </contour>
      <contour>
        <pt x="133" y="244" on="0"/>
        <pt x="85" y="190" on="0"/>
        <pt x="85" y="82" on="0"/>
        <pt x="134" y="23" on="0"/>
        <pt x="222" y="23" on="0"/>
        <pt x="320" y="44" on="0"/>
        <pt x="348" y="54" on="1"/>
        <pt x="376" y="64" on="1"/>
        <pt x="376" y="269" on="1"/>
        <pt x="190" y="250" on="1"/>
      </contour>
      <contour>
        <pt x="149" y="732" on="1"/>
        <pt x="341" y="636" on="1"/>
        <pt x="326" y="609" on="1"/>
        <pt x="133" y="701" on="1"/>
      </contour>
    </TTGlyph>
    <TTGlyph name="amacron" xMin="48" yMin="-9" xMax="486" yMax="674">
      <contour>
        <pt x="411" y="353" on="1"/>
        <pt x="411" y="65" on="1"/>
        <pt x="415" y="29" on="0"/>
        <pt x="486" y="23" on="1"/>
        <pt x="484" y="-8" on="1"/>
        <pt x="411" y="-8" on="0"/>
        <pt x="381" y="34" on="1"/>
        <pt x="279" y="-9" on="0"/>
        <pt x="179" y="-9" on="1"/>
        <pt x="117" y="-9" on="0"/>
        <pt x="48" y="65" on="0"/>
        <pt x="48" y="202" on="0"/>
        <pt x="114" y="274" on="0"/>
        <pt x="186" y="281" on="1"/>
        <pt x="376" y="301" on="1"/>
        <pt x="376" y="353" on="1"/>
        <pt x="376" y="417" on="0"/>
        <pt x="321" y="475" on="0"/>
        <pt x="265" y="475" on="1"/>
        <pt x="208" y="475" on="0"/>
        <pt x="107" y="462" on="1"/>
        <pt x="76" y="458" on="1"/>
        <pt x="73" y="491" on="1"/>
        <pt x="185" y="509" on="0"/>
        <pt x="265" y="509" on="1"/>
        <pt x="411" y="509" on="0"/>
      </contour>
      <contour>
        <pt x="133" y="244" on="0"/>
        <pt x="85" y="190" on="0"/>
        <pt x="85" y="82" on="0"/>
        <pt x="134" y="23" on="0"/>
        <pt x="222" y="23" on="0"/>
        <pt x="320" y="44" on="0"/>
        <pt x="348" y="54" on="1"/>
        <pt x="376" y="64" on="1"/>
        <pt x="376" y="269" on="1"/>
        <pt x="190" y="250" on="1"/>
      </contour>
      <contour>
        <pt x="115" y="642" on="1"/>
        <pt x="115" y="674" on="1"/>
        <pt x="382" y="674" on="1"/>
        <pt x="382" y="642" on="1"/>
      </contour>
    </TTGlyph>
    <TTGlyph name="ampersand" xMin="47" yMin="-9" xMax="654" yMax="694">
      <contour>
        <pt x="159" y="615" on="0"/>
        <pt x="237" y="694" on="0"/>
        <pt x="390" y="694" on="0"/>
        <pt x="465" y="616" on="0"/>
        <pt x="465" y="477" on="0"/>
        <pt x="389" y="396" on="0"/>
        <pt x="300" y="367" on="1"/>
        <pt x="487" y="182" on="1"/>
        <pt x="498" y="212" on="0"/>
        <pt x="519" y="325" on="0"/>
        <pt x="522" y="367" on="1"/>
        <pt x="557" y="367" on="1"/>
        <pt x="546" y="237" on="0"/>
        <pt x="514" y="156" on="1"/>
        <pt x="654" y="19" on="1"/>
        <pt x="630" y="-7" on="1"/>
        <pt x="499" y="123" on="1"/>
        <pt x="433" y="-9" on="0"/>
        <pt x="277" y="-9" on="1"/>
        <pt x="151" y="-9" on="0"/>
        <pt x="47" y="101" on="0"/>
        <pt x="47" y="297" on="0"/>
        <pt x="123" y="384" on="0"/>
        <pt x="210" y="409" on="1"/>
        <pt x="178" y="444" on="0"/>
        <pt x="159" y="504" on="0"/>
        <pt x="159" y="550" on="1"/>
      </contour>
      <contour>
        <pt x="279" y="24" on="1"/>
        <pt x="416" y="24" on="0"/>
        <pt x="473" y="148" on="1"/>
        <pt x="236" y="383" on="1"/>
        <pt x="150" y="360" on="0"/>
        <pt x="82" y="286" on="0"/>
        <pt x="82" y="116" on="0"/>
        <pt x="174" y="24" on="0"/>
      </contour>
      <contour>
        <pt x="194" y="550" on="1"/>
        <pt x="194" y="472" on="0"/>
        <pt x="239" y="427" on="1"/>
        <pt x="275" y="391" on="1"/>
        <pt x="362" y="421" on="0"/>
        <pt x="430" y="487" on="0"/>
        <pt x="430" y="550" on="1"/>
        <pt x="430" y="662" on="0"/>
        <pt x="194" y="662" on="0"/>
      </contour>
    </TTGlyph>
    <TTGlyph name="aogonek" xMin="48" yMin="-200" xMax="486" yMax="509">
      <contour>
        <pt x="411" y="353" on="1"/>
        <pt x="411" y="65" on="1"/>
        <pt x="415" y="29" on="0"/>
        <pt x="486" y="23" on="1"/>
        <pt x="484" y="-8" on="1"/>
        <pt x="473" y="-8" on="0"/>
        <pt x="453" y="-6" on="1"/>
        <pt x="379" y="-89" on="0"/>
        <pt x="379" y="-137" on="0"/>
        <pt x="405" y="-166" on="0"/>
        <pt x="426" y="-166" on="1"/>
        <pt x="482" y="-159" on="1"/>
        <pt x="486" y="-192" on="1"/>
        <pt x="450" y="-200" on="0"/>
        <pt x="387" y="-200" on="0"/>
        <pt x="342" y="-156" on="0"/>
        <pt x="342" y="-91" on="0"/>
        <pt x="402" y="-15" on="0"/>
        <pt x="421" y="2" on="1"/>
        <pt x="395" y="14" on="0"/>
        <pt x="381" y="34" on="1"/>
        <pt x="279" y="-9" on="0"/>
        <pt x="179" y="-9" on="1"/>
        <pt x="117" y="-9" on="0"/>
        <pt x="48" y="65" on="0"/>
        <pt x="48" y="202" on="0"/>
        <pt x="114" y="274" on="0"/>
        <pt x="186" y="281" on="1"/>
        <pt x="376" y="301" on="1"/>
        <pt x="376" y="353" on="1"/>
        <pt x="376" y="417" on="0"/>
        <pt x="321" y="475" on="0"/>
        <pt x="265" y="475" on="1"/>
        <pt x="208" y="475" on="0"/>
        <pt x="107" y="462" on="1"/>
        <pt x="76" y="458" on="1"/>
        <pt x="73" y="491" on="1"/>
        <pt x="185" y="509" on="0"/>
        <pt x="265" y="509" on="1"/>
        <pt x="411" y="509" on="0"/>
      </contour>
      <contour>
        <pt x="133" y="244" on="0"/>
        <pt x="85" y="190" on="0"/>
        <pt x="85" y="82" on="0"/>
        <pt x="134" y="23" on="0"/>
        <pt x="222" y="23" on="0"/>
        <pt x="320" y="44" on="0"/>
        <pt x="348" y="54" on="1"/>
        <pt x="376" y="64" on="1"/>
        <pt x="376" y="269" on="1"/>
        <pt x="190" y="250" on="1"/>
      </contour>
    </TTGlyph>
    <TTGlyph name="approxequal" xMin="68" yMin="112" xMax="492" yMax="381">
      <contour>
        <pt x="380" y="274" on="1"/>
        <pt x="350" y="274" on="0"/>
        <pt x="202" y="347" on="0"/>
        <pt x="184" y="347" on="1"/>
        <pt x="151" y="347" on="0"/>
        <pt x="97" y="308" on="1"/>
        <pt x="79" y="295" on="1"/>
        <pt x="68" y="327" on="1"/>
        <pt x="131" y="381" on="0"/>
        <pt x="181" y="381" on="1"/>
        <pt x="211" y="381" on="0"/>
        <pt x="359" y="308" on="0"/>
        <pt x="395" y="308" on="0"/>
        <pt x="446" y="334" on="0"/>
        <pt x="464" y="347" on="1"/>
        <pt x="481" y="360" on="1"/>
        <pt x="492" y="329" on="1"/>
        <pt x="430" y="274" on="0"/>
      </contour>
      <contour>
        <pt x="380" y="112" on="1"/>
        <pt x="350" y="112" on="0"/>
        <pt x="202" y="185" on="0"/>
        <pt x="184" y="185" on="1"/>
        <pt x="151" y="185" on="0"/>
        <pt x="97" y="146" on="1"/>
        <pt x="79" y="133" on="1"/>
        <pt x="68" y="165" on="1"/>
        <pt x="131" y="219" on="0"/>
        <pt x="181" y="219" on="1"/>
        <pt x="211" y="219" on="0"/>
        <pt x="359" y="146" on="0"/>
        <pt x="395" y="146" on="0"/>
        <pt x="446" y="172" on="0"/>
        <pt x="464" y="185" on="1"/>
        <pt x="481" y="198" on="1"/>
        <pt x="492" y="167" on="1"/>
        <pt x="430" y="112" on="0"/>
      </contour>
    </TTGlyph>
    <TTGlyph name="aring" xMin="48" yMin="-9" xMax="486" yMax="745">
      <contour>
        <pt x="411" y="353" on="1"/>
        <pt x="411" y="65" on="1"/>
        <pt x="415" y="29" on="0"/>
        <pt x="486" y="23" on="1"/>
        <pt x="484" y="-8" on="1"/>
        <pt x="411" y="-8" on="0"/>
        <pt x="381" y="34" on="1"/>
        <pt x="279" y="-9" on="0"/>
        <pt x="179" y="-9" on="1"/>
        <pt x="117" y="-9" on="0"/>
        <pt x="48" y="65" on="0"/>
        <pt x="48" y="202" on="0"/>
        <pt x="114" y="274" on="0"/>
        <pt x="186" y="281" on="1"/>
        <pt x="376" y="301" on="1"/>
        <pt x="376" y="353" on="1"/>
        <pt x="376" y="417" on="0"/>
        <pt x="321" y="475" on="0"/>
        <pt x="265" y="475" on="1"/>
        <pt x="208" y="475" on="0"/>
        <pt x="107" y="462" on="1"/>
        <pt x="76" y="458" on="1"/>
        <pt x="73" y="491" on="1"/>
        <pt x="185" y="509" on="0"/>
        <pt x="265" y="509" on="1"/>
        <pt x="411" y="509" on="0"/>
      </contour>
      <contour>
        <pt x="133" y="244" on="0"/>
        <pt x="85" y="190" on="0"/>
        <pt x="85" y="82" on="0"/>
        <pt x="134" y="23" on="0"/>
        <pt x="222" y="23" on="0"/>
        <pt x="320" y="44" on="0"/>
        <pt x="348" y="54" on="1"/>
        <pt x="376" y="64" on="1"/>
        <pt x="376" y="269" on="1"/>
        <pt x="190" y="250" on="1"/>
      </contour>
      <contour>
        <pt x="153" y="610" on="0"/>
        <pt x="153" y="690" on="0"/>
        <pt x="209" y="745" on="0"/>
        <pt x="289" y="745" on="0"/>
        <pt x="343" y="690" on="0"/>
        <pt x="343" y="610" on="0"/>
        <pt x="289" y="555" on="0"/>
        <pt x="208" y="555" on="0"/>
      </contour>
      <contour>
        <pt x="187" y="676" on="0"/>
        <pt x="187" y="624" on="0"/>
        <pt x="223" y="586" on="0"/>
        <pt x="274" y="586" on="0"/>
        <pt x="310" y="624" on="0"/>
        <pt x="310" y="676" on="0"/>
        <pt x="274" y="713" on="0"/>
        <pt x="223" y="713" on="0"/>
      </contour>
    </TTGlyph>
    <TTGlyph name="aringacute" xMin="48" yMin="-9" xMax="486" yMax="902">
      <contour>
        <pt x="411" y="353" on="1"/>
        <pt x="411" y="65" on="1"/>
        <pt x="415" y="29" on="0"/>
        <pt x="486" y="23" on="1"/>
        <pt x="484" y="-8" on="1"/>
        <pt x="411" y="-8" on="0"/>
        <pt x="381" y="34" on="1"/>
        <pt x="279" y="-9" on="0"/>
        <pt x="179" y="-9" on="1"/>
        <pt x="117" y="-9" on="0"/>
        <pt x="48" y="65" on="0"/>
        <pt x="48" y="202" on="0"/>
        <pt x="114" y="274" on="0"/>
        <pt x="186" y="281" on="1"/>
        <pt x="376" y="301" on="1"/>
        <pt x="376" y="353" on="1"/>
        <pt x="376" y="417" on="0"/>
        <pt x="321" y="475" on="0"/>
        <pt x="265" y="475" on="1"/>
        <pt x="208" y="475" on="0"/>
        <pt x="107" y="462" on="1"/>
        <pt x="76" y="458" on="1"/>
        <pt x="73" y="491" on="1"/>
        <pt x="185" y="509" on="0"/>
        <pt x="265" y="509" on="1"/>
        <pt x="411" y="509" on="0"/>
      </contour>
      <contour>
        <pt x="133" y="244" on="0"/>
        <pt x="85" y="190" on="0"/>
        <pt x="85" y="82" on="0"/>
        <pt x="134" y="23" on="0"/>
        <pt x="222" y="23" on="0"/>
        <pt x="320" y="44" on="0"/>
        <pt x="348" y="54" on="1"/>
        <pt x="376" y="64" on="1"/>
        <pt x="376" y="269" on="1"/>
        <pt x="190" y="250" on="1"/>
      </contour>
      <contour>
        <pt x="146" y="610" on="0"/>
        <pt x="146" y="690" on="0"/>
        <pt x="202" y="745" on="0"/>
        <pt x="282" y="745" on="0"/>
        <pt x="336" y="690" on="0"/>
        <pt x="336" y="610" on="0"/>
        <pt x="282" y="555" on="0"/>
        <pt x="201" y="555" on="0"/>
      </contour>
      <contour>
        <pt x="180" y="676" on="0"/>
        <pt x="180" y="624" on="0"/>
        <pt x="216" y="586" on="0"/>
        <pt x="267" y="586" on="0"/>
        <pt x="303" y="624" on="0"/>
        <pt x="303" y="676" on="0"/>
        <pt x="267" y="713" on="0"/>
        <pt x="216" y="713" on="0"/>
      </contour>
      <contour>
        <pt x="148" y="806" on="1"/>
        <pt x="340" y="902" on="1"/>
        <pt x="356" y="871" on="1"/>
        <pt x="163" y="779" on="1"/>
      </contour>
    </TTGlyph>
    <TTGlyph name="asciicircum" xMin="82" yMin="323" xMax="487" yMax="660">
      <contour>
        <pt x="447" y="323" on="1"/>
        <pt x="280" y="624" on="1"/>
        <pt x="122" y="323" on="1"/>
        <pt x="82" y="323" on="1"/>
        <pt x="262" y="660" on="1"/>
        <pt x="298" y="660" on="1"/>
        <pt x="487" y="323" on="1"/>
      </contour>
    </TTGlyph>
    <TTGlyph name="asciitilde" xMin="71" yMin="212" xMax="493" yMax="319">
      <contour>
        <pt x="381" y="212" on="1"/>
        <pt x="351" y="212" on="0"/>
        <pt x="204" y="285" on="0"/>
        <pt x="168" y="285" on="0"/>
        <pt x="117" y="259" on="0"/>
        <pt x="100" y="246" on="1"/>
        <pt x="82" y="233" on="1"/>
        <pt x="71" y="265" on="1"/>
        <pt x="133" y="319" on="0"/>
        <pt x="183" y="319" on="1"/>
        <pt x="213" y="319" on="0"/>
        <pt x="360" y="246" on="0"/>
        <pt x="396" y="246" on="0"/>
        <pt x="447" y="272" on="0"/>
        <pt x="464" y="285" on="1"/>
        <pt x="482" y="298" on="1"/>
        <pt x="493" y="267" on="1"/>
        <pt x="431" y="212" on="0"/>
      </contour>
    </TTGlyph>
    <TTGlyph name="asterisk" xMin="64" yMin="380" xMax="362" yMax="693">
      <contour>
        <pt x="362" y="519" on="1"/>
        <pt x="225" y="519" on="1"/>
        <pt x="267" y="390" on="1"/>
        <pt x="235" y="380" on="1"/>
        <pt x="193" y="510" on="1"/>
        <pt x="83" y="431" on="1"/>
        <pt x="64" y="458" on="1"/>
        <pt x="174" y="538" on="1"/>
        <pt x="65" y="618" on="1"/>
        <pt x="85" y="645" on="1"/>
        <pt x="195" y="564" on="1"/>
        <pt x="237" y="693" on="1"/>
        <pt x="269" y="683" on="1"/>
        <pt x="227" y="553" on="1"/>
        <pt x="362" y="553" on="1"/>
      </contour>
    </TTGlyph>
    <TTGlyph name="at" xMin="60" yMin="-199" xMax="925" yMax="719">
      <contour>
        <pt x="925" y="305" on="1"/>
        <pt x="925" y="288" on="1"/>
        <pt x="925" y="109" on="0"/>
        <pt x="890" y="50" on="1"/>
        <pt x="878" y="28" on="0"/>
        <pt x="855" y="5" on="0"/>
        <pt x="836" y="-1" on="1"/>
        <pt x="806" y="-10" on="0"/>
        <pt x="735" y="-10" on="0"/>
        <pt x="693" y="3" on="0"/>
        <pt x="682" y="12" on="1"/>
        <pt x="660" y="33" on="0"/>
        <pt x="655" y="53" on="1"/>
        <pt x="614" y="29" on="0"/>
        <pt x="500" y="-9" on="0"/>
        <pt x="440" y="-9" on="0"/>
        <pt x="404" y="-4" on="0"/>
        <pt x="352" y="24" on="0"/>
        <pt x="320" y="74" on="0"/>
        <pt x="295" y="174" on="0"/>
        <pt x="295" y="243" on="1"/>
        <pt x="295" y="379" on="0"/>
        <pt x="387" y="509" on="0"/>
        <pt x="505" y="509" on="1"/>
        <pt x="558" y="509" on="0"/>
        <pt x="616" y="489" on="1"/>
        <pt x="637" y="482" on="1"/>
        <pt x="637" y="500" on="1"/>
        <pt x="672" y="500" on="1"/>
        <pt x="672" y="300" on="1"/>
        <pt x="672" y="100" on="0"/>
        <pt x="686" y="64" on="1"/>
        <pt x="691" y="50" on="0"/>
        <pt x="714" y="25" on="0"/>
        <pt x="743" y="20" on="0"/>
        <pt x="793" y="20" on="0"/>
        <pt x="822" y="26" on="0"/>
        <pt x="858" y="54" on="0"/>
        <pt x="867" y="82" on="1"/>
        <pt x="888" y="146" on="0"/>
        <pt x="888" y="288" on="1"/>
        <pt x="888" y="306" on="1"/>
        <pt x="888" y="507" on="0"/>
        <pt x="712" y="687" on="0"/>
        <pt x="291" y="687" on="0"/>
        <pt x="97" y="495" on="0"/>
        <pt x="97" y="261" on="1"/>
        <pt x="97" y="137" on="0"/>
        <pt x="145" y="-29" on="0"/>
        <pt x="250" y="-126" on="0"/>
        <pt x="396" y="-167" on="0"/>
        <pt x="504" y="-167" on="1"/>
        <pt x="647" y="-157" on="1"/>
        <pt x="650" y="-190" on="1"/>
        <pt x="552" y="-199" on="0"/>
        <pt x="504" y="-199" on="1"/>
        <pt x="388" y="-199" on="0"/>
        <pt x="230" y="-156" on="0"/>
        <pt x="172" y="-104" on="1"/>
        <pt x="60" y="-5" on="0"/>
        <pt x="60" y="508" on="0"/>
        <pt x="276" y="719" on="0"/>
        <pt x="730" y="719" on="0"/>
        <pt x="925" y="521" on="0"/>
      </contour>
      <contour>
        <pt x="399" y="36" on="0"/>
        <pt x="438" y="23" on="0"/>
        <pt x="495" y="23" on="0"/>
        <pt x="587" y="53" on="0"/>
        <pt x="618" y="68" on="1"/>
        <pt x="648" y="83" on="1"/>
        <pt x="637" y="197" on="0"/>
        <pt x="637" y="300" on="1"/>
        <pt x="637" y="450" on="1"/>
        <pt x="564" y="477" on="0"/>
        <pt x="505" y="477" on="1"/>
        <pt x="404" y="477" on="0"/>
        <pt x="330" y="362" on="0"/>
        <pt x="330" y="240" on="1"/>
        <pt x="330" y="99" on="0"/>
        <pt x="377" y="56" on="1"/>
      </contour>
    </TTGlyph>
    <TTGlyph name="at.cap" xMin="58" yMin="-107" xMax="923" yMax="811">
      <contour>
        <pt x="923" y="397" on="1"/>
        <pt x="923" y="380" on="1"/>
        <pt x="923" y="201" on="0"/>
        <pt x="888" y="142" on="1"/>
        <pt x="876" y="120" on="0"/>
        <pt x="853" y="97" on="0"/>
        <pt x="834" y="91" on="1"/>
        <pt x="804" y="82" on="0"/>
        <pt x="733" y="82" on="0"/>
        <pt x="691" y="95" on="0"/>
        <pt x="680" y="104" on="1"/>
        <pt x="658" y="125" on="0"/>
        <pt x="653" y="145" on="1"/>
        <pt x="612" y="121" on="0"/>
        <pt x="498" y="83" on="0"/>
        <pt x="438" y="83" on="0"/>
        <pt x="402" y="88" on="0"/>
        <pt x="350" y="116" on="0"/>
        <pt x="318" y="166" on="0"/>
        <pt x="293" y="266" on="0"/>
        <pt x="293" y="335" on="1"/>
        <pt x="293" y="471" on="0"/>
        <pt x="385" y="601" on="0"/>
        <pt x="503" y="601" on="1"/>
        <pt x="556" y="601" on="0"/>
        <pt x="614" y="581" on="1"/>
        <pt x="635" y="574" on="1"/>
        <pt x="635" y="592" on="1"/>
        <pt x="670" y="592" on="1"/>
        <pt x="670" y="392" on="1"/>
        <pt x="670" y="192" on="0"/>
        <pt x="684" y="156" on="1"/>
        <pt x="689" y="142" on="0"/>
        <pt x="712" y="117" on="0"/>
        <pt x="741" y="112" on="0"/>
        <pt x="791" y="112" on="0"/>
        <pt x="820" y="118" on="0"/>
        <pt x="856" y="146" on="0"/>
        <pt x="865" y="174" on="1"/>
        <pt x="886" y="238" on="0"/>
        <pt x="886" y="380" on="1"/>
        <pt x="886" y="398" on="1"/>
        <pt x="886" y="599" on="0"/>
        <pt x="710" y="779" on="0"/>
        <pt x="289" y="779" on="0"/>
        <pt x="95" y="587" on="0"/>
        <pt x="95" y="353" on="1"/>
        <pt x="95" y="229" on="0"/>
        <pt x="143" y="63" on="0"/>
        <pt x="248" y="-34" on="0"/>
        <pt x="394" y="-75" on="0"/>
        <pt x="502" y="-75" on="1"/>
        <pt x="645" y="-65" on="1"/>
        <pt x="648" y="-98" on="1"/>
        <pt x="550" y="-107" on="0"/>
        <pt x="502" y="-107" on="1"/>
        <pt x="386" y="-107" on="0"/>
        <pt x="228" y="-64" on="0"/>
        <pt x="170" y="-12" on="1"/>
        <pt x="58" y="87" on="0"/>
        <pt x="58" y="600" on="0"/>
        <pt x="274" y="811" on="0"/>
        <pt x="728" y="811" on="0"/>
        <pt x="923" y="613" on="0"/>
      </contour>
      <contour>
        <pt x="397" y="128" on="0"/>
        <pt x="436" y="115" on="0"/>
        <pt x="493" y="115" on="0"/>
        <pt x="585" y="145" on="0"/>
        <pt x="616" y="160" on="1"/>
        <pt x="646" y="175" on="1"/>
        <pt x="635" y="289" on="0"/>
        <pt x="635" y="392" on="1"/>
        <pt x="635" y="542" on="1"/>
        <pt x="562" y="569" on="0"/>
        <pt x="503" y="569" on="1"/>
        <pt x="402" y="569" on="0"/>
        <pt x="328" y="454" on="0"/>
        <pt x="328" y="332" on="1"/>
        <pt x="328" y="191" on="0"/>
        <pt x="375" y="148" on="1"/>
      </contour>
    </TTGlyph>
    <TTGlyph name="atilde" xMin="48" yMin="-9" xMax="486" yMax="715">
      <contour>
        <pt x="411" y="353" on="1"/>
        <pt x="411" y="65" on="1"/>
        <pt x="415" y="29" on="0"/>
        <pt x="486" y="23" on="1"/>
        <pt x="484" y="-8" on="1"/>
        <pt x="411" y="-8" on="0"/>
        <pt x="381" y="34" on="1"/>
        <pt x="279" y="-9" on="0"/>
        <pt x="179" y="-9" on="1"/>
        <pt x="117" y="-9" on="0"/>
        <pt x="48" y="65" on="0"/>
        <pt x="48" y="202" on="0"/>
        <pt x="114" y="274" on="0"/>
        <pt x="186" y="281" on="1"/>
        <pt x="376" y="301" on="1"/>
        <pt x="376" y="353" on="1"/>
        <pt x="376" y="417" on="0"/>
        <pt x="321" y="475" on="0"/>
        <pt x="265" y="475" on="1"/>
        <pt x="208" y="475" on="0"/>
        <pt x="107" y="462" on="1"/>
        <pt x="76" y="458" on="1"/>
        <pt x="73" y="491" on="1"/>
        <pt x="185" y="509" on="0"/>
        <pt x="265" y="509" on="1"/>
        <pt x="411" y="509" on="0"/>
      </contour>
      <contour>
        <pt x="133" y="244" on="0"/>
        <pt x="85" y="190" on="0"/>
        <pt x="85" y="82" on="0"/>
        <pt x="134" y="23" on="0"/>
        <pt x="222" y="23" on="0"/>
        <pt x="320" y="44" on="0"/>
        <pt x="348" y="54" on="1"/>
        <pt x="376" y="64" on="1"/>
        <pt x="376" y="269" on="1"/>
        <pt x="190" y="250" on="1"/>
      </contour>
      <contour>
        <pt x="392" y="673" on="1"/>
        <pt x="350" y="630" on="0"/>
        <pt x="298" y="630" on="0"/>
        <pt x="187" y="684" on="0"/>
        <pt x="175" y="684" on="1"/>
        <pt x="153" y="684" on="0"/>
        <pt x="115" y="650" on="1"/>
        <pt x="102" y="639" on="1"/>
        <pt x="92" y="668" on="1"/>
        <pt x="141" y="715" on="0"/>
        <pt x="174" y="715" on="1"/>
        <pt x="195" y="715" on="0"/>
        <pt x="306" y="662" on="0"/>
        <pt x="318" y="662" on="1"/>
        <pt x="338" y="662" on="0"/>
        <pt x="372" y="692" on="1"/>
        <pt x="383" y="703" on="1"/>
      </contour>
    </TTGlyph>
    <TTGlyph name="b" xMin="78" yMin="-9" xMax="455" yMax="730">
      <contour>
        <pt x="113" y="469" on="1"/>
        <pt x="196" y="509" on="0"/>
        <pt x="383" y="509" on="0"/>
        <pt x="455" y="393" on="0"/>
        <pt x="455" y="111" on="0"/>
        <pt x="361" y="-9" on="0"/>
        <pt x="227" y="-9" on="1"/>
        <pt x="157" y="-9" on="0"/>
        <pt x="100" y="-2" on="1"/>
        <pt x="78" y="0" on="1"/>
        <pt x="78" y="730" on="1"/>
        <pt x="113" y="730" on="1"/>
      </contour>
      <contour>
        <pt x="113" y="29" on="1"/>
        <pt x="191" y="23" on="0"/>
        <pt x="288" y="23" on="0"/>
        <pt x="365" y="49" on="0"/>
        <pt x="405" y="113" on="0"/>
        <pt x="418" y="192" on="0"/>
        <pt x="418" y="258" on="1"/>
        <pt x="418" y="376" on="0"/>
        <pt x="364" y="477" on="0"/>
        <pt x="285" y="477" on="1"/>
        <pt x="245" y="477" on="0"/>
        <pt x="159" y="457" on="0"/>
        <pt x="136" y="447" on="1"/>
        <pt x="113" y="437" on="1"/>
      </contour>
    </TTGlyph>
    <TTGlyph name="backslash" xMin="29" yMin="0" xMax="365" yMax="701">
      <contour>
        <pt x="365" y="14" on="1"/>
        <pt x="330" y="0" on="1"/>
        <pt x="29" y="687" on="1"/>
        <pt x="64" y="701" on="1"/>
      </contour>
    </TTGlyph>
    <TTGlyph name="bar" xMin="85" yMin="-230" xMax="120" yMax="730">
      <contour>
        <pt x="85" y="-230" on="1"/>
        <pt x="85" y="730" on="1"/>
        <pt x="120" y="730" on="1"/>
        <pt x="120" y="-230" on="1"/>
      </contour>
    </TTGlyph>
    <TTGlyph name="braceleft" xMin="29" yMin="-124" xMax="304" yMax="751">
      <contour>
        <pt x="168" y="169" on="1"/>
        <pt x="161" y="99" on="0"/>
        <pt x="161" y="53" on="1"/>
        <pt x="161" y="-18" on="0"/>
        <pt x="223" y="-88" on="0"/>
        <pt x="304" y="-92" on="1"/>
        <pt x="302" y="-124" on="1"/>
        <pt x="207" y="-120" on="0"/>
        <pt x="126" y="-37" on="0"/>
        <pt x="126" y="53" on="1"/>
        <pt x="133" y="176" on="1"/>
        <pt x="133" y="224" on="0"/>
        <pt x="86" y="278" on="0"/>
        <pt x="29" y="294" on="1"/>
        <pt x="29" y="326" on="1"/>
        <pt x="86" y="340" on="0"/>
        <pt x="133" y="396" on="0"/>
        <pt x="133" y="446" on="1"/>
        <pt x="126" y="574" on="1"/>
        <pt x="126" y="664" on="0"/>
        <pt x="207" y="747" on="0"/>
        <pt x="302" y="751" on="1"/>
        <pt x="304" y="719" on="1"/>
        <pt x="222" y="715" on="0"/>
        <pt x="161" y="646" on="0"/>
        <pt x="161" y="574" on="1"/>
        <pt x="168" y="455" on="1"/>
        <pt x="168" y="390" on="0"/>
        <pt x="124" y="329" on="0"/>
        <pt x="68" y="311" on="1"/>
        <pt x="124" y="293" on="0"/>
        <pt x="168" y="231" on="0"/>
      </contour>
    </TTGlyph>
    <TTGlyph name="braceleft.cap" xMin="30" yMin="-94" xMax="305" yMax="781">
      <contour>
        <pt x="169" y="199" on="1"/>
        <pt x="162" y="129" on="0"/>
        <pt x="162" y="83" on="1"/>
        <pt x="162" y="12" on="0"/>
        <pt x="224" y="-58" on="0"/>
        <pt x="305" y="-62" on="1"/>
        <pt x="303" y="-94" on="1"/>
        <pt x="208" y="-90" on="0"/>
        <pt x="127" y="-7" on="0"/>
        <pt x="127" y="83" on="1"/>
        <pt x="134" y="206" on="1"/>
        <pt x="134" y="254" on="0"/>
        <pt x="87" y="308" on="0"/>
        <pt x="30" y="324" on="1"/>
        <pt x="30" y="356" on="1"/>
        <pt x="87" y="370" on="0"/>
        <pt x="134" y="426" on="0"/>
        <pt x="134" y="476" on="1"/>
        <pt x="127" y="604" on="1"/>
        <pt x="127" y="694" on="0"/>
        <pt x="208" y="777" on="0"/>
        <pt x="303" y="781" on="1"/>
        <pt x="305" y="749" on="1"/>
        <pt x="223" y="745" on="0"/>
        <pt x="162" y="676" on="0"/>
        <pt x="162" y="604" on="1"/>
        <pt x="169" y="485" on="1"/>
        <pt x="169" y="420" on="0"/>
        <pt x="125" y="359" on="0"/>
        <pt x="69" y="341" on="1"/>
        <pt x="125" y="323" on="0"/>
        <pt x="169" y="261" on="0"/>
      </contour>
    </TTGlyph>
    <TTGlyph name="braceright" xMin="42" yMin="-124" xMax="317" yMax="751">
      <contour>
        <pt x="185" y="53" on="1"/>
        <pt x="185" y="99" on="0"/>
        <pt x="178" y="169" on="1"/>
        <pt x="178" y="231" on="0"/>
        <pt x="222" y="293" on="0"/>
        <pt x="278" y="311" on="1"/>
        <pt x="222" y="329" on="0"/>
        <pt x="178" y="390" on="0"/>
        <pt x="178" y="455" on="1"/>
        <pt x="185" y="574" on="1"/>
        <pt x="185" y="646" on="0"/>
        <pt x="124" y="715" on="0"/>
        <pt x="42" y="719" on="1"/>
        <pt x="44" y="751" on="1"/>
        <pt x="139" y="747" on="0"/>
        <pt x="220" y="664" on="0"/>
        <pt x="220" y="574" on="1"/>
        <pt x="220" y="574" on="0"/>
        <pt x="213" y="446" on="1"/>
        <pt x="213" y="396" on="0"/>
        <pt x="260" y="340" on="0"/>
        <pt x="317" y="326" on="1"/>
        <pt x="317" y="294" on="1"/>
        <pt x="260" y="278" on="0"/>
        <pt x="213" y="224" on="0"/>
        <pt x="213" y="176" on="1"/>
        <pt x="220" y="53" on="1"/>
        <pt x="220" y="-37" on="0"/>
        <pt x="139" y="-120" on="0"/>
        <pt x="44" y="-124" on="1"/>
        <pt x="42" y="-92" on="1"/>
        <pt x="123" y="-88" on="0"/>
        <pt x="185" y="-18" on="0"/>
      </contour>
    </TTGlyph>
    <TTGlyph name="braceright.cap" xMin="41" yMin="-94" xMax="316" yMax="781">
      <contour>
        <pt x="177" y="488" on="1"/>
        <pt x="184" y="558" on="0"/>
        <pt x="184" y="604" on="1"/>
        <pt x="184" y="675" on="0"/>
        <pt x="122" y="745" on="0"/>
        <pt x="41" y="749" on="1"/>
        <pt x="43" y="781" on="1"/>
        <pt x="138" y="777" on="0"/>
        <pt x="219" y="694" on="0"/>
        <pt x="219" y="604" on="1"/>
        <pt x="212" y="481" on="1"/>
        <pt x="212" y="433" on="0"/>
        <pt x="259" y="379" on="0"/>
        <pt x="316" y="363" on="1"/>
        <pt x="316" y="331" on="1"/>
        <pt x="259" y="317" on="0"/>
        <pt x="212" y="261" on="0"/>
        <pt x="212" y="211" on="1"/>
        <pt x="219" y="83" on="1"/>
        <pt x="219" y="-7" on="0"/>
        <pt x="138" y="-90" on="0"/>
        <pt x="43" y="-94" on="1"/>
        <pt x="41" y="-62" on="1"/>
        <pt x="123" y="-58" on="0"/>
        <pt x="184" y="11" on="0"/>
        <pt x="184" y="83" on="1"/>
        <pt x="177" y="202" on="1"/>
        <pt x="177" y="267" on="0"/>
        <pt x="221" y="328" on="0"/>
        <pt x="277" y="346" on="1"/>
        <pt x="221" y="364" on="0"/>
        <pt x="177" y="426" on="0"/>
      </contour>
    </TTGlyph>
    <TTGlyph name="bracketleft" xMin="86" yMin="-123" xMax="268" yMax="749">
      <contour>
        <pt x="268" y="749" on="1"/>
        <pt x="268" y="717" on="1"/>
        <pt x="121" y="717" on="1"/>
        <pt x="121" y="-91" on="1"/>
        <pt x="268" y="-91" on="1"/>
        <pt x="268" y="-123" on="1"/>
        <pt x="86" y="-123" on="1"/>
        <pt x="86" y="749" on="1"/>
      </contour>
    </TTGlyph>
    <TTGlyph name="bracketleft.cap" xMin="86" yMin="-93" xMax="268" yMax="779">
      <contour>
        <pt x="268" y="779" on="1"/>
        <pt x="268" y="747" on="1"/>
        <pt x="121" y="747" on="1"/>
        <pt x="121" y="-61" on="1"/>
        <pt x="268" y="-61" on="1"/>
        <pt x="268" y="-93" on="1"/>
        <pt x="86" y="-93" on="1"/>
        <pt x="86" y="779" on="1"/>
      </contour>
    </TTGlyph>
    <TTGlyph name="bracketright" xMin="43" yMin="-123" xMax="225" yMax="749">
      <contour>
        <pt x="43" y="717" on="1"/>
        <pt x="43" y="749" on="1"/>
        <pt x="225" y="749" on="1"/>
        <pt x="225" y="-123" on="1"/>
        <pt x="43" y="-123" on="1"/>
        <pt x="43" y="-91" on="1"/>
        <pt x="190" y="-91" on="1"/>
        <pt x="190" y="717" on="1"/>
      </contour>
    </TTGlyph>
    <TTGlyph name="bracketright.cap" xMin="43" yMin="-93" xMax="225" yMax="779">
      <contour>
        <pt x="43" y="747" on="1"/>
        <pt x="43" y="779" on="1"/>
        <pt x="225" y="779" on="1"/>
        <pt x="225" y="-93" on="1"/>
        <pt x="43" y="-93" on="1"/>
        <pt x="43" y="-61" on="1"/>
        <pt x="190" y="-61" on="1"/>
        <pt x="190" y="747" on="1"/>
      </contour>
    </TTGlyph>
    <TTGlyph name="breve" xMin="-15" yMin="595" xMax="261" yMax="723">
      <contour>
        <pt x="-15" y="723" on="1"/>
        <pt x="20" y="723" on="1"/>
        <pt x="20" y="681" on="0"/>
        <pt x="75" y="627" on="0"/>
        <pt x="171" y="627" on="0"/>
        <pt x="226" y="681" on="0"/>
        <pt x="226" y="723" on="1"/>
        <pt x="261" y="723" on="1"/>
        <pt x="261" y="667" on="0"/>
        <pt x="185" y="595" on="0"/>
        <pt x="61" y="595" on="0"/>
        <pt x="-15" y="667" on="0"/>
      </contour>
    </TTGlyph>
    <TTGlyph name="breve.cap" xMin="-15" yMin="805" xMax="261" yMax="924">
      <contour>
        <pt x="-15" y="924" on="1"/>
        <pt x="20" y="924" on="1"/>
        <pt x="20" y="884" on="0"/>
        <pt x="80" y="837" on="0"/>
        <pt x="166" y="837" on="0"/>
        <pt x="226" y="884" on="0"/>
        <pt x="226" y="924" on="1"/>
        <pt x="261" y="924" on="1"/>
        <pt x="261" y="870" on="0"/>
        <pt x="181" y="805" on="0"/>
        <pt x="65" y="805" on="0"/>
        <pt x="-15" y="870" on="0"/>
      </contour>
    </TTGlyph>
    <TTGlyph name="brokenbar" xMin="87" yMin="-230" xMax="122" yMax="730">
      <contour>
        <pt x="87" y="730" on="1"/>
        <pt x="122" y="730" on="1"/>
        <pt x="122" y="354" on="1"/>
        <pt x="87" y="354" on="1"/>
      </contour>
      <contour>
        <pt x="87" y="146" on="1"/>
        <pt x="122" y="146" on="1"/>
        <pt x="122" y="-230" on="1"/>
        <pt x="87" y="-230" on="1"/>
      </contour>
    </TTGlyph>
    <TTGlyph name="bullet" xMin="119" yMin="110" xMax="369" yMax="400">
      <contour>
        <pt x="119" y="110" on="1"/>
        <pt x="119" y="400" on="1"/>
        <pt x="369" y="400" on="1"/>
        <pt x="369" y="110" on="1"/>
      </contour>
    </TTGlyph>
    <TTGlyph name="c" xMin="60" yMin="-9" xMax="387" yMax="509">
      <contour>
        <pt x="265" y="477" on="1"/>
        <pt x="170" y="477" on="0"/>
        <pt x="97" y="381" on="0"/>
        <pt x="97" y="126" on="0"/>
        <pt x="163" y="23" on="0"/>
        <pt x="265" y="23" on="1"/>
        <pt x="385" y="32" on="1"/>
        <pt x="387" y="0" on="1"/>
        <pt x="303" y="-9" on="0"/>
        <pt x="265" y="-9" on="1"/>
        <pt x="143" y="-9" on="0"/>
        <pt x="60" y="106" on="0"/>
        <pt x="60" y="399" on="0"/>
        <pt x="152" y="509" on="0"/>
        <pt x="265" y="509" on="1"/>
        <pt x="385" y="499" on="1"/>
        <pt x="383" y="467" on="1"/>
        <pt x="303" y="477" on="0"/>
      </contour>
    </TTGlyph>
    <TTGlyph name="cacute" xMin="60" yMin="-9" xMax="387" yMax="732">
      <contour>
        <pt x="265" y="477" on="1"/>
        <pt x="170" y="477" on="0"/>
        <pt x="97" y="381" on="0"/>
        <pt x="97" y="126" on="0"/>
        <pt x="163" y="23" on="0"/>
        <pt x="265" y="23" on="1"/>
        <pt x="385" y="32" on="1"/>
        <pt x="387" y="0" on="1"/>
        <pt x="303" y="-9" on="0"/>
        <pt x="265" y="-9" on="1"/>
        <pt x="143" y="-9" on="0"/>
        <pt x="60" y="106" on="0"/>
        <pt x="60" y="399" on="0"/>
        <pt x="152" y="509" on="0"/>
        <pt x="265" y="509" on="1"/>
        <pt x="385" y="499" on="1"/>
        <pt x="383" y="467" on="1"/>
        <pt x="303" y="477" on="0"/>
      </contour>
      <contour>
        <pt x="146" y="636" on="1"/>
        <pt x="338" y="732" on="1"/>
        <pt x="354" y="701" on="1"/>
        <pt x="161" y="609" on="1"/>
      </contour>
    </TTGlyph>
    <TTGlyph name="caron" xMin="-15" yMin="600" xMax="256" yMax="732">
      <contour>
        <pt x="106" y="600" on="1"/>
        <pt x="-15" y="732" on="1"/>
        <pt x="27" y="732" on="1"/>
        <pt x="121" y="633" on="1"/>
        <pt x="214" y="732" on="1"/>
        <pt x="256" y="732" on="1"/>
        <pt x="134" y="600" on="1"/>
      </contour>
    </TTGlyph>
    <TTGlyph name="caron.cap" xMin="-27" yMin="809" xMax="271" yMax="934">
      <contour>
        <pt x="107" y="809" on="1"/>
        <pt x="-27" y="934" on="1"/>
        <pt x="18" y="934" on="1"/>
        <pt x="122" y="838" on="1"/>
        <pt x="225" y="934" on="1"/>
        <pt x="271" y="934" on="1"/>
        <pt x="137" y="809" on="1"/>
      </contour>
    </TTGlyph>
    <TTGlyph name="ccaron" xMin="60" yMin="-9" xMax="387" yMax="732">
      <contour>
        <pt x="265" y="477" on="1"/>
        <pt x="170" y="477" on="0"/>
        <pt x="97" y="381" on="0"/>
        <pt x="97" y="126" on="0"/>
        <pt x="163" y="23" on="0"/>
        <pt x="265" y="23" on="1"/>
        <pt x="385" y="32" on="1"/>
        <pt x="387" y="0" on="1"/>
        <pt x="303" y="-9" on="0"/>
        <pt x="265" y="-9" on="1"/>
        <pt x="143" y="-9" on="0"/>
        <pt x="60" y="106" on="0"/>
        <pt x="60" y="399" on="0"/>
        <pt x="152" y="509" on="0"/>
        <pt x="265" y="509" on="1"/>
        <pt x="385" y="499" on="1"/>
        <pt x="383" y="467" on="1"/>
        <pt x="303" y="477" on="0"/>
      </contour>
      <contour>
        <pt x="224" y="600" on="1"/>
        <pt x="103" y="732" on="1"/>
        <pt x="145" y="732" on="1"/>
        <pt x="239" y="633" on="1"/>
        <pt x="332" y="732" on="1"/>
        <pt x="374" y="732" on="1"/>
        <pt x="252" y="600" on="1"/>
      </contour>
    </TTGlyph>
    <TTGlyph name="ccedilla" xMin="60" yMin="-201" xMax="387" yMax="509">
      <contour>
        <pt x="348" y="-127" on="1"/>
        <pt x="348" y="-201" on="0"/>
        <pt x="266" y="-201" on="1"/>
        <pt x="185" y="-197" on="1"/>
        <pt x="187" y="-169" on="1"/>
        <pt x="231" y="-173" on="0"/>
        <pt x="265" y="-173" on="1"/>
        <pt x="313" y="-173" on="0"/>
        <pt x="313" y="-127" on="1"/>
        <pt x="313" y="-85" on="0"/>
        <pt x="265" y="-85" on="1"/>
        <pt x="211" y="-85" on="1"/>
        <pt x="211" y="-6" on="1"/>
        <pt x="122" y="5" on="0"/>
        <pt x="60" y="123" on="0"/>
        <pt x="60" y="399" on="0"/>
        <pt x="152" y="509" on="0"/>
        <pt x="265" y="509" on="1"/>
        <pt x="385" y="499" on="1"/>
        <pt x="383" y="467" on="1"/>
        <pt x="303" y="477" on="0"/>
        <pt x="265" y="477" on="1"/>
        <pt x="170" y="477" on="0"/>
        <pt x="97" y="381" on="0"/>
        <pt x="97" y="126" on="0"/>
        <pt x="163" y="23" on="0"/>
        <pt x="265" y="23" on="1"/>
        <pt x="385" y="32" on="1"/>
        <pt x="387" y="0" on="1"/>
        <pt x="303" y="-9" on="0"/>
        <pt x="251" y="-9" on="0"/>
        <pt x="244" y="-8" on="1"/>
        <pt x="244" y="-57" on="1"/>
        <pt x="300" y="-57" on="0"/>
        <pt x="348" y="-87" on="0"/>
      </contour>
    </TTGlyph>
    <TTGlyph name="ccircumflex" xMin="60" yMin="-9" xMax="387" yMax="732">
      <contour>
        <pt x="265" y="477" on="1"/>
        <pt x="170" y="477" on="0"/>
        <pt x="97" y="381" on="0"/>
        <pt x="97" y="126" on="0"/>
        <pt x="163" y="23" on="0"/>
        <pt x="265" y="23" on="1"/>
        <pt x="385" y="32" on="1"/>
        <pt x="387" y="0" on="1"/>
        <pt x="303" y="-9" on="0"/>
        <pt x="265" y="-9" on="1"/>
        <pt x="143" y="-9" on="0"/>
        <pt x="60" y="106" on="0"/>
        <pt x="60" y="399" on="0"/>
        <pt x="152" y="509" on="0"/>
        <pt x="265" y="509" on="1"/>
        <pt x="385" y="499" on="1"/>
        <pt x="383" y="467" on="1"/>
        <pt x="303" y="477" on="0"/>
      </contour>
      <contour>
        <pt x="103" y="600" on="1"/>
        <pt x="224" y="732" on="1"/>
        <pt x="252" y="732" on="1"/>
        <pt x="374" y="600" on="1"/>
        <pt x="331" y="600" on="1"/>
        <pt x="239" y="700" on="1"/>
        <pt x="146" y="600" on="1"/>
      </contour>
    </TTGlyph>
    <TTGlyph name="cdotaccent" xMin="60" yMin="-9" xMax="387" yMax="700">
      <contour>
        <pt x="265" y="477" on="1"/>
        <pt x="170" y="477" on="0"/>
        <pt x="97" y="381" on="0"/>
        <pt x="97" y="126" on="0"/>
        <pt x="163" y="23" on="0"/>
        <pt x="265" y="23" on="1"/>
        <pt x="385" y="32" on="1"/>
        <pt x="387" y="0" on="1"/>
        <pt x="303" y="-9" on="0"/>
        <pt x="265" y="-9" on="1"/>
        <pt x="143" y="-9" on="0"/>
        <pt x="60" y="106" on="0"/>
        <pt x="60" y="399" on="0"/>
        <pt x="152" y="509" on="0"/>
        <pt x="265" y="509" on="1"/>
        <pt x="385" y="499" on="1"/>
        <pt x="383" y="467" on="1"/>
        <pt x="303" y="477" on="0"/>
      </contour>
      <contour>
        <pt x="230" y="645" on="1"/>
        <pt x="230" y="700" on="1"/>
        <pt x="265" y="700" on="1"/>
        <pt x="265" y="645" on="1"/>
      </contour>
    </TTGlyph>
    <TTGlyph name="cedilla" xMin="50" yMin="-201" xMax="213" yMax="1">
      <contour>
        <pt x="213" y="-127" on="1"/>
        <pt x="213" y="-201" on="0"/>
        <pt x="131" y="-201" on="1"/>
        <pt x="50" y="-197" on="1"/>
        <pt x="52" y="-169" on="1"/>
        <pt x="96" y="-173" on="0"/>
        <pt x="130" y="-173" on="1"/>
        <pt x="178" y="-173" on="0"/>
        <pt x="178" y="-127" on="1"/>
        <pt x="178" y="-85" on="0"/>
        <pt x="130" y="-85" on="1"/>
        <pt x="76" y="-85" on="1"/>
        <pt x="76" y="1" on="1"/>
        <pt x="109" y="1" on="1"/>
        <pt x="109" y="-57" on="1"/>
        <pt x="165" y="-57" on="0"/>
        <pt x="213" y="-87" on="0"/>
      </contour>
    </TTGlyph>
    <TTGlyph name="cent" xMin="109" yMin="-85" xMax="436" yMax="591">
      <contour>
        <pt x="284" y="-85" on="1"/>
        <pt x="284" y="41" on="1"/>
        <pt x="188" y="44" on="0"/>
        <pt x="109" y="129" on="0"/>
        <pt x="109" y="359" on="0"/>
        <pt x="191" y="458" on="0"/>
        <pt x="283" y="461" on="1"/>
        <pt x="283" y="591" on="1"/>
        <pt x="318" y="591" on="1"/>
        <pt x="318" y="460" on="1"/>
        <pt x="358" y="460" on="0"/>
        <pt x="415" y="451" on="1"/>
        <pt x="434" y="448" on="1"/>
        <pt x="432" y="415" on="1"/>
        <pt x="352" y="425" on="0"/>
        <pt x="294" y="425" on="1"/>
        <pt x="214" y="425" on="0"/>
        <pt x="149" y="344" on="0"/>
        <pt x="149" y="147" on="0"/>
        <pt x="212" y="77" on="0"/>
        <pt x="304" y="77" on="1"/>
        <pt x="356" y="77" on="0"/>
        <pt x="414" y="83" on="1"/>
        <pt x="434" y="85" on="1"/>
        <pt x="436" y="50" on="1"/>
        <pt x="362" y="42" on="0"/>
        <pt x="319" y="41" on="1"/>
        <pt x="319" y="-85" on="1"/>
      </contour>
    </TTGlyph>
    <TTGlyph name="circumflex" xMin="-15" yMin="600" xMax="256" yMax="732">
      <contour>
        <pt x="-15" y="600" on="1"/>
        <pt x="106" y="732" on="1"/>
        <pt x="134" y="732" on="1"/>
        <pt x="256" y="600" on="1"/>
        <pt x="213" y="600" on="1"/>
        <pt x="121" y="700" on="1"/>
        <pt x="28" y="600" on="1"/>
      </contour>
    </TTGlyph>
    <TTGlyph name="circumflex.cap" xMin="74" yMin="809" xMax="372" yMax="934">
      <contour>
        <pt x="74" y="809" on="1"/>
        <pt x="208" y="934" on="1"/>
        <pt x="238" y="934" on="1"/>
        <pt x="372" y="809" on="1"/>
        <pt x="327" y="809" on="1"/>
        <pt x="223" y="905" on="1"/>
        <pt x="120" y="809" on="1"/>
      </contour>
    </TTGlyph>
    <TTGlyph name="colon" xMin="75" yMin="0" xMax="115" yMax="424">
      <contour>
        <pt x="75" y="344" on="1"/>
        <pt x="75" y="424" on="1"/>
        <pt x="115" y="424" on="1"/>
        <pt x="115" y="344" on="1"/>
      </contour>
      <contour>
        <pt x="75" y="0" on="1"/>
        <pt x="75" y="80" on="1"/>
        <pt x="115" y="80" on="1"/>
        <pt x="115" y="0" on="1"/>
      </contour>
    </TTGlyph>
    <TTGlyph name="comma" xMin="44" yMin="-123" xMax="126" yMax="87">
      <contour>
        <pt x="44" y="-123" on="1"/>
        <pt x="86" y="87" on="1"/>
        <pt x="126" y="87" on="1"/>
        <pt x="75" y="-123" on="1"/>
      </contour>
    </TTGlyph>
    <TTGlyph name="commaaccent" xMin="42" yMin="-267" xMax="116" yMax="-78">
      <contour>
        <pt x="42" y="-267" on="1"/>
        <pt x="79" y="-78" on="1"/>
        <pt x="116" y="-78" on="1"/>
        <pt x="70" y="-267" on="1"/>
      </contour>
    </TTGlyph>
    <TTGlyph name="copyright" xMin="68" yMin="169" xMax="579" yMax="700">
      <contour>
        <pt x="68" y="323" on="0"/>
        <pt x="68" y="545" on="0"/>
        <pt x="214" y="700" on="0"/>
        <pt x="432" y="700" on="0"/>
        <pt x="579" y="545" on="0"/>
        <pt x="579" y="323" on="0"/>
        <pt x="432" y="169" on="0"/>
        <pt x="214" y="169" on="0"/>
      </contour>
      <contour>
        <pt x="100" y="532" on="0"/>
        <pt x="100" y="336" on="0"/>
        <pt x="227" y="201" on="0"/>
        <pt x="419" y="201" on="0"/>
        <pt x="547" y="336" on="0"/>
        <pt x="547" y="532" on="0"/>
        <pt x="419" y="668" on="0"/>
        <pt x="227" y="668" on="0"/>
      </contour>
      <contour>
        <pt x="323" y="281" on="1"/>
        <pt x="261" y="281" on="0"/>
        <pt x="214" y="358" on="0"/>
        <pt x="214" y="509" on="0"/>
        <pt x="260" y="587" on="0"/>
        <pt x="323" y="587" on="1"/>
        <pt x="362" y="587" on="0"/>
        <pt x="387" y="582" on="1"/>
        <pt x="397" y="580" on="1"/>
        <pt x="396" y="548" on="1"/>
        <pt x="355" y="555" on="0"/>
        <pt x="323" y="555" on="1"/>
        <pt x="274" y="555" on="0"/>
        <pt x="246" y="499" on="0"/>
        <pt x="246" y="371" on="0"/>
        <pt x="278" y="313" on="0"/>
        <pt x="323" y="313" on="1"/>
        <pt x="396" y="321" on="1"/>
        <pt x="397" y="289" on="1"/>
        <pt x="354" y="281" on="0"/>
      </contour>
    </TTGlyph>
    <TTGlyph name="currency" xMin="77" yMin="49" xMax="483" yMax="455">
      <contour>
        <pt x="341" y="82" on="0"/>
        <pt x="219" y="82" on="0"/>
        <pt x="173" y="120" on="1"/>
        <pt x="103" y="49" on="1"/>
        <pt x="77" y="75" on="1"/>
        <pt x="148" y="145" on="1"/>
        <pt x="110" y="191" on="0"/>
        <pt x="110" y="313" on="0"/>
        <pt x="148" y="359" on="1"/>
        <pt x="77" y="429" on="1"/>
        <pt x="103" y="455" on="1"/>
        <pt x="173" y="384" on="1"/>
        <pt x="219" y="422" on="0"/>
        <pt x="341" y="422" on="0"/>
        <pt x="387" y="384" on="1"/>
        <pt x="457" y="455" on="1"/>
        <pt x="483" y="429" on="1"/>
        <pt x="412" y="359" on="1"/>
        <pt x="450" y="313" on="0"/>
        <pt x="450" y="191" on="0"/>
        <pt x="412" y="145" on="1"/>
        <pt x="483" y="75" on="1"/>
        <pt x="457" y="49" on="1"/>
        <pt x="387" y="120" on="1"/>
      </contour>
      <contour>
        <pt x="225" y="118" on="0"/>
        <pt x="335" y="118" on="0"/>
        <pt x="414" y="197" on="0"/>
        <pt x="414" y="307" on="0"/>
        <pt x="335" y="386" on="0"/>
        <pt x="225" y="386" on="0"/>
        <pt x="146" y="307" on="0"/>
        <pt x="146" y="197" on="0"/>
      </contour>
    </TTGlyph>
    <TTGlyph name="d" xMin="58" yMin="-9" xMax="436" yMax="730">
      <contour>
        <pt x="436" y="730" on="1"/>
        <pt x="436" y="0" on="1"/>
        <pt x="401" y="0" on="1"/>
        <pt x="401" y="42" on="1"/>
        <pt x="372" y="23" on="0"/>
        <pt x="268" y="-9" on="0"/>
        <pt x="203" y="-9" on="0"/>
        <pt x="168" y="-4" on="0"/>
        <pt x="116" y="23" on="0"/>
        <pt x="83" y="73" on="0"/>
        <pt x="58" y="173" on="0"/>
        <pt x="58" y="242" on="1"/>
        <pt x="58" y="378" on="0"/>
        <pt x="151" y="509" on="0"/>
        <pt x="269" y="509" on="1"/>
        <pt x="326" y="509" on="0"/>
        <pt x="401" y="497" on="1"/>
        <pt x="401" y="730" on="1"/>
      </contour>
      <contour>
        <pt x="163" y="36" on="0"/>
        <pt x="202" y="23" on="0"/>
        <pt x="266" y="23" on="0"/>
        <pt x="353" y="49" on="0"/>
        <pt x="377" y="62" on="1"/>
        <pt x="401" y="75" on="1"/>
        <pt x="401" y="465" on="1"/>
        <pt x="323" y="477" on="0"/>
        <pt x="269" y="477" on="1"/>
        <pt x="168" y="477" on="0"/>
        <pt x="95" y="363" on="0"/>
        <pt x="95" y="242" on="1"/>
        <pt x="95" y="98" on="0"/>
        <pt x="141" y="56" on="1"/>
      </contour>
    </TTGlyph>
    <TTGlyph name="dagger" xMin="38" yMin="-79" xMax="439" yMax="700">
      <contour>
        <pt x="38" y="466" on="1"/>
        <pt x="38" y="500" on="1"/>
        <pt x="221" y="500" on="1"/>
        <pt x="221" y="700" on="1"/>
        <pt x="256" y="700" on="1"/>
        <pt x="256" y="500" on="1"/>
        <pt x="439" y="500" on="1"/>
        <pt x="439" y="466" on="1"/>
        <pt x="256" y="466" on="1"/>
        <pt x="255" y="-79" on="1"/>
        <pt x="222" y="-79" on="1"/>
        <pt x="221" y="466" on="1"/>
      </contour>
    </TTGlyph>
    <TTGlyph name="daggerdbl" xMin="63" yMin="-79" xMax="464" yMax="700">
      <contour>
        <pt x="246" y="-79" on="1"/>
        <pt x="246" y="121" on="1"/>
        <pt x="63" y="121" on="1"/>
        <pt x="63" y="153" on="1"/>
        <pt x="246" y="153" on="1"/>
        <pt x="246" y="466" on="1"/>
        <pt x="63" y="466" on="1"/>
        <pt x="63" y="500" on="1"/>
        <pt x="246" y="500" on="1"/>
        <pt x="246" y="700" on="1"/>
        <pt x="281" y="700" on="1"/>
        <pt x="281" y="500" on="1"/>
        <pt x="464" y="500" on="1"/>
        <pt x="464" y="466" on="1"/>
        <pt x="281" y="466" on="1"/>
        <pt x="281" y="153" on="1"/>
        <pt x="464" y="153" on="1"/>
        <pt x="464" y="121" on="1"/>
        <pt x="281" y="121" on="1"/>
        <pt x="281" y="-79" on="1"/>
      </contour>
    </TTGlyph>
    <TTGlyph name="dcaron" xMin="58" yMin="-9" xMax="574" yMax="730">
      <contour>
        <pt x="537" y="687" on="1"/>
        <pt x="574" y="687" on="1"/>
        <pt x="528" y="498" on="1"/>
        <pt x="500" y="498" on="1"/>
      </contour>
      <contour>
        <pt x="436" y="730" on="1"/>
        <pt x="436" y="0" on="1"/>
        <pt x="401" y="0" on="1"/>
        <pt x="401" y="42" on="1"/>
        <pt x="372" y="23" on="0"/>
        <pt x="268" y="-9" on="0"/>
        <pt x="203" y="-9" on="0"/>
        <pt x="168" y="-4" on="0"/>
        <pt x="116" y="23" on="0"/>
        <pt x="83" y="73" on="0"/>
        <pt x="58" y="173" on="0"/>
        <pt x="58" y="242" on="1"/>
        <pt x="58" y="378" on="0"/>
        <pt x="151" y="509" on="0"/>
        <pt x="269" y="509" on="1"/>
        <pt x="326" y="509" on="0"/>
        <pt x="401" y="497" on="1"/>
        <pt x="401" y="730" on="1"/>
      </contour>
      <contour>
        <pt x="163" y="36" on="0"/>
        <pt x="202" y="23" on="0"/>
        <pt x="266" y="23" on="0"/>
        <pt x="353" y="49" on="0"/>
        <pt x="377" y="62" on="1"/>
        <pt x="401" y="75" on="1"/>
        <pt x="401" y="465" on="1"/>
        <pt x="323" y="477" on="0"/>
        <pt x="269" y="477" on="1"/>
        <pt x="168" y="477" on="0"/>
        <pt x="95" y="363" on="0"/>
        <pt x="95" y="242" on="1"/>
        <pt x="95" y="98" on="0"/>
        <pt x="141" y="56" on="1"/>
      </contour>
    </TTGlyph>
    <TTGlyph name="dcroat" xMin="58" yMin="-9" xMax="495" yMax="730">
      <contour>
        <pt x="436" y="730" on="1"/>
        <pt x="436" y="654" on="1"/>
        <pt x="495" y="654" on="1"/>
        <pt x="495" y="622" on="1"/>
        <pt x="436" y="622" on="1"/>
        <pt x="436" y="0" on="1"/>
        <pt x="401" y="0" on="1"/>
        <pt x="401" y="42" on="1"/>
        <pt x="372" y="23" on="0"/>
        <pt x="268" y="-9" on="0"/>
        <pt x="203" y="-9" on="0"/>
        <pt x="168" y="-4" on="0"/>
        <pt x="116" y="23" on="0"/>
        <pt x="83" y="73" on="0"/>
        <pt x="58" y="173" on="0"/>
        <pt x="58" y="242" on="1"/>
        <pt x="58" y="378" on="0"/>
        <pt x="151" y="509" on="0"/>
        <pt x="269" y="509" on="1"/>
        <pt x="326" y="509" on="0"/>
        <pt x="401" y="497" on="1"/>
        <pt x="401" y="622" on="1"/>
        <pt x="228" y="622" on="1"/>
        <pt x="228" y="654" on="1"/>
        <pt x="401" y="654" on="1"/>
        <pt x="401" y="730" on="1"/>
      </contour>
      <contour>
        <pt x="163" y="36" on="0"/>
        <pt x="202" y="23" on="0"/>
        <pt x="266" y="23" on="0"/>
        <pt x="353" y="49" on="0"/>
        <pt x="377" y="62" on="1"/>
        <pt x="401" y="75" on="1"/>
        <pt x="401" y="465" on="1"/>
        <pt x="323" y="477" on="0"/>
        <pt x="269" y="477" on="1"/>
        <pt x="168" y="477" on="0"/>
        <pt x="95" y="363" on="0"/>
        <pt x="95" y="242" on="1"/>
        <pt x="95" y="98" on="0"/>
        <pt x="141" y="56" on="1"/>
      </contour>
    </TTGlyph>
    <TTGlyph name="degree" xMin="144" yMin="438" xMax="416" yMax="709">
      <contour>
        <pt x="144" y="512" on="0"/>
        <pt x="144" y="634" on="0"/>
        <pt x="219" y="709" on="0"/>
        <pt x="341" y="709" on="0"/>
        <pt x="416" y="634" on="0"/>
        <pt x="416" y="512" on="0"/>
        <pt x="341" y="438" on="0"/>
        <pt x="219" y="438" on="0"/>
      </contour>
      <contour>
        <pt x="178" y="620" on="0"/>
        <pt x="178" y="526" on="0"/>
        <pt x="234" y="470" on="0"/>
        <pt x="327" y="470" on="0"/>
        <pt x="384" y="527" on="0"/>
        <pt x="384" y="620" on="0"/>
        <pt x="326" y="677" on="0"/>
        <pt x="234" y="677" on="0"/>
      </contour>
    </TTGlyph>
    <TTGlyph name="dieresis" xMin="0" yMin="638" xMax="225" yMax="700">
      <contour>
        <pt x="0" y="638" on="1"/>
        <pt x="0" y="700" on="1"/>
        <pt x="35" y="700" on="1"/>
        <pt x="35" y="638" on="1"/>
      </contour>
      <contour>
        <pt x="190" y="638" on="1"/>
        <pt x="190" y="700" on="1"/>
        <pt x="225" y="700" on="1"/>
        <pt x="225" y="638" on="1"/>
      </contour>
    </TTGlyph>
    <TTGlyph name="dieresis.cap" xMin="-8" yMin="838" xMax="223" yMax="900">
      <contour>
        <pt x="-8" y="838" on="1"/>
        <pt x="-8" y="900" on="1"/>
        <pt x="27" y="900" on="1"/>
        <pt x="27" y="838" on="1"/>
      </contour>
      <contour>
        <pt x="188" y="838" on="1"/>
        <pt x="188" y="900" on="1"/>
        <pt x="223" y="900" on="1"/>
        <pt x="223" y="838" on="1"/>
      </contour>
    </TTGlyph>
    <TTGlyph name="divide" xMin="58" yMin="39" xMax="502" yMax="463">
      <contour>
        <pt x="58" y="234" on="1"/>
        <pt x="58" y="268" on="1"/>
        <pt x="502" y="268" on="1"/>
        <pt x="502" y="234" on="1"/>
      </contour>
      <contour>
        <pt x="261" y="383" on="1"/>
        <pt x="261" y="463" on="1"/>
        <pt x="299" y="463" on="1"/>
        <pt x="299" y="383" on="1"/>
      </contour>
      <contour>
        <pt x="261" y="39" on="1"/>
        <pt x="261" y="119" on="1"/>
        <pt x="299" y="119" on="1"/>
        <pt x="299" y="39" on="1"/>
      </contour>
    </TTGlyph>
    <TTGlyph name="dollar" xMin="80" yMin="-120" xMax="484" yMax="790">
      <contour>
        <pt x="484" y="191" on="1"/>
        <pt x="484" y="84" on="0"/>
        <pt x="386" y="-7" on="0"/>
        <pt x="285" y="-7" on="1"/>
        <pt x="270" y="-7" on="0"/>
        <pt x="261" y="-6" on="1"/>
        <pt x="247" y="-120" on="1"/>
        <pt x="212" y="-117" on="0"/>
        <pt x="212" y="-113" on="1"/>
        <pt x="226" y="-5" on="1"/>
        <pt x="83" y="8" on="1"/>
        <pt x="87" y="41" on="1"/>
        <pt x="164" y="31" on="0"/>
        <pt x="230" y="27" on="1"/>
        <pt x="269" y="326" on="1"/>
        <pt x="167" y="342" on="0"/>
        <pt x="80" y="411" on="0"/>
        <pt x="80" y="503" on="1"/>
        <pt x="80" y="669" on="0"/>
        <pt x="283" y="669" on="1"/>
        <pt x="303" y="669" on="0"/>
        <pt x="314" y="668" on="1"/>
        <pt x="330" y="790" on="1"/>
        <pt x="365" y="790" on="1"/>
        <pt x="349" y="666" on="1"/>
        <pt x="470" y="654" on="1"/>
        <pt x="466" y="621" on="1"/>
        <pt x="401" y="629" on="0"/>
        <pt x="344" y="633" on="1"/>
        <pt x="308" y="355" on="1"/>
        <pt x="402" y="339" on="0"/>
        <pt x="484" y="271" on="0"/>
      </contour>
      <contour>
        <pt x="115" y="505" on="1"/>
        <pt x="115" y="429" on="0"/>
        <pt x="185" y="374" on="0"/>
        <pt x="273" y="360" on="1"/>
        <pt x="310" y="636" on="1"/>
        <pt x="299" y="637" on="0"/>
        <pt x="283" y="637" on="1"/>
        <pt x="115" y="637" on="0"/>
      </contour>
      <contour>
        <pt x="284" y="25" on="1"/>
        <pt x="449" y="25" on="0"/>
        <pt x="449" y="178" on="1"/>
        <pt x="449" y="253" on="0"/>
        <pt x="384" y="307" on="0"/>
        <pt x="304" y="321" on="1"/>
        <pt x="265" y="25" on="1"/>
      </contour>
    </TTGlyph>
    <TTGlyph name="dotaccent" xMin="90" yMin="645" xMax="125" yMax="700">
      <contour>
        <pt x="90" y="645" on="1"/>
        <pt x="90" y="700" on="1"/>
        <pt x="125" y="700" on="1"/>
        <pt x="125" y="645" on="1"/>
      </contour>
    </TTGlyph>
    <TTGlyph name="dotaccent.cap" xMin="90" yMin="823" xMax="125" yMax="878">
      <contour>
        <pt x="90" y="823" on="1"/>
        <pt x="90" y="878" on="1"/>
        <pt x="125" y="878" on="1"/>
        <pt x="125" y="823" on="1"/>
      </contour>
    </TTGlyph>
    <TTGlyph name="dotlessi" xMin="79" yMin="0" xMax="114" yMax="500">
      <contour>
        <pt x="79" y="0" on="1"/>
        <pt x="79" y="500" on="1"/>
        <pt x="114" y="500" on="1"/>
        <pt x="114" y="0" on="1"/>
      </contour>
    </TTGlyph>
    <TTGlyph name="dotlessj" xMin="-59" yMin="-218" xMax="114" yMax="500">
      <contour>
        <pt x="79" y="6" on="1"/>
        <pt x="79" y="500" on="1"/>
        <pt x="114" y="500" on="1"/>
        <pt x="114" y="5" on="1"/>
        <pt x="114" y="-80" on="0"/>
        <pt x="51" y="-169" on="0"/>
        <pt x="-45" y="-218" on="1"/>
        <pt x="-59" y="-187" on="1"/>
        <pt x="27" y="-140" on="0"/>
        <pt x="79" y="-67" on="0"/>
      </contour>
    </TTGlyph>
</ttFont>
